<ttFont>
    <TTGlyph name="A" xMin="-44" yMin="-31" xMax="528" yMax="738">
      <contour>
        <pt x="511" y="92" on="1"/>
        <pt x="528" y="80" on="0"/>
        <pt x="528" y="61" on="1"/>
        <pt x="528" y="24" on="0"/>
        <pt x="429" y="-26" on="0"/>
        <pt x="387" y="-26" on="1"/>
        <pt x="354" y="-26" on="0"/>
        <pt x="339" y="-11" on="1"/>
        <pt x="327" y="1" on="0"/>
        <pt x="325" y="48" on="0"/>
        <pt x="323" y="102" on="0"/>
        <pt x="322" y="146" on="0"/>
        <pt x="304" y="177" on="0"/>
        <pt x="296" y="180" on="1"/>
        <pt x="287" y="184" on="0"/>
        <pt x="206" y="184" on="0"/>
        <pt x="184" y="175" on="1"/>
        <pt x="162" y="165" on="0"/>
        <pt x="142" y="82" on="1"/>
        <pt x="137" y="62" on="0"/>
        <pt x="136" y="60" on="1"/>
        <pt x="109" y="-31" on="0"/>
        <pt x="5" y="-31" on="1"/>
        <pt x="-44" y="-31" on="0"/>
        <pt x="-44" y="-2" on="1"/>
        <pt x="-44" y="19" on="0"/>
        <pt x="-28" y="44" on="1"/>
        <pt x="-22" y="53" on="1"/>
        <pt x="52" y="188" on="0"/>
        <pt x="173" y="595" on="0"/>
        <pt x="173" y="639" on="1"/>
        <pt x="173" y="656" on="0"/>
        <pt x="162" y="681" on="0"/>
        <pt x="162" y="688" on="1"/>
        <pt x="162" y="738" on="0"/>
        <pt x="248" y="738" on="1"/>
        <pt x="301" y="738" on="0"/>
        <pt x="378" y="697" on="0"/>
        <pt x="388" y="653" on="1"/>
        <pt x="430" y="323" on="0"/>
        <pt x="462" y="209" on="1"/>
        <pt x="485" y="110" on="0"/>
      </contour>
      <contour>
        <pt x="264" y="465" on="1"/>
        <pt x="263" y="477" on="0"/>
        <pt x="257" y="477" on="1"/>
        <pt x="254" y="477" on="0"/>
        <pt x="247" y="468" on="1"/>
        <pt x="206" y="360" on="0"/>
        <pt x="206" y="319" on="1"/>
        <pt x="206" y="307" on="0"/>
        <pt x="222" y="301" on="0"/>
        <pt x="266" y="301" on="0"/>
        <pt x="285" y="312" on="0"/>
        <pt x="285" y="325" on="1"/>
        <pt x="277" y="413" on="0"/>
        <pt x="267" y="454" on="1"/>
      </contour>
    </TTGlyph>
    <TTGlyph name="AE" xMin="-44" yMin="-31" xMax="684" yMax="739">
      <contour>
        <pt x="559" y="477" on="1"/>
        <pt x="605" y="478" on="1"/>
        <pt x="633" y="478" on="0"/>
        <pt x="633" y="408" on="0"/>
        <pt x="570" y="364" on="0"/>
        <pt x="523" y="362" on="1"/>
        <pt x="462" y="362" on="0"/>
        <pt x="458" y="338" on="1"/>
        <pt x="455" y="319" on="0"/>
        <pt x="455" y="269" on="0"/>
        <pt x="463" y="227" on="0"/>
        <pt x="474" y="204" on="1"/>
        <pt x="498" y="155" on="0"/>
        <pt x="564" y="155" on="1"/>
        <pt x="593" y="155" on="0"/>
        <pt x="627" y="180" on="0"/>
        <pt x="659" y="180" on="0"/>
        <pt x="677" y="147" on="0"/>
        <pt x="677" y="128" on="1"/>
        <pt x="677" y="64" on="0"/>
        <pt x="579" y="-12" on="0"/>
        <pt x="510" y="-12" on="1"/>
        <pt x="488" y="-12" on="0"/>
        <pt x="465" y="-7" on="1"/>
        <pt x="422" y="-26" on="0"/>
        <pt x="369" y="-26" on="0"/>
        <pt x="345" y="-17" on="0"/>
        <pt x="333" y="-5" on="0"/>
        <pt x="326" y="26" on="0"/>
        <pt x="325" y="48" on="0"/>
        <pt x="323" y="102" on="0"/>
        <pt x="322" y="146" on="0"/>
        <pt x="304" y="177" on="0"/>
        <pt x="296" y="180" on="1"/>
        <pt x="287" y="184" on="0"/>
        <pt x="206" y="184" on="0"/>
        <pt x="184" y="175" on="1"/>
        <pt x="162" y="165" on="0"/>
        <pt x="142" y="82" on="1"/>
        <pt x="137" y="62" on="0"/>
        <pt x="136" y="60" on="1"/>
        <pt x="109" y="-31" on="0"/>
        <pt x="5" y="-31" on="1"/>
        <pt x="-44" y="-31" on="0"/>
        <pt x="-44" y="-2" on="1"/>
        <pt x="-44" y="19" on="0"/>
        <pt x="-28" y="44" on="1"/>
        <pt x="-22" y="53" on="1"/>
        <pt x="52" y="188" on="0"/>
        <pt x="173" y="595" on="0"/>
        <pt x="173" y="639" on="1"/>
        <pt x="173" y="656" on="0"/>
        <pt x="162" y="681" on="0"/>
        <pt x="162" y="688" on="1"/>
        <pt x="162" y="738" on="0"/>
        <pt x="248" y="738" on="1"/>
        <pt x="301" y="738" on="0"/>
        <pt x="378" y="697" on="0"/>
        <pt x="388" y="653" on="1"/>
        <pt x="388" y="645" on="1"/>
        <pt x="392" y="650" on="1"/>
        <pt x="428" y="699" on="0"/>
        <pt x="518" y="739" on="0"/>
        <pt x="656" y="739" on="0"/>
        <pt x="684" y="668" on="0"/>
        <pt x="684" y="645" on="1"/>
        <pt x="684" y="591" on="0"/>
        <pt x="650" y="591" on="1"/>
        <pt x="641" y="591" on="0"/>
        <pt x="601" y="611" on="0"/>
        <pt x="573" y="611" on="1"/>
        <pt x="524" y="611" on="0"/>
        <pt x="465" y="538" on="0"/>
        <pt x="465" y="492" on="1"/>
        <pt x="465" y="479" on="0"/>
        <pt x="522" y="477" on="0"/>
      </contour>
      <contour>
        <pt x="285" y="325" on="1"/>
        <pt x="280" y="355" on="0"/>
        <pt x="280" y="371" on="1"/>
        <pt x="264" y="465" on="1"/>
        <pt x="263" y="477" on="0"/>
        <pt x="257" y="477" on="1"/>
        <pt x="254" y="477" on="0"/>
        <pt x="247" y="468" on="1"/>
        <pt x="206" y="360" on="0"/>
        <pt x="206" y="319" on="1"/>
        <pt x="206" y="307" on="0"/>
        <pt x="222" y="301" on="0"/>
        <pt x="266" y="301" on="0"/>
        <pt x="285" y="312" on="0"/>
      </contour>
    </TTGlyph>
    <TTGlyph name="Aacute" xMin="-44" yMin="-31" xMax="528" yMax="893">
      <contour>
        <pt x="511" y="92" on="1"/>
        <pt x="528" y="80" on="0"/>
        <pt x="528" y="61" on="1"/>
        <pt x="528" y="24" on="0"/>
        <pt x="429" y="-26" on="0"/>
        <pt x="387" y="-26" on="1"/>
        <pt x="354" y="-26" on="0"/>
        <pt x="339" y="-11" on="1"/>
        <pt x="327" y="1" on="0"/>
        <pt x="325" y="48" on="0"/>
        <pt x="323" y="102" on="0"/>
        <pt x="322" y="146" on="0"/>
        <pt x="304" y="177" on="0"/>
        <pt x="296" y="180" on="1"/>
        <pt x="287" y="184" on="0"/>
        <pt x="206" y="184" on="0"/>
        <pt x="184" y="175" on="1"/>
        <pt x="162" y="165" on="0"/>
        <pt x="142" y="82" on="1"/>
        <pt x="137" y="62" on="0"/>
        <pt x="136" y="60" on="1"/>
        <pt x="109" y="-31" on="0"/>
        <pt x="5" y="-31" on="1"/>
        <pt x="-44" y="-31" on="0"/>
        <pt x="-44" y="-2" on="1"/>
        <pt x="-44" y="19" on="0"/>
        <pt x="-28" y="44" on="1"/>
        <pt x="-22" y="53" on="1"/>
        <pt x="52" y="188" on="0"/>
        <pt x="173" y="595" on="0"/>
        <pt x="173" y="639" on="1"/>
        <pt x="173" y="656" on="0"/>
        <pt x="162" y="681" on="0"/>
        <pt x="162" y="688" on="1"/>
        <pt x="162" y="738" on="0"/>
        <pt x="248" y="738" on="1"/>
        <pt x="301" y="738" on="0"/>
        <pt x="378" y="697" on="0"/>
        <pt x="388" y="653" on="1"/>
        <pt x="430" y="323" on="0"/>
        <pt x="462" y="209" on="1"/>
        <pt x="485" y="110" on="0"/>
      </contour>
      <contour>
        <pt x="264" y="465" on="1"/>
        <pt x="263" y="477" on="0"/>
        <pt x="257" y="477" on="1"/>
        <pt x="254" y="477" on="0"/>
        <pt x="247" y="468" on="1"/>
        <pt x="206" y="360" on="0"/>
        <pt x="206" y="319" on="1"/>
        <pt x="206" y="307" on="0"/>
        <pt x="222" y="301" on="0"/>
        <pt x="266" y="301" on="0"/>
        <pt x="285" y="312" on="0"/>
        <pt x="285" y="325" on="1"/>
        <pt x="277" y="413" on="0"/>
        <pt x="267" y="454" on="1"/>
      </contour>
      <contour>
        <pt x="325" y="893" on="0"/>
        <pt x="357" y="853" on="0"/>
        <pt x="357" y="824" on="0"/>
        <pt x="341" y="819" on="1"/>
        <pt x="311" y="810" on="0"/>
        <pt x="259" y="778" on="1"/>
        <pt x="242" y="767" on="1"/>
        <pt x="233" y="763" on="0"/>
        <pt x="227" y="763" on="1"/>
        <pt x="216" y="763" on="0"/>
        <pt x="216" y="797" on="0"/>
        <pt x="285" y="893" on="0"/>
        <pt x="309" y="893" on="1"/>
      </contour>
    </TTGlyph>
    <TTGlyph name="Acircumflex" xMin="-44" yMin="-31" xMax="528" yMax="883">
      <contour>
        <pt x="511" y="92" on="1"/>
        <pt x="528" y="80" on="0"/>
        <pt x="528" y="61" on="1"/>
        <pt x="528" y="24" on="0"/>
        <pt x="429" y="-26" on="0"/>
        <pt x="387" y="-26" on="1"/>
        <pt x="354" y="-26" on="0"/>
        <pt x="339" y="-11" on="1"/>
        <pt x="327" y="1" on="0"/>
        <pt x="325" y="48" on="0"/>
        <pt x="323" y="102" on="0"/>
        <pt x="322" y="146" on="0"/>
        <pt x="304" y="177" on="0"/>
        <pt x="296" y="180" on="1"/>
        <pt x="287" y="184" on="0"/>
        <pt x="206" y="184" on="0"/>
        <pt x="184" y="175" on="1"/>
        <pt x="162" y="165" on="0"/>
        <pt x="142" y="82" on="1"/>
        <pt x="137" y="62" on="0"/>
        <pt x="136" y="60" on="1"/>
        <pt x="109" y="-31" on="0"/>
        <pt x="5" y="-31" on="1"/>
        <pt x="-44" y="-31" on="0"/>
        <pt x="-44" y="-2" on="1"/>
        <pt x="-44" y="19" on="0"/>
        <pt x="-28" y="44" on="1"/>
        <pt x="-22" y="53" on="1"/>
        <pt x="52" y="188" on="0"/>
        <pt x="173" y="595" on="0"/>
        <pt x="173" y="639" on="1"/>
        <pt x="173" y="656" on="0"/>
        <pt x="162" y="681" on="0"/>
        <pt x="162" y="688" on="1"/>
        <pt x="162" y="738" on="0"/>
        <pt x="248" y="738" on="1"/>
        <pt x="301" y="738" on="0"/>
        <pt x="378" y="697" on="0"/>
        <pt x="388" y="653" on="1"/>
        <pt x="430" y="323" on="0"/>
        <pt x="462" y="209" on="1"/>
        <pt x="485" y="110" on="0"/>
      </contour>
      <contour>
        <pt x="264" y="465" on="1"/>
        <pt x="263" y="477" on="0"/>
        <pt x="257" y="477" on="1"/>
        <pt x="254" y="477" on="0"/>
        <pt x="247" y="468" on="1"/>
        <pt x="206" y="360" on="0"/>
        <pt x="206" y="319" on="1"/>
        <pt x="206" y="307" on="0"/>
        <pt x="222" y="301" on="0"/>
        <pt x="266" y="301" on="0"/>
        <pt x="285" y="312" on="0"/>
        <pt x="285" y="325" on="1"/>
        <pt x="277" y="413" on="0"/>
        <pt x="267" y="454" on="1"/>
      </contour>
      <contour>
        <pt x="355" y="757" on="1"/>
        <pt x="277" y="808" on="0"/>
        <pt x="258" y="808" on="1"/>
        <pt x="252" y="808" on="0"/>
        <pt x="155" y="752" on="0"/>
        <pt x="149" y="752" on="1"/>
        <pt x="138" y="752" on="0"/>
        <pt x="138" y="777" on="0"/>
        <pt x="156" y="808" on="0"/>
        <pt x="172" y="836" on="0"/>
        <pt x="213" y="883" on="0"/>
        <pt x="228" y="883" on="1"/>
        <pt x="229" y="883" on="0"/>
        <pt x="229" y="883" on="1"/>
        <pt x="242" y="883" on="0"/>
        <pt x="256" y="867" on="1"/>
        <pt x="258" y="865" on="0"/>
        <pt x="261" y="865" on="0"/>
        <pt x="266" y="870" on="1"/>
        <pt x="277" y="883" on="0"/>
        <pt x="288" y="883" on="1"/>
        <pt x="291" y="883" on="1"/>
        <pt x="306" y="883" on="0"/>
        <pt x="344" y="841" on="0"/>
        <pt x="356" y="820" on="1"/>
        <pt x="368" y="799" on="1"/>
        <pt x="381" y="777" on="0"/>
        <pt x="381" y="752" on="0"/>
        <pt x="370" y="752" on="1"/>
        <pt x="362" y="752" on="0"/>
      </contour>
    </TTGlyph>
    <TTGlyph name="Adieresis" xMin="-44" yMin="-31" xMax="528" yMax="868">
      <contour>
        <pt x="511" y="92" on="1"/>
        <pt x="528" y="80" on="0"/>
        <pt x="528" y="61" on="1"/>
        <pt x="528" y="24" on="0"/>
        <pt x="429" y="-26" on="0"/>
        <pt x="387" y="-26" on="1"/>
        <pt x="354" y="-26" on="0"/>
        <pt x="339" y="-11" on="1"/>
        <pt x="327" y="1" on="0"/>
        <pt x="325" y="48" on="0"/>
        <pt x="323" y="102" on="0"/>
        <pt x="322" y="146" on="0"/>
        <pt x="304" y="177" on="0"/>
        <pt x="296" y="180" on="1"/>
        <pt x="287" y="184" on="0"/>
        <pt x="206" y="184" on="0"/>
        <pt x="184" y="175" on="1"/>
        <pt x="162" y="165" on="0"/>
        <pt x="142" y="82" on="1"/>
        <pt x="137" y="62" on="0"/>
        <pt x="136" y="60" on="1"/>
        <pt x="109" y="-31" on="0"/>
        <pt x="5" y="-31" on="1"/>
        <pt x="-44" y="-31" on="0"/>
        <pt x="-44" y="-2" on="1"/>
        <pt x="-44" y="19" on="0"/>
        <pt x="-28" y="44" on="1"/>
        <pt x="-22" y="53" on="1"/>
        <pt x="52" y="188" on="0"/>
        <pt x="173" y="595" on="0"/>
        <pt x="173" y="639" on="1"/>
        <pt x="173" y="656" on="0"/>
        <pt x="162" y="681" on="0"/>
        <pt x="162" y="688" on="1"/>
        <pt x="162" y="738" on="0"/>
        <pt x="248" y="738" on="1"/>
        <pt x="301" y="738" on="0"/>
        <pt x="378" y="697" on="0"/>
        <pt x="388" y="653" on="1"/>
        <pt x="430" y="323" on="0"/>
        <pt x="462" y="209" on="1"/>
        <pt x="485" y="110" on="0"/>
      </contour>
      <contour>
        <pt x="264" y="465" on="1"/>
        <pt x="263" y="477" on="0"/>
        <pt x="257" y="477" on="1"/>
        <pt x="254" y="477" on="0"/>
        <pt x="247" y="468" on="1"/>
        <pt x="206" y="360" on="0"/>
        <pt x="206" y="319" on="1"/>
        <pt x="206" y="307" on="0"/>
        <pt x="222" y="301" on="0"/>
        <pt x="266" y="301" on="0"/>
        <pt x="285" y="312" on="0"/>
        <pt x="285" y="325" on="1"/>
        <pt x="277" y="413" on="0"/>
        <pt x="267" y="454" on="1"/>
      </contour>
      <contour>
        <pt x="382" y="868" on="0"/>
        <pt x="408" y="846" on="0"/>
        <pt x="408" y="801" on="0"/>
        <pt x="361" y="762" on="0"/>
        <pt x="316" y="762" on="0"/>
        <pt x="289" y="785" on="0"/>
        <pt x="289" y="829" on="0"/>
        <pt x="337" y="868" on="0"/>
      </contour>
      <contour>
        <pt x="201" y="868" on="0"/>
        <pt x="227" y="846" on="0"/>
        <pt x="227" y="801" on="0"/>
        <pt x="180" y="762" on="0"/>
        <pt x="135" y="762" on="0"/>
        <pt x="108" y="785" on="0"/>
        <pt x="108" y="829" on="0"/>
        <pt x="156" y="868" on="0"/>
      </contour>
    </TTGlyph>
    <TTGlyph name="Agrave" xMin="-44" yMin="-31" xMax="528" yMax="875">
      <contour>
        <pt x="511" y="92" on="1"/>
        <pt x="528" y="80" on="0"/>
        <pt x="528" y="61" on="1"/>
        <pt x="528" y="24" on="0"/>
        <pt x="429" y="-26" on="0"/>
        <pt x="387" y="-26" on="1"/>
        <pt x="354" y="-26" on="0"/>
        <pt x="339" y="-11" on="1"/>
        <pt x="327" y="1" on="0"/>
        <pt x="325" y="48" on="0"/>
        <pt x="323" y="102" on="0"/>
        <pt x="322" y="146" on="0"/>
        <pt x="304" y="177" on="0"/>
        <pt x="296" y="180" on="1"/>
        <pt x="287" y="184" on="0"/>
        <pt x="206" y="184" on="0"/>
        <pt x="184" y="175" on="1"/>
        <pt x="162" y="165" on="0"/>
        <pt x="142" y="82" on="1"/>
        <pt x="137" y="62" on="0"/>
        <pt x="136" y="60" on="1"/>
        <pt x="109" y="-31" on="0"/>
        <pt x="5" y="-31" on="1"/>
        <pt x="-44" y="-31" on="0"/>
        <pt x="-44" y="-2" on="1"/>
        <pt x="-44" y="19" on="0"/>
        <pt x="-28" y="44" on="1"/>
        <pt x="-22" y="53" on="1"/>
        <pt x="52" y="188" on="0"/>
        <pt x="173" y="595" on="0"/>
        <pt x="173" y="639" on="1"/>
        <pt x="173" y="656" on="0"/>
        <pt x="162" y="681" on="0"/>
        <pt x="162" y="688" on="1"/>
        <pt x="162" y="738" on="0"/>
        <pt x="248" y="738" on="1"/>
        <pt x="301" y="738" on="0"/>
        <pt x="378" y="697" on="0"/>
        <pt x="388" y="653" on="1"/>
        <pt x="430" y="323" on="0"/>
        <pt x="462" y="209" on="1"/>
        <pt x="485" y="110" on="0"/>
      </contour>
      <contour>
        <pt x="264" y="465" on="1"/>
        <pt x="263" y="477" on="0"/>
        <pt x="257" y="477" on="1"/>
        <pt x="254" y="477" on="0"/>
        <pt x="247" y="468" on="1"/>
        <pt x="206" y="360" on="0"/>
        <pt x="206" y="319" on="1"/>
        <pt x="206" y="307" on="0"/>
        <pt x="222" y="301" on="0"/>
        <pt x="266" y="301" on="0"/>
        <pt x="285" y="312" on="0"/>
        <pt x="285" y="325" on="1"/>
        <pt x="277" y="413" on="0"/>
        <pt x="267" y="454" on="1"/>
      </contour>
      <contour>
        <pt x="206" y="800" on="1"/>
        <pt x="189" y="806" on="0"/>
        <pt x="187" y="819" on="1"/>
        <pt x="187" y="836" on="0"/>
        <pt x="220" y="875" on="0"/>
        <pt x="251" y="875" on="0"/>
        <pt x="271" y="853" on="1"/>
        <pt x="299" y="822" on="0"/>
        <pt x="314" y="792" on="1"/>
        <pt x="328" y="769" on="0"/>
        <pt x="328" y="745" on="0"/>
        <pt x="317" y="745" on="1"/>
        <pt x="310" y="745" on="0"/>
        <pt x="302" y="749" on="1"/>
        <pt x="237" y="790" on="0"/>
      </contour>
    </TTGlyph>
    <TTGlyph name="Aring" xMin="-44" yMin="-31" xMax="528" yMax="901">
      <contour>
        <pt x="511" y="92" on="1"/>
        <pt x="528" y="80" on="0"/>
        <pt x="528" y="61" on="1"/>
        <pt x="528" y="24" on="0"/>
        <pt x="429" y="-26" on="0"/>
        <pt x="387" y="-26" on="1"/>
        <pt x="354" y="-26" on="0"/>
        <pt x="339" y="-11" on="1"/>
        <pt x="327" y="1" on="0"/>
        <pt x="325" y="48" on="0"/>
        <pt x="323" y="102" on="0"/>
        <pt x="322" y="146" on="0"/>
        <pt x="304" y="177" on="0"/>
        <pt x="296" y="180" on="1"/>
        <pt x="287" y="184" on="0"/>
        <pt x="206" y="184" on="0"/>
        <pt x="184" y="175" on="1"/>
        <pt x="162" y="165" on="0"/>
        <pt x="142" y="82" on="1"/>
        <pt x="137" y="62" on="0"/>
        <pt x="136" y="60" on="1"/>
        <pt x="109" y="-31" on="0"/>
        <pt x="5" y="-31" on="1"/>
        <pt x="-44" y="-31" on="0"/>
        <pt x="-44" y="-2" on="1"/>
        <pt x="-44" y="19" on="0"/>
        <pt x="-28" y="44" on="1"/>
        <pt x="-22" y="53" on="1"/>
        <pt x="52" y="188" on="0"/>
        <pt x="173" y="595" on="0"/>
        <pt x="173" y="639" on="1"/>
        <pt x="173" y="656" on="0"/>
        <pt x="162" y="681" on="0"/>
        <pt x="162" y="688" on="1"/>
        <pt x="162" y="738" on="0"/>
        <pt x="248" y="738" on="1"/>
        <pt x="301" y="738" on="0"/>
        <pt x="378" y="697" on="0"/>
        <pt x="388" y="653" on="1"/>
        <pt x="430" y="323" on="0"/>
        <pt x="462" y="209" on="1"/>
        <pt x="485" y="110" on="0"/>
      </contour>
      <contour>
        <pt x="264" y="465" on="1"/>
        <pt x="263" y="477" on="0"/>
        <pt x="257" y="477" on="1"/>
        <pt x="254" y="477" on="0"/>
        <pt x="247" y="468" on="1"/>
        <pt x="206" y="360" on="0"/>
        <pt x="206" y="319" on="1"/>
        <pt x="206" y="307" on="0"/>
        <pt x="222" y="301" on="0"/>
        <pt x="266" y="301" on="0"/>
        <pt x="285" y="312" on="0"/>
        <pt x="285" y="325" on="1"/>
        <pt x="277" y="413" on="0"/>
        <pt x="267" y="454" on="1"/>
      </contour>
      <contour>
        <pt x="312" y="901" on="0"/>
        <pt x="346" y="873" on="0"/>
        <pt x="346" y="818" on="0"/>
        <pt x="287" y="765" on="0"/>
        <pt x="225" y="765" on="0"/>
        <pt x="192" y="791" on="0"/>
        <pt x="191" y="846" on="0"/>
        <pt x="249" y="901" on="0"/>
      </contour>
      <contour>
        <pt x="260" y="863" on="0"/>
        <pt x="234" y="839" on="0"/>
        <pt x="234" y="827" on="1"/>
        <pt x="234" y="803" on="0"/>
        <pt x="260" y="803" on="1"/>
        <pt x="277" y="803" on="0"/>
        <pt x="303" y="826" on="0"/>
        <pt x="303" y="838" on="1"/>
        <pt x="303" y="863" on="0"/>
        <pt x="277" y="863" on="1"/>
      </contour>
    </TTGlyph>
    <TTGlyph name="Atilde" xMin="-44" yMin="-31" xMax="528" yMax="871">
      <contour>
        <pt x="381" y="768" on="1"/>
        <pt x="362" y="752" on="0"/>
        <pt x="324" y="752" on="0"/>
        <pt x="248" y="784" on="0"/>
        <pt x="192" y="784" on="0"/>
        <pt x="159" y="773" on="0"/>
        <pt x="152" y="773" on="1"/>
        <pt x="135" y="773" on="0"/>
        <pt x="135" y="813" on="0"/>
        <pt x="202" y="865" on="0"/>
        <pt x="246" y="865" on="1"/>
        <pt x="264" y="865" on="0"/>
        <pt x="327" y="851" on="0"/>
        <pt x="373" y="851" on="0"/>
        <pt x="394" y="866" on="1"/>
        <pt x="403" y="871" on="0"/>
        <pt x="413" y="871" on="1"/>
        <pt x="429" y="871" on="0"/>
        <pt x="429" y="854" on="1"/>
        <pt x="429" y="809" on="0"/>
      </contour>
      <contour>
        <pt x="511" y="92" on="1"/>
        <pt x="528" y="80" on="0"/>
        <pt x="528" y="61" on="1"/>
        <pt x="528" y="24" on="0"/>
        <pt x="429" y="-26" on="0"/>
        <pt x="387" y="-26" on="1"/>
        <pt x="354" y="-26" on="0"/>
        <pt x="339" y="-11" on="1"/>
        <pt x="327" y="1" on="0"/>
        <pt x="325" y="48" on="0"/>
        <pt x="323" y="102" on="0"/>
        <pt x="322" y="146" on="0"/>
        <pt x="304" y="177" on="0"/>
        <pt x="296" y="180" on="1"/>
        <pt x="287" y="184" on="0"/>
        <pt x="206" y="184" on="0"/>
        <pt x="184" y="175" on="1"/>
        <pt x="162" y="165" on="0"/>
        <pt x="142" y="82" on="1"/>
        <pt x="137" y="62" on="0"/>
        <pt x="136" y="60" on="1"/>
        <pt x="109" y="-31" on="0"/>
        <pt x="5" y="-31" on="1"/>
        <pt x="-44" y="-31" on="0"/>
        <pt x="-44" y="-2" on="1"/>
        <pt x="-44" y="19" on="0"/>
        <pt x="-28" y="44" on="1"/>
        <pt x="-22" y="53" on="1"/>
        <pt x="52" y="188" on="0"/>
        <pt x="173" y="595" on="0"/>
        <pt x="173" y="639" on="1"/>
        <pt x="173" y="656" on="0"/>
        <pt x="162" y="681" on="0"/>
        <pt x="162" y="688" on="1"/>
        <pt x="162" y="738" on="0"/>
        <pt x="248" y="738" on="1"/>
        <pt x="301" y="738" on="0"/>
        <pt x="378" y="697" on="0"/>
        <pt x="388" y="653" on="1"/>
        <pt x="430" y="323" on="0"/>
        <pt x="462" y="209" on="1"/>
        <pt x="485" y="110" on="0"/>
      </contour>
      <contour>
        <pt x="264" y="465" on="1"/>
        <pt x="263" y="477" on="0"/>
        <pt x="257" y="477" on="1"/>
        <pt x="254" y="477" on="0"/>
        <pt x="247" y="468" on="1"/>
        <pt x="206" y="360" on="0"/>
        <pt x="206" y="319" on="1"/>
        <pt x="206" y="307" on="0"/>
        <pt x="222" y="301" on="0"/>
        <pt x="266" y="301" on="0"/>
        <pt x="285" y="312" on="0"/>
        <pt x="285" y="325" on="1"/>
        <pt x="277" y="413" on="0"/>
        <pt x="267" y="454" on="1"/>
      </contour>
    </TTGlyph>
    <TTGlyph name="B" xMin="-10" yMin="-24" xMax="442" yMax="740">
      <contour>
        <pt x="442" y="219" on="1"/>
        <pt x="442" y="103" on="0"/>
        <pt x="282" y="-24" on="0"/>
        <pt x="173" y="-24" on="1"/>
        <pt x="133" y="-24" on="0"/>
        <pt x="64" y="-7" on="0"/>
        <pt x="49" y="2" on="1"/>
        <pt x="34" y="11" on="1"/>
        <pt x="15" y="27" on="0"/>
        <pt x="15" y="49" on="1"/>
        <pt x="32" y="225" on="0"/>
        <pt x="32" y="434" on="0"/>
        <pt x="16" y="559" on="0"/>
        <pt x="8" y="576" on="1"/>
        <pt x="-1" y="594" on="1"/>
        <pt x="-10" y="607" on="0"/>
        <pt x="-10" y="626" on="1"/>
        <pt x="-10" y="659" on="0"/>
        <pt x="24" y="683" on="1"/>
        <pt x="32" y="689" on="0"/>
        <pt x="64" y="708" on="0"/>
        <pt x="170" y="740" on="0"/>
        <pt x="298" y="740" on="0"/>
        <pt x="402" y="680" on="0"/>
        <pt x="402" y="621" on="1"/>
        <pt x="402" y="520" on="0"/>
        <pt x="319" y="455" on="1"/>
        <pt x="312" y="449" on="0"/>
        <pt x="312" y="436" on="0"/>
        <pt x="319" y="432" on="1"/>
        <pt x="362" y="402" on="0"/>
        <pt x="417" y="330" on="0"/>
        <pt x="427" y="297" on="1"/>
        <pt x="442" y="248" on="0"/>
      </contour>
      <contour>
        <pt x="210" y="456" on="0"/>
        <pt x="252" y="533" on="0"/>
        <pt x="252" y="597" on="0"/>
        <pt x="215" y="633" on="0"/>
        <pt x="160" y="633" on="0"/>
        <pt x="160" y="614" on="1"/>
        <pt x="160" y="523" on="0"/>
        <pt x="170" y="464" on="1"/>
        <pt x="172" y="456" on="0"/>
        <pt x="181" y="456" on="1"/>
      </contour>
      <contour>
        <pt x="273" y="284" on="0"/>
        <pt x="237" y="349" on="0"/>
        <pt x="196" y="349" on="0"/>
        <pt x="167" y="286" on="0"/>
        <pt x="167" y="254" on="1"/>
        <pt x="167" y="164" on="0"/>
        <pt x="218" y="164" on="1"/>
        <pt x="244" y="164" on="0"/>
        <pt x="273" y="209" on="0"/>
      </contour>
    </TTGlyph>
    <TTGlyph name="C" xMin="10" yMin="-21" xMax="413" yMax="744">
      <contour>
        <pt x="413" y="174" on="1"/>
        <pt x="413" y="87" on="0"/>
        <pt x="305" y="-21" on="0"/>
        <pt x="218" y="-21" on="1"/>
        <pt x="125" y="-21" on="0"/>
        <pt x="78" y="42" on="1"/>
        <pt x="32" y="107" on="0"/>
        <pt x="21" y="174" on="1"/>
        <pt x="10" y="245" on="0"/>
        <pt x="10" y="333" on="0"/>
        <pt x="17" y="421" on="0"/>
        <pt x="35" y="528" on="0"/>
        <pt x="70" y="617" on="0"/>
        <pt x="120" y="694" on="0"/>
        <pt x="199" y="738" on="0"/>
        <pt x="276" y="738" on="0"/>
        <pt x="311" y="728" on="0"/>
        <pt x="326" y="728" on="0"/>
        <pt x="361" y="744" on="0"/>
        <pt x="412" y="744" on="0"/>
        <pt x="412" y="723" on="1"/>
        <pt x="412" y="722" on="0"/>
        <pt x="396" y="637" on="0"/>
        <pt x="396" y="548" on="0"/>
        <pt x="412" y="519" on="0"/>
        <pt x="412" y="506" on="1"/>
        <pt x="412" y="481" on="0"/>
        <pt x="366" y="453" on="0"/>
        <pt x="339" y="453" on="1"/>
        <pt x="269" y="453" on="0"/>
        <pt x="269" y="525" on="1"/>
        <pt x="269" y="541" on="0"/>
        <pt x="281" y="595" on="0"/>
        <pt x="281" y="603" on="1"/>
        <pt x="281" y="624" on="0"/>
        <pt x="258" y="624" on="1"/>
        <pt x="226" y="624" on="0"/>
        <pt x="194" y="566" on="1"/>
        <pt x="157" y="499" on="0"/>
        <pt x="157" y="370" on="1"/>
        <pt x="157" y="314" on="0"/>
        <pt x="169" y="270" on="1"/>
        <pt x="192" y="187" on="0"/>
        <pt x="245" y="187" on="1"/>
        <pt x="291" y="187" on="0"/>
        <pt x="316" y="237" on="1"/>
        <pt x="327" y="261" on="0"/>
        <pt x="379" y="261" on="0"/>
        <pt x="413" y="203" on="0"/>
      </contour>
    </TTGlyph>
    <TTGlyph name="Ccedilla" xMin="10" yMin="-154" xMax="413" yMax="744">
      <contour>
        <pt x="413" y="174" on="1"/>
        <pt x="413" y="97" on="0"/>
        <pt x="327" y="-8" on="0"/>
        <pt x="256" y="-18" on="1"/>
        <pt x="247" y="-19" on="0"/>
        <pt x="227" y="-32" on="0"/>
        <pt x="227" y="-51" on="0"/>
        <pt x="275" y="-80" on="0"/>
        <pt x="275" y="-97" on="1"/>
        <pt x="275" y="-124" on="0"/>
        <pt x="222" y="-154" on="0"/>
        <pt x="168" y="-154" on="0"/>
        <pt x="168" y="-136" on="0"/>
        <pt x="188" y="-120" on="1"/>
        <pt x="204" y="-109" on="0"/>
        <pt x="204" y="-100" on="1"/>
        <pt x="204" y="-88" on="0"/>
        <pt x="162" y="-71" on="0"/>
        <pt x="162" y="-48" on="0"/>
        <pt x="192" y="-25" on="0"/>
        <pt x="192" y="-19" on="1"/>
        <pt x="144" y="-14" on="0"/>
        <pt x="73" y="41" on="0"/>
        <pt x="37" y="109" on="0"/>
        <pt x="26" y="154" on="1"/>
        <pt x="10" y="219" on="0"/>
        <pt x="10" y="333" on="0"/>
        <pt x="17" y="421" on="0"/>
        <pt x="35" y="528" on="0"/>
        <pt x="70" y="617" on="0"/>
        <pt x="120" y="694" on="0"/>
        <pt x="199" y="738" on="0"/>
        <pt x="276" y="738" on="0"/>
        <pt x="311" y="728" on="0"/>
        <pt x="326" y="728" on="0"/>
        <pt x="361" y="744" on="0"/>
        <pt x="412" y="744" on="0"/>
        <pt x="412" y="723" on="1"/>
        <pt x="412" y="722" on="0"/>
        <pt x="396" y="637" on="0"/>
        <pt x="396" y="548" on="0"/>
        <pt x="412" y="519" on="0"/>
        <pt x="412" y="506" on="1"/>
        <pt x="412" y="481" on="0"/>
        <pt x="366" y="453" on="0"/>
        <pt x="339" y="453" on="1"/>
        <pt x="269" y="453" on="0"/>
        <pt x="269" y="525" on="1"/>
        <pt x="269" y="541" on="0"/>
        <pt x="281" y="595" on="0"/>
        <pt x="281" y="603" on="1"/>
        <pt x="281" y="624" on="0"/>
        <pt x="258" y="624" on="1"/>
        <pt x="226" y="624" on="0"/>
        <pt x="194" y="566" on="1"/>
        <pt x="157" y="499" on="0"/>
        <pt x="157" y="370" on="1"/>
        <pt x="157" y="314" on="0"/>
        <pt x="169" y="270" on="1"/>
        <pt x="192" y="187" on="0"/>
        <pt x="245" y="187" on="1"/>
        <pt x="291" y="187" on="0"/>
        <pt x="316" y="237" on="1"/>
        <pt x="327" y="261" on="0"/>
        <pt x="379" y="261" on="0"/>
        <pt x="413" y="203" on="0"/>
      </contour>
    </TTGlyph>
    <TTGlyph name="D" xMin="0" yMin="-21" xMax="442" yMax="737">
      <contour>
        <pt x="0" y="59" on="1"/>
        <pt x="1" y="68" on="1"/>
        <pt x="31" y="252" on="0"/>
        <pt x="31" y="407" on="1"/>
        <pt x="31" y="540" on="0"/>
        <pt x="14" y="604" on="1"/>
        <pt x="9" y="626" on="1"/>
        <pt x="4" y="636" on="0"/>
        <pt x="4" y="650" on="1"/>
        <pt x="4" y="686" on="0"/>
        <pt x="42" y="709" on="1"/>
        <pt x="81" y="737" on="0"/>
        <pt x="245" y="737" on="0"/>
        <pt x="353" y="674" on="0"/>
        <pt x="383" y="621" on="1"/>
        <pt x="442" y="517" on="0"/>
        <pt x="442" y="379" on="1"/>
        <pt x="442" y="252" on="0"/>
        <pt x="404" y="155" on="1"/>
        <pt x="384" y="102" on="0"/>
        <pt x="320" y="26" on="0"/>
        <pt x="219" y="-21" on="0"/>
        <pt x="155" y="-21" on="1"/>
        <pt x="107" y="-21" on="0"/>
        <pt x="32" y="2" on="0"/>
        <pt x="0" y="35" on="0"/>
      </contour>
      <contour>
        <pt x="288" y="397" on="1"/>
        <pt x="288" y="562" on="0"/>
        <pt x="242" y="609" on="1"/>
        <pt x="226" y="626" on="0"/>
        <pt x="212" y="626" on="1"/>
        <pt x="187" y="626" on="0"/>
        <pt x="184" y="601" on="1"/>
        <pt x="168" y="498" on="0"/>
        <pt x="168" y="299" on="1"/>
        <pt x="168" y="230" on="0"/>
        <pt x="173" y="167" on="1"/>
        <pt x="173" y="145" on="0"/>
        <pt x="195" y="145" on="1"/>
        <pt x="288" y="145" on="0"/>
      </contour>
    </TTGlyph>
    <TTGlyph name="E" xMin="1" yMin="-22" xMax="405" yMax="736">
      <contour>
        <pt x="280" y="474" on="1"/>
        <pt x="326" y="475" on="1"/>
        <pt x="354" y="475" on="0"/>
        <pt x="354" y="405" on="0"/>
        <pt x="291" y="361" on="0"/>
        <pt x="244" y="359" on="1"/>
        <pt x="183" y="359" on="0"/>
        <pt x="179" y="335" on="1"/>
        <pt x="176" y="316" on="0"/>
        <pt x="176" y="266" on="0"/>
        <pt x="184" y="224" on="0"/>
        <pt x="195" y="202" on="1"/>
        <pt x="219" y="152" on="0"/>
        <pt x="285" y="152" on="1"/>
        <pt x="314" y="152" on="0"/>
        <pt x="348" y="177" on="0"/>
        <pt x="380" y="177" on="0"/>
        <pt x="398" y="144" on="0"/>
        <pt x="398" y="125" on="1"/>
        <pt x="398" y="61" on="0"/>
        <pt x="290" y="-22" on="0"/>
        <pt x="221" y="-22" on="1"/>
        <pt x="31" y="-22" on="0"/>
        <pt x="31" y="259" on="1"/>
        <pt x="35" y="336" on="1"/>
        <pt x="1" y="336" on="0"/>
        <pt x="1" y="369" on="1"/>
        <pt x="1" y="395" on="0"/>
        <pt x="32" y="459" on="0"/>
        <pt x="53" y="468" on="1"/>
        <pt x="57" y="511" on="0"/>
        <pt x="89" y="614" on="0"/>
        <pt x="119" y="655" on="1"/>
        <pt x="178" y="736" on="0"/>
        <pt x="301" y="736" on="1"/>
        <pt x="377" y="736" on="0"/>
        <pt x="405" y="665" on="0"/>
        <pt x="405" y="642" on="1"/>
        <pt x="405" y="588" on="0"/>
        <pt x="371" y="588" on="1"/>
        <pt x="362" y="588" on="0"/>
        <pt x="322" y="608" on="0"/>
        <pt x="294" y="608" on="1"/>
        <pt x="245" y="608" on="0"/>
        <pt x="186" y="535" on="0"/>
        <pt x="186" y="489" on="1"/>
        <pt x="186" y="476" on="0"/>
        <pt x="243" y="474" on="0"/>
      </contour>
    </TTGlyph>
    <TTGlyph name="Eacute" xMin="1" yMin="-22" xMax="405" yMax="875">
      <contour>
        <pt x="280" y="474" on="1"/>
        <pt x="326" y="475" on="1"/>
        <pt x="354" y="475" on="0"/>
        <pt x="354" y="405" on="0"/>
        <pt x="291" y="361" on="0"/>
        <pt x="244" y="359" on="1"/>
        <pt x="183" y="359" on="0"/>
        <pt x="179" y="335" on="1"/>
        <pt x="176" y="316" on="0"/>
        <pt x="176" y="266" on="0"/>
        <pt x="184" y="224" on="0"/>
        <pt x="195" y="202" on="1"/>
        <pt x="219" y="152" on="0"/>
        <pt x="285" y="152" on="1"/>
        <pt x="314" y="152" on="0"/>
        <pt x="348" y="177" on="0"/>
        <pt x="380" y="177" on="0"/>
        <pt x="398" y="144" on="0"/>
        <pt x="398" y="125" on="1"/>
        <pt x="398" y="61" on="0"/>
        <pt x="290" y="-22" on="0"/>
        <pt x="221" y="-22" on="1"/>
        <pt x="31" y="-22" on="0"/>
        <pt x="31" y="259" on="1"/>
        <pt x="35" y="336" on="1"/>
        <pt x="1" y="336" on="0"/>
        <pt x="1" y="369" on="1"/>
        <pt x="1" y="395" on="0"/>
        <pt x="32" y="459" on="0"/>
        <pt x="53" y="468" on="1"/>
        <pt x="57" y="511" on="0"/>
        <pt x="89" y="614" on="0"/>
        <pt x="119" y="655" on="1"/>
        <pt x="178" y="736" on="0"/>
        <pt x="301" y="736" on="1"/>
        <pt x="377" y="736" on="0"/>
        <pt x="405" y="665" on="0"/>
        <pt x="405" y="642" on="1"/>
        <pt x="405" y="588" on="0"/>
        <pt x="371" y="588" on="1"/>
        <pt x="362" y="588" on="0"/>
        <pt x="322" y="608" on="0"/>
        <pt x="294" y="608" on="1"/>
        <pt x="245" y="608" on="0"/>
        <pt x="186" y="535" on="0"/>
        <pt x="186" y="489" on="1"/>
        <pt x="186" y="476" on="0"/>
        <pt x="243" y="474" on="0"/>
      </contour>
      <contour>
        <pt x="313" y="875" on="0"/>
        <pt x="345" y="835" on="0"/>
        <pt x="345" y="806" on="0"/>
        <pt x="329" y="801" on="1"/>
        <pt x="299" y="792" on="0"/>
        <pt x="247" y="760" on="1"/>
        <pt x="230" y="749" on="1"/>
        <pt x="221" y="745" on="0"/>
        <pt x="215" y="745" on="1"/>
        <pt x="204" y="745" on="0"/>
        <pt x="204" y="779" on="0"/>
        <pt x="273" y="875" on="0"/>
        <pt x="297" y="875" on="1"/>
      </contour>
    </TTGlyph>
    <TTGlyph name="Ecircumflex" xMin="1" yMin="-22" xMax="405" yMax="891">
      <contour>
        <pt x="280" y="474" on="1"/>
        <pt x="326" y="475" on="1"/>
        <pt x="354" y="475" on="0"/>
        <pt x="354" y="405" on="0"/>
        <pt x="291" y="361" on="0"/>
        <pt x="244" y="359" on="1"/>
        <pt x="183" y="359" on="0"/>
        <pt x="179" y="335" on="1"/>
        <pt x="176" y="316" on="0"/>
        <pt x="176" y="266" on="0"/>
        <pt x="184" y="224" on="0"/>
        <pt x="195" y="202" on="1"/>
        <pt x="219" y="152" on="0"/>
        <pt x="285" y="152" on="1"/>
        <pt x="314" y="152" on="0"/>
        <pt x="348" y="177" on="0"/>
        <pt x="380" y="177" on="0"/>
        <pt x="398" y="144" on="0"/>
        <pt x="398" y="125" on="1"/>
        <pt x="398" y="61" on="0"/>
        <pt x="290" y="-22" on="0"/>
        <pt x="221" y="-22" on="1"/>
        <pt x="31" y="-22" on="0"/>
        <pt x="31" y="259" on="1"/>
        <pt x="35" y="336" on="1"/>
        <pt x="1" y="336" on="0"/>
        <pt x="1" y="369" on="1"/>
        <pt x="1" y="395" on="0"/>
        <pt x="32" y="459" on="0"/>
        <pt x="53" y="468" on="1"/>
        <pt x="57" y="511" on="0"/>
        <pt x="89" y="614" on="0"/>
        <pt x="119" y="655" on="1"/>
        <pt x="178" y="736" on="0"/>
        <pt x="301" y="736" on="1"/>
        <pt x="377" y="736" on="0"/>
        <pt x="405" y="665" on="0"/>
        <pt x="405" y="642" on="1"/>
        <pt x="405" y="588" on="0"/>
        <pt x="371" y="588" on="1"/>
        <pt x="362" y="588" on="0"/>
        <pt x="322" y="608" on="0"/>
        <pt x="294" y="608" on="1"/>
        <pt x="245" y="608" on="0"/>
        <pt x="186" y="535" on="0"/>
        <pt x="186" y="489" on="1"/>
        <pt x="186" y="476" on="0"/>
        <pt x="243" y="474" on="0"/>
      </contour>
      <contour>
        <pt x="344" y="765" on="1"/>
        <pt x="266" y="816" on="0"/>
        <pt x="247" y="816" on="1"/>
        <pt x="241" y="816" on="0"/>
        <pt x="145" y="760" on="0"/>
        <pt x="138" y="760" on="1"/>
        <pt x="127" y="760" on="0"/>
        <pt x="127" y="785" on="0"/>
        <pt x="145" y="816" on="0"/>
        <pt x="161" y="844" on="0"/>
        <pt x="202" y="891" on="0"/>
        <pt x="217" y="891" on="1"/>
        <pt x="218" y="891" on="0"/>
        <pt x="218" y="891" on="1"/>
        <pt x="231" y="891" on="0"/>
        <pt x="245" y="875" on="1"/>
        <pt x="247" y="873" on="0"/>
        <pt x="250" y="873" on="0"/>
        <pt x="254" y="878" on="1"/>
        <pt x="266" y="891" on="0"/>
        <pt x="276" y="891" on="1"/>
        <pt x="280" y="891" on="1"/>
        <pt x="295" y="891" on="0"/>
        <pt x="333" y="849" on="0"/>
        <pt x="345" y="828" on="1"/>
        <pt x="357" y="807" on="1"/>
        <pt x="370" y="785" on="0"/>
        <pt x="370" y="760" on="0"/>
        <pt x="359" y="760" on="1"/>
        <pt x="352" y="760" on="0"/>
      </contour>
    </TTGlyph>
    <TTGlyph name="Edieresis" xMin="1" yMin="-22" xMax="405" yMax="873">
      <contour>
        <pt x="280" y="474" on="1"/>
        <pt x="326" y="475" on="1"/>
        <pt x="354" y="475" on="0"/>
        <pt x="354" y="405" on="0"/>
        <pt x="291" y="361" on="0"/>
        <pt x="244" y="359" on="1"/>
        <pt x="183" y="359" on="0"/>
        <pt x="179" y="335" on="1"/>
        <pt x="176" y="316" on="0"/>
        <pt x="176" y="266" on="0"/>
        <pt x="184" y="224" on="0"/>
        <pt x="195" y="202" on="1"/>
        <pt x="219" y="152" on="0"/>
        <pt x="285" y="152" on="1"/>
        <pt x="314" y="152" on="0"/>
        <pt x="348" y="177" on="0"/>
        <pt x="380" y="177" on="0"/>
        <pt x="398" y="144" on="0"/>
        <pt x="398" y="125" on="1"/>
        <pt x="398" y="61" on="0"/>
        <pt x="290" y="-22" on="0"/>
        <pt x="221" y="-22" on="1"/>
        <pt x="31" y="-22" on="0"/>
        <pt x="31" y="259" on="1"/>
        <pt x="35" y="336" on="1"/>
        <pt x="1" y="336" on="0"/>
        <pt x="1" y="369" on="1"/>
        <pt x="1" y="395" on="0"/>
        <pt x="32" y="459" on="0"/>
        <pt x="53" y="468" on="1"/>
        <pt x="57" y="511" on="0"/>
        <pt x="89" y="614" on="0"/>
        <pt x="119" y="655" on="1"/>
        <pt x="178" y="736" on="0"/>
        <pt x="301" y="736" on="1"/>
        <pt x="377" y="736" on="0"/>
        <pt x="405" y="665" on="0"/>
        <pt x="405" y="642" on="1"/>
        <pt x="405" y="588" on="0"/>
        <pt x="371" y="588" on="1"/>
        <pt x="362" y="588" on="0"/>
        <pt x="322" y="608" on="0"/>
        <pt x="294" y="608" on="1"/>
        <pt x="245" y="608" on="0"/>
        <pt x="186" y="535" on="0"/>
        <pt x="186" y="489" on="1"/>
        <pt x="186" y="476" on="0"/>
        <pt x="243" y="474" on="0"/>
      </contour>
      <contour>
        <pt x="369" y="873" on="0"/>
        <pt x="395" y="851" on="0"/>
        <pt x="395" y="806" on="0"/>
        <pt x="348" y="767" on="0"/>
        <pt x="303" y="767" on="0"/>
        <pt x="276" y="790" on="0"/>
        <pt x="276" y="834" on="0"/>
        <pt x="324" y="873" on="0"/>
      </contour>
      <contour>
        <pt x="188" y="873" on="0"/>
        <pt x="214" y="851" on="0"/>
        <pt x="214" y="806" on="0"/>
        <pt x="167" y="767" on="0"/>
        <pt x="122" y="767" on="0"/>
        <pt x="95" y="790" on="0"/>
        <pt x="95" y="834" on="0"/>
        <pt x="143" y="873" on="0"/>
      </contour>
    </TTGlyph>
    <TTGlyph name="Egrave" xMin="1" yMin="-22" xMax="405" yMax="893">
      <contour>
        <pt x="280" y="474" on="1"/>
        <pt x="326" y="475" on="1"/>
        <pt x="354" y="475" on="0"/>
        <pt x="354" y="405" on="0"/>
        <pt x="291" y="361" on="0"/>
        <pt x="244" y="359" on="1"/>
        <pt x="183" y="359" on="0"/>
        <pt x="179" y="335" on="1"/>
        <pt x="176" y="316" on="0"/>
        <pt x="176" y="266" on="0"/>
        <pt x="184" y="224" on="0"/>
        <pt x="195" y="202" on="1"/>
        <pt x="219" y="152" on="0"/>
        <pt x="285" y="152" on="1"/>
        <pt x="314" y="152" on="0"/>
        <pt x="348" y="177" on="0"/>
        <pt x="380" y="177" on="0"/>
        <pt x="398" y="144" on="0"/>
        <pt x="398" y="125" on="1"/>
        <pt x="398" y="61" on="0"/>
        <pt x="290" y="-22" on="0"/>
        <pt x="221" y="-22" on="1"/>
        <pt x="31" y="-22" on="0"/>
        <pt x="31" y="259" on="1"/>
        <pt x="35" y="336" on="1"/>
        <pt x="1" y="336" on="0"/>
        <pt x="1" y="369" on="1"/>
        <pt x="1" y="395" on="0"/>
        <pt x="32" y="459" on="0"/>
        <pt x="53" y="468" on="1"/>
        <pt x="57" y="511" on="0"/>
        <pt x="89" y="614" on="0"/>
        <pt x="119" y="655" on="1"/>
        <pt x="178" y="736" on="0"/>
        <pt x="301" y="736" on="1"/>
        <pt x="377" y="736" on="0"/>
        <pt x="405" y="665" on="0"/>
        <pt x="405" y="642" on="1"/>
        <pt x="405" y="588" on="0"/>
        <pt x="371" y="588" on="1"/>
        <pt x="362" y="588" on="0"/>
        <pt x="322" y="608" on="0"/>
        <pt x="294" y="608" on="1"/>
        <pt x="245" y="608" on="0"/>
        <pt x="186" y="535" on="0"/>
        <pt x="186" y="489" on="1"/>
        <pt x="186" y="476" on="0"/>
        <pt x="243" y="474" on="0"/>
      </contour>
      <contour>
        <pt x="188" y="818" on="1"/>
        <pt x="171" y="824" on="0"/>
        <pt x="169" y="837" on="1"/>
        <pt x="169" y="854" on="0"/>
        <pt x="202" y="893" on="0"/>
        <pt x="233" y="893" on="0"/>
        <pt x="253" y="871" on="1"/>
        <pt x="281" y="840" on="0"/>
        <pt x="296" y="810" on="1"/>
        <pt x="310" y="787" on="0"/>
        <pt x="310" y="763" on="0"/>
        <pt x="299" y="763" on="1"/>
        <pt x="292" y="763" on="0"/>
        <pt x="284" y="767" on="1"/>
        <pt x="219" y="808" on="0"/>
      </contour>
    </TTGlyph>
    <TTGlyph name="Eth" xMin="-43" yMin="-21" xMax="442" yMax="737">
      <contour>
        <pt x="0" y="59" on="1"/>
        <pt x="1" y="68" on="1"/>
        <pt x="24" y="207" on="0"/>
        <pt x="29" y="332" on="1"/>
        <pt x="-24" y="331" on="1"/>
        <pt x="-43" y="331" on="0"/>
        <pt x="-43" y="410" on="0"/>
        <pt x="-18" y="413" on="1"/>
        <pt x="3" y="412" on="0"/>
        <pt x="31" y="412" on="1"/>
        <pt x="31" y="542" on="0"/>
        <pt x="14" y="605" on="1"/>
        <pt x="9" y="626" on="1"/>
        <pt x="4" y="636" on="0"/>
        <pt x="4" y="650" on="1"/>
        <pt x="4" y="686" on="0"/>
        <pt x="42" y="709" on="1"/>
        <pt x="81" y="737" on="0"/>
        <pt x="245" y="737" on="0"/>
        <pt x="353" y="674" on="0"/>
        <pt x="383" y="621" on="1"/>
        <pt x="442" y="517" on="0"/>
        <pt x="442" y="379" on="1"/>
        <pt x="442" y="252" on="0"/>
        <pt x="404" y="155" on="1"/>
        <pt x="384" y="102" on="0"/>
        <pt x="320" y="26" on="0"/>
        <pt x="219" y="-21" on="0"/>
        <pt x="155" y="-21" on="1"/>
        <pt x="107" y="-21" on="0"/>
        <pt x="32" y="2" on="0"/>
        <pt x="0" y="35" on="0"/>
      </contour>
      <contour>
        <pt x="222" y="331" on="1"/>
        <pt x="200" y="333" on="0"/>
        <pt x="168" y="333" on="1"/>
        <pt x="168" y="299" on="1"/>
        <pt x="168" y="230" on="0"/>
        <pt x="173" y="167" on="1"/>
        <pt x="173" y="145" on="0"/>
        <pt x="195" y="145" on="1"/>
        <pt x="288" y="145" on="0"/>
        <pt x="288" y="397" on="1"/>
        <pt x="288" y="562" on="0"/>
        <pt x="242" y="609" on="1"/>
        <pt x="226" y="626" on="0"/>
        <pt x="212" y="626" on="1"/>
        <pt x="187" y="626" on="0"/>
        <pt x="184" y="601" on="1"/>
        <pt x="172" y="526" on="0"/>
        <pt x="170" y="412" on="1"/>
        <pt x="209" y="412" on="0"/>
        <pt x="215" y="413" on="1"/>
        <pt x="228" y="412" on="0"/>
        <pt x="242" y="386" on="0"/>
        <pt x="242" y="369" on="1"/>
        <pt x="242" y="334" on="0"/>
      </contour>
    </TTGlyph>
    <TTGlyph name="Euro" xMin="0" yMin="-21" xMax="433" yMax="738">
      <contour>
        <pt x="314" y="315" on="1"/>
        <pt x="207" y="315" on="1"/>
        <pt x="218" y="151" on="0"/>
        <pt x="309" y="151" on="1"/>
        <pt x="344" y="151" on="0"/>
        <pt x="381" y="178" on="0"/>
        <pt x="414" y="178" on="0"/>
        <pt x="433" y="146" on="0"/>
        <pt x="433" y="125" on="1"/>
        <pt x="433" y="60" on="0"/>
        <pt x="327" y="-21" on="0"/>
        <pt x="200" y="-21" on="0"/>
        <pt x="118" y="37" on="0"/>
        <pt x="98" y="86" on="1"/>
        <pt x="59" y="179" on="0"/>
        <pt x="59" y="304" on="1"/>
        <pt x="59" y="315" on="1"/>
        <pt x="20" y="315" on="1"/>
        <pt x="0" y="317" on="0"/>
        <pt x="0" y="337" on="1"/>
        <pt x="0" y="350" on="0"/>
        <pt x="7" y="360" on="1"/>
        <pt x="18" y="374" on="0"/>
        <pt x="28" y="374" on="1"/>
        <pt x="61" y="374" on="1"/>
        <pt x="62" y="391" on="0"/>
        <pt x="66" y="427" on="1"/>
        <pt x="20" y="427" on="1"/>
        <pt x="13" y="427" on="0"/>
        <pt x="0" y="439" on="0"/>
        <pt x="0" y="461" on="0"/>
        <pt x="7" y="470" on="1"/>
        <pt x="18" y="486" on="0"/>
        <pt x="28" y="486" on="1"/>
        <pt x="76" y="486" on="1"/>
        <pt x="130" y="738" on="0"/>
        <pt x="324" y="738" on="1"/>
        <pt x="403" y="738" on="0"/>
        <pt x="420" y="699" on="1"/>
        <pt x="431" y="666" on="0"/>
        <pt x="431" y="635" on="1"/>
        <pt x="431" y="589" on="0"/>
        <pt x="401" y="583" on="1"/>
        <pt x="386" y="583" on="0"/>
        <pt x="349" y="610" on="0"/>
        <pt x="322" y="613" on="1"/>
        <pt x="241" y="613" on="0"/>
        <pt x="216" y="486" on="1"/>
        <pt x="322" y="486" on="1"/>
        <pt x="345" y="486" on="0"/>
        <pt x="345" y="464" on="1"/>
        <pt x="343" y="449" on="0"/>
        <pt x="328" y="430" on="0"/>
        <pt x="314" y="427" on="1"/>
        <pt x="208" y="427" on="1"/>
        <pt x="206" y="387" on="0"/>
        <pt x="206" y="374" on="1"/>
        <pt x="315" y="374" on="1"/>
        <pt x="345" y="374" on="0"/>
        <pt x="345" y="353" on="1"/>
        <pt x="345" y="342" on="0"/>
        <pt x="327" y="319" on="0"/>
      </contour>
    </TTGlyph>
    <TTGlyph name="F" xMin="1" yMin="-155" xMax="335" yMax="746">
      <contour>
        <pt x="255" y="474" on="1"/>
        <pt x="295" y="475" on="1"/>
        <pt x="323" y="475" on="0"/>
        <pt x="323" y="445" on="1"/>
        <pt x="323" y="405" on="0"/>
        <pt x="267" y="362" on="0"/>
        <pt x="225" y="359" on="1"/>
        <pt x="210" y="359" on="0"/>
        <pt x="185" y="344" on="0"/>
        <pt x="184" y="335" on="1"/>
        <pt x="177" y="262" on="0"/>
        <pt x="177" y="68" on="0"/>
        <pt x="187" y="-26" on="1"/>
        <pt x="190" y="-36" on="0"/>
        <pt x="190" y="-61" on="0"/>
        <pt x="184" y="-73" on="1"/>
        <pt x="165" y="-107" on="0"/>
        <pt x="128" y="-128" on="1"/>
        <pt x="78" y="-155" on="0"/>
        <pt x="1" y="-155" on="0"/>
        <pt x="1" y="-127" on="1"/>
        <pt x="5" y="-107" on="1"/>
        <pt x="44" y="53" on="0"/>
        <pt x="44" y="318" on="1"/>
        <pt x="44" y="330" on="1"/>
        <pt x="44" y="336" on="0"/>
        <pt x="39" y="336" on="1"/>
        <pt x="1" y="336" on="0"/>
        <pt x="1" y="370" on="1"/>
        <pt x="1" y="390" on="0"/>
        <pt x="35" y="463" on="0"/>
        <pt x="54" y="468" on="1"/>
        <pt x="55" y="481" on="0"/>
        <pt x="55" y="500" on="1"/>
        <pt x="55" y="592" on="0"/>
        <pt x="25" y="616" on="1"/>
        <pt x="15" y="628" on="0"/>
        <pt x="15" y="646" on="1"/>
        <pt x="15" y="678" on="0"/>
        <pt x="57" y="703" on="1"/>
        <pt x="137" y="746" on="0"/>
        <pt x="244" y="746" on="1"/>
        <pt x="270" y="746" on="0"/>
        <pt x="303" y="742" on="0"/>
        <pt x="335" y="719" on="0"/>
        <pt x="335" y="697" on="1"/>
        <pt x="335" y="660" on="0"/>
        <pt x="227" y="628" on="0"/>
        <pt x="189" y="572" on="0"/>
        <pt x="189" y="522" on="1"/>
        <pt x="189" y="511" on="0"/>
        <pt x="191" y="489" on="1"/>
        <pt x="192" y="474" on="0"/>
      </contour>
    </TTGlyph>
    <TTGlyph name="G" xMin="11" yMin="-44" xMax="426" yMax="735">
      <contour>
        <pt x="416" y="436" on="1"/>
        <pt x="405" y="325" on="0"/>
        <pt x="405" y="54" on="0"/>
        <pt x="422" y="7" on="1"/>
        <pt x="426" y="-2" on="0"/>
        <pt x="426" y="-27" on="0"/>
        <pt x="406" y="-43" on="0"/>
        <pt x="396" y="-44" on="1"/>
        <pt x="385" y="-44" on="1"/>
        <pt x="338" y="-43" on="0"/>
        <pt x="267" y="-9" on="0"/>
        <pt x="267" y="28" on="1"/>
        <pt x="267" y="79" on="0"/>
        <pt x="258" y="79" on="1"/>
        <pt x="251" y="73" on="1"/>
        <pt x="217" y="5" on="0"/>
        <pt x="164" y="-13" on="1"/>
        <pt x="147" y="-19" on="0"/>
        <pt x="132" y="-19" on="1"/>
        <pt x="95" y="-19" on="0"/>
        <pt x="43" y="31" on="0"/>
        <pt x="32" y="74" on="1"/>
        <pt x="11" y="149" on="0"/>
        <pt x="11" y="288" on="0"/>
        <pt x="19" y="386" on="0"/>
        <pt x="38" y="505" on="0"/>
        <pt x="77" y="603" on="0"/>
        <pt x="132" y="687" on="0"/>
        <pt x="219" y="735" on="0"/>
        <pt x="274" y="735" on="1"/>
        <pt x="352" y="735" on="0"/>
        <pt x="364" y="703" on="1"/>
        <pt x="371" y="686" on="0"/>
        <pt x="371" y="654" on="1"/>
        <pt x="371" y="577" on="0"/>
        <pt x="335" y="577" on="1"/>
        <pt x="323" y="577" on="0"/>
        <pt x="291" y="609" on="0"/>
        <pt x="236" y="609" on="0"/>
        <pt x="187" y="557" on="0"/>
        <pt x="176" y="517" on="1"/>
        <pt x="156" y="444" on="0"/>
        <pt x="156" y="379" on="1"/>
        <pt x="156" y="260" on="0"/>
        <pt x="186" y="216" on="1"/>
        <pt x="202" y="193" on="0"/>
        <pt x="254" y="193" on="0"/>
        <pt x="277" y="248" on="0"/>
        <pt x="277" y="326" on="0"/>
        <pt x="250" y="422" on="0"/>
        <pt x="250" y="425" on="1"/>
        <pt x="250" y="443" on="0"/>
        <pt x="267" y="456" on="1"/>
        <pt x="313" y="488" on="0"/>
        <pt x="385" y="488" on="1"/>
        <pt x="418" y="488" on="0"/>
        <pt x="418" y="463" on="1"/>
      </contour>
    </TTGlyph>
    <TTGlyph name="H" xMin="-9" yMin="-38" xMax="462" yMax="736">
      <contour>
        <pt x="275" y="121" on="1"/>
        <pt x="279" y="306" on="1"/>
        <pt x="279" y="325" on="0"/>
        <pt x="277" y="347" on="1"/>
        <pt x="275" y="377" on="0"/>
        <pt x="237" y="377" on="1"/>
        <pt x="162" y="377" on="0"/>
        <pt x="162" y="338" on="1"/>
        <pt x="162" y="120" on="0"/>
        <pt x="173" y="60" on="1"/>
        <pt x="175" y="54" on="0"/>
        <pt x="175" y="46" on="1"/>
        <pt x="175" y="10" on="0"/>
        <pt x="78" y="-38" on="0"/>
        <pt x="3" y="-38" on="0"/>
        <pt x="3" y="-6" on="1"/>
        <pt x="6" y="14" on="1"/>
        <pt x="31" y="195" on="0"/>
        <pt x="31" y="391" on="1"/>
        <pt x="26" y="546" on="1"/>
        <pt x="24" y="582" on="0"/>
        <pt x="2" y="610" on="1"/>
        <pt x="-9" y="621" on="0"/>
        <pt x="-9" y="637" on="1"/>
        <pt x="-9" y="672" on="0"/>
        <pt x="98" y="734" on="0"/>
        <pt x="137" y="734" on="1"/>
        <pt x="167" y="734" on="0"/>
        <pt x="169" y="701" on="1"/>
        <pt x="170" y="689" on="0"/>
        <pt x="170" y="667" on="1"/>
        <pt x="170" y="667" on="0"/>
        <pt x="163" y="504" on="1"/>
        <pt x="163" y="485" on="0"/>
        <pt x="183" y="473" on="0"/>
        <pt x="221" y="473" on="1"/>
        <pt x="282" y="473" on="0"/>
        <pt x="283" y="506" on="1"/>
        <pt x="284" y="544" on="1"/>
        <pt x="281" y="646" on="1"/>
        <pt x="281" y="683" on="0"/>
        <pt x="373" y="736" on="0"/>
        <pt x="414" y="736" on="1"/>
        <pt x="431" y="736" on="0"/>
        <pt x="446" y="726" on="0"/>
        <pt x="446" y="694" on="0"/>
        <pt x="442" y="677" on="1"/>
        <pt x="412" y="528" on="0"/>
        <pt x="412" y="340" on="1"/>
        <pt x="414" y="211" on="0"/>
        <pt x="429" y="96" on="0"/>
        <pt x="462" y="64" on="0"/>
        <pt x="462" y="47" on="1"/>
        <pt x="462" y="16" on="0"/>
        <pt x="370" y="-28" on="0"/>
        <pt x="314" y="-28" on="0"/>
        <pt x="287" y="-8" on="0"/>
        <pt x="285" y="2" on="1"/>
        <pt x="283" y="12" on="1"/>
        <pt x="275" y="48" on="0"/>
      </contour>
    </TTGlyph>
    <TTGlyph name="I" xMin="1" yMin="-38" xMax="186" yMax="734">
      <contour>
        <pt x="186" y="9" on="0"/>
        <pt x="86" y="-38" on="0"/>
        <pt x="13" y="-38" on="0"/>
        <pt x="13" y="-5" on="1"/>
        <pt x="16" y="14" on="1"/>
        <pt x="41" y="195" on="0"/>
        <pt x="41" y="391" on="1"/>
        <pt x="36" y="546" on="1"/>
        <pt x="34" y="582" on="0"/>
        <pt x="12" y="610" on="1"/>
        <pt x="1" y="621" on="0"/>
        <pt x="1" y="637" on="1"/>
        <pt x="1" y="673" on="0"/>
        <pt x="112" y="734" on="0"/>
        <pt x="177" y="734" on="0"/>
        <pt x="179" y="701" on="1"/>
        <pt x="180" y="689" on="0"/>
        <pt x="180" y="614" on="0"/>
        <pt x="175" y="549" on="1"/>
        <pt x="172" y="440" on="0"/>
        <pt x="172" y="115" on="0"/>
        <pt x="183" y="60" on="1"/>
        <pt x="186" y="54" on="0"/>
        <pt x="186" y="45" on="1"/>
      </contour>
    </TTGlyph>
    <TTGlyph name="Iacute" xMin="1" yMin="-38" xMax="186" yMax="875">
      <contour>
        <pt x="186" y="9" on="0"/>
        <pt x="86" y="-38" on="0"/>
        <pt x="13" y="-38" on="0"/>
        <pt x="13" y="-5" on="1"/>
        <pt x="16" y="14" on="1"/>
        <pt x="41" y="195" on="0"/>
        <pt x="41" y="391" on="1"/>
        <pt x="36" y="546" on="1"/>
        <pt x="34" y="582" on="0"/>
        <pt x="12" y="610" on="1"/>
        <pt x="1" y="621" on="0"/>
        <pt x="1" y="637" on="1"/>
        <pt x="1" y="673" on="0"/>
        <pt x="112" y="734" on="0"/>
        <pt x="177" y="734" on="0"/>
        <pt x="179" y="701" on="1"/>
        <pt x="180" y="689" on="0"/>
        <pt x="180" y="614" on="0"/>
        <pt x="175" y="549" on="1"/>
        <pt x="172" y="440" on="0"/>
        <pt x="172" y="115" on="0"/>
        <pt x="183" y="60" on="1"/>
        <pt x="186" y="54" on="0"/>
        <pt x="186" y="45" on="1"/>
      </contour>
      <contour>
        <pt x="137" y="875" on="0"/>
        <pt x="169" y="835" on="0"/>
        <pt x="169" y="806" on="0"/>
        <pt x="153" y="801" on="1"/>
        <pt x="123" y="792" on="0"/>
        <pt x="71" y="760" on="1"/>
        <pt x="54" y="749" on="1"/>
        <pt x="45" y="745" on="0"/>
        <pt x="39" y="745" on="1"/>
        <pt x="28" y="745" on="0"/>
        <pt x="28" y="779" on="0"/>
        <pt x="97" y="875" on="0"/>
        <pt x="121" y="875" on="1"/>
      </contour>
    </TTGlyph>
    <TTGlyph name="Icircumflex" xMin="-23" yMin="-38" xMax="220" yMax="870">
      <contour>
        <pt x="186" y="9" on="0"/>
        <pt x="86" y="-38" on="0"/>
        <pt x="13" y="-38" on="0"/>
        <pt x="13" y="-5" on="1"/>
        <pt x="16" y="14" on="1"/>
        <pt x="41" y="195" on="0"/>
        <pt x="41" y="391" on="1"/>
        <pt x="36" y="546" on="1"/>
        <pt x="34" y="582" on="0"/>
        <pt x="12" y="610" on="1"/>
        <pt x="1" y="621" on="0"/>
        <pt x="1" y="637" on="1"/>
        <pt x="1" y="673" on="0"/>
        <pt x="112" y="734" on="0"/>
        <pt x="177" y="734" on="0"/>
        <pt x="179" y="701" on="1"/>
        <pt x="180" y="689" on="0"/>
        <pt x="180" y="614" on="0"/>
        <pt x="175" y="549" on="1"/>
        <pt x="172" y="440" on="0"/>
        <pt x="172" y="115" on="0"/>
        <pt x="183" y="60" on="1"/>
        <pt x="186" y="54" on="0"/>
        <pt x="186" y="45" on="1"/>
      </contour>
      <contour>
        <pt x="194" y="744" on="1"/>
        <pt x="116" y="795" on="0"/>
        <pt x="97" y="795" on="1"/>
        <pt x="91" y="795" on="0"/>
        <pt x="-5" y="739" on="0"/>
        <pt x="-12" y="739" on="1"/>
        <pt x="-23" y="739" on="0"/>
        <pt x="-23" y="764" on="0"/>
        <pt x="-5" y="795" on="0"/>
        <pt x="11" y="823" on="0"/>
        <pt x="52" y="870" on="0"/>
        <pt x="67" y="870" on="1"/>
        <pt x="68" y="870" on="0"/>
        <pt x="68" y="870" on="1"/>
        <pt x="81" y="870" on="0"/>
        <pt x="95" y="854" on="1"/>
        <pt x="97" y="852" on="0"/>
        <pt x="100" y="852" on="0"/>
        <pt x="104" y="857" on="1"/>
        <pt x="116" y="870" on="0"/>
        <pt x="126" y="870" on="1"/>
        <pt x="130" y="870" on="1"/>
        <pt x="145" y="870" on="0"/>
        <pt x="183" y="828" on="0"/>
        <pt x="195" y="807" on="1"/>
        <pt x="207" y="786" on="1"/>
        <pt x="220" y="764" on="0"/>
        <pt x="220" y="739" on="0"/>
        <pt x="209" y="739" on="1"/>
        <pt x="201" y="739" on="0"/>
      </contour>
    </TTGlyph>
    <TTGlyph name="Idieresis" xMin="-39" yMin="-38" xMax="261" yMax="858">
      <contour>
        <pt x="186" y="9" on="0"/>
        <pt x="86" y="-38" on="0"/>
        <pt x="13" y="-38" on="0"/>
        <pt x="13" y="-5" on="1"/>
        <pt x="16" y="14" on="1"/>
        <pt x="41" y="195" on="0"/>
        <pt x="41" y="391" on="1"/>
        <pt x="36" y="546" on="1"/>
        <pt x="34" y="582" on="0"/>
        <pt x="12" y="610" on="1"/>
        <pt x="1" y="621" on="0"/>
        <pt x="1" y="637" on="1"/>
        <pt x="1" y="673" on="0"/>
        <pt x="112" y="734" on="0"/>
        <pt x="177" y="734" on="0"/>
        <pt x="179" y="701" on="1"/>
        <pt x="180" y="689" on="0"/>
        <pt x="180" y="614" on="0"/>
        <pt x="175" y="549" on="1"/>
        <pt x="172" y="440" on="0"/>
        <pt x="172" y="115" on="0"/>
        <pt x="183" y="60" on="1"/>
        <pt x="186" y="54" on="0"/>
        <pt x="186" y="45" on="1"/>
      </contour>
      <contour>
        <pt x="235" y="858" on="0"/>
        <pt x="261" y="836" on="0"/>
        <pt x="261" y="791" on="0"/>
        <pt x="214" y="752" on="0"/>
        <pt x="169" y="752" on="0"/>
        <pt x="142" y="775" on="0"/>
        <pt x="142" y="819" on="0"/>
        <pt x="190" y="858" on="0"/>
      </contour>
      <contour>
        <pt x="54" y="858" on="0"/>
        <pt x="80" y="836" on="0"/>
        <pt x="80" y="791" on="0"/>
        <pt x="33" y="752" on="0"/>
        <pt x="-12" y="752" on="0"/>
        <pt x="-39" y="775" on="0"/>
        <pt x="-39" y="819" on="0"/>
        <pt x="9" y="858" on="0"/>
      </contour>
    </TTGlyph>
    <TTGlyph name="Igrave" xMin="1" yMin="-38" xMax="186" yMax="891">
      <contour>
        <pt x="186" y="9" on="0"/>
        <pt x="86" y="-38" on="0"/>
        <pt x="13" y="-38" on="0"/>
        <pt x="13" y="-5" on="1"/>
        <pt x="16" y="14" on="1"/>
        <pt x="41" y="195" on="0"/>
        <pt x="41" y="391" on="1"/>
        <pt x="36" y="546" on="1"/>
        <pt x="34" y="582" on="0"/>
        <pt x="12" y="610" on="1"/>
        <pt x="1" y="621" on="0"/>
        <pt x="1" y="637" on="1"/>
        <pt x="1" y="673" on="0"/>
        <pt x="112" y="734" on="0"/>
        <pt x="177" y="734" on="0"/>
        <pt x="179" y="701" on="1"/>
        <pt x="180" y="689" on="0"/>
        <pt x="180" y="614" on="0"/>
        <pt x="175" y="549" on="1"/>
        <pt x="172" y="440" on="0"/>
        <pt x="172" y="115" on="0"/>
        <pt x="183" y="60" on="1"/>
        <pt x="186" y="54" on="0"/>
        <pt x="186" y="45" on="1"/>
      </contour>
      <contour>
        <pt x="47" y="816" on="1"/>
        <pt x="30" y="822" on="0"/>
        <pt x="28" y="835" on="1"/>
        <pt x="28" y="852" on="0"/>
        <pt x="61" y="891" on="0"/>
        <pt x="92" y="891" on="0"/>
        <pt x="112" y="869" on="1"/>
        <pt x="140" y="838" on="0"/>
        <pt x="155" y="808" on="1"/>
        <pt x="169" y="785" on="0"/>
        <pt x="169" y="761" on="0"/>
        <pt x="158" y="761" on="1"/>
        <pt x="151" y="761" on="0"/>
        <pt x="143" y="765" on="1"/>
        <pt x="78" y="806" on="0"/>
      </contour>
    </TTGlyph>
    <TTGlyph name="J" xMin="-94" yMin="-177" xMax="185" yMax="734">
      <contour>
        <pt x="177" y="283" on="1"/>
        <pt x="181" y="92" on="1"/>
        <pt x="181" y="-11" on="0"/>
        <pt x="149" y="-113" on="0"/>
        <pt x="67" y="-177" on="0"/>
        <pt x="-32" y="-177" on="0"/>
        <pt x="-94" y="-122" on="0"/>
        <pt x="-94" y="-82" on="1"/>
        <pt x="-94" y="-63" on="0"/>
        <pt x="-77" y="-41" on="0"/>
        <pt x="-68" y="-39" on="1"/>
        <pt x="-60" y="-37" on="1"/>
        <pt x="-28" y="-36" on="0"/>
        <pt x="14" y="1" on="0"/>
        <pt x="19" y="18" on="1"/>
        <pt x="24" y="36" on="1"/>
        <pt x="45" y="106" on="0"/>
        <pt x="45" y="341" on="1"/>
        <pt x="41" y="550" on="1"/>
        <pt x="41" y="568" on="0"/>
        <pt x="29" y="595" on="0"/>
        <pt x="6" y="617" on="0"/>
        <pt x="6" y="633" on="1"/>
        <pt x="6" y="668" on="0"/>
        <pt x="116" y="734" on="0"/>
        <pt x="183" y="734" on="0"/>
        <pt x="185" y="701" on="1"/>
        <pt x="185" y="605" on="0"/>
        <pt x="181" y="549" on="1"/>
        <pt x="177" y="415" on="0"/>
      </contour>
    </TTGlyph>
    <TTGlyph name="K" xMin="1" yMin="-38" xMax="482" yMax="739">
      <contour>
        <pt x="399" y="180" on="0"/>
        <pt x="443" y="93" on="0"/>
        <pt x="482" y="70" on="0"/>
        <pt x="482" y="51" on="1"/>
        <pt x="482" y="18" on="0"/>
        <pt x="387" y="-31" on="0"/>
        <pt x="334" y="-31" on="0"/>
        <pt x="308" y="-12" on="0"/>
        <pt x="285" y="38" on="0"/>
        <pt x="243" y="205" on="0"/>
        <pt x="230" y="272" on="1"/>
        <pt x="216" y="340" on="1"/>
        <pt x="211" y="364" on="0"/>
        <pt x="188" y="364" on="0"/>
        <pt x="172" y="308" on="0"/>
        <pt x="172" y="295" on="1"/>
        <pt x="172" y="128" on="0"/>
        <pt x="185" y="60" on="1"/>
        <pt x="187" y="54" on="0"/>
        <pt x="187" y="46" on="1"/>
        <pt x="187" y="9" on="0"/>
        <pt x="87" y="-38" on="0"/>
        <pt x="14" y="-38" on="0"/>
        <pt x="14" y="-5" on="1"/>
        <pt x="17" y="14" on="1"/>
        <pt x="42" y="195" on="0"/>
        <pt x="42" y="393" on="1"/>
        <pt x="37" y="550" on="1"/>
        <pt x="35" y="585" on="0"/>
        <pt x="18" y="600" on="1"/>
        <pt x="1" y="616" on="0"/>
        <pt x="1" y="632" on="1"/>
        <pt x="1" y="668" on="0"/>
        <pt x="115" y="734" on="0"/>
        <pt x="180" y="734" on="0"/>
        <pt x="182" y="701" on="1"/>
        <pt x="171" y="591" on="0"/>
        <pt x="171" y="514" on="1"/>
        <pt x="171" y="483" on="0"/>
        <pt x="181" y="483" on="1"/>
        <pt x="186" y="483" on="0"/>
        <pt x="190" y="490" on="1"/>
        <pt x="204" y="518" on="0"/>
        <pt x="268" y="620" on="0"/>
        <pt x="315" y="685" on="0"/>
        <pt x="370" y="739" on="0"/>
        <pt x="388" y="739" on="1"/>
        <pt x="418" y="739" on="0"/>
        <pt x="456" y="673" on="0"/>
        <pt x="456" y="642" on="1"/>
        <pt x="456" y="608" on="0"/>
        <pt x="375" y="608" on="0"/>
        <pt x="327" y="530" on="1"/>
        <pt x="315" y="516" on="0"/>
        <pt x="315" y="470" on="0"/>
        <pt x="324" y="433" on="0"/>
        <pt x="334" y="389" on="0"/>
        <pt x="367" y="273" on="0"/>
      </contour>
    </TTGlyph>
    <TTGlyph name="L" xMin="0" yMin="-16" xMax="372" yMax="742">
      <contour>
        <pt x="372" y="68" on="0"/>
        <pt x="298" y="-16" on="0"/>
        <pt x="158" y="-16" on="1"/>
        <pt x="94" y="-16" on="0"/>
        <pt x="29" y="-2" on="0"/>
        <pt x="15" y="15" on="0"/>
        <pt x="15" y="31" on="1"/>
        <pt x="17" y="46" on="1"/>
        <pt x="40" y="170" on="0"/>
        <pt x="40" y="383" on="1"/>
        <pt x="36" y="553" on="1"/>
        <pt x="34" y="589" on="0"/>
        <pt x="13" y="618" on="1"/>
        <pt x="0" y="631" on="0"/>
        <pt x="0" y="645" on="1"/>
        <pt x="0" y="678" on="0"/>
        <pt x="121" y="742" on="0"/>
        <pt x="189" y="742" on="0"/>
        <pt x="189" y="714" on="1"/>
        <pt x="176" y="614" on="0"/>
        <pt x="171" y="449" on="0"/>
        <pt x="171" y="238" on="0"/>
        <pt x="173" y="194" on="0"/>
        <pt x="174" y="190" on="0"/>
        <pt x="179" y="180" on="0"/>
        <pt x="184" y="176" on="1"/>
        <pt x="196" y="167" on="0"/>
        <pt x="221" y="167" on="1"/>
        <pt x="276" y="167" on="0"/>
        <pt x="309" y="205" on="1"/>
        <pt x="325" y="221" on="0"/>
        <pt x="341" y="221" on="1"/>
        <pt x="372" y="221" on="0"/>
        <pt x="372" y="162" on="1"/>
      </contour>
    </TTGlyph>
    <TTGlyph name="Lslash" xMin="-29" yMin="-16" xMax="372" yMax="742">
      <contour>
        <pt x="372" y="68" on="0"/>
        <pt x="298" y="-16" on="0"/>
        <pt x="158" y="-16" on="1"/>
        <pt x="94" y="-16" on="0"/>
        <pt x="29" y="-2" on="0"/>
        <pt x="15" y="15" on="0"/>
        <pt x="15" y="31" on="1"/>
        <pt x="17" y="46" on="1"/>
        <pt x="36" y="150" on="0"/>
        <pt x="39" y="302" on="1"/>
        <pt x="9" y="288" on="1"/>
        <pt x="8" y="287" on="0"/>
        <pt x="7" y="287" on="1"/>
        <pt x="-5" y="287" on="0"/>
        <pt x="-29" y="331" on="0"/>
        <pt x="-29" y="360" on="0"/>
        <pt x="-24" y="363" on="1"/>
        <pt x="-6" y="371" on="0"/>
        <pt x="40" y="394" on="1"/>
        <pt x="36" y="553" on="1"/>
        <pt x="34" y="589" on="0"/>
        <pt x="13" y="618" on="1"/>
        <pt x="0" y="631" on="0"/>
        <pt x="0" y="645" on="1"/>
        <pt x="0" y="678" on="0"/>
        <pt x="121" y="742" on="0"/>
        <pt x="189" y="742" on="0"/>
        <pt x="189" y="714" on="1"/>
        <pt x="176" y="614" on="0"/>
        <pt x="173" y="520" on="0"/>
        <pt x="172" y="466" on="1"/>
        <pt x="198" y="479" on="0"/>
        <pt x="205" y="479" on="1"/>
        <pt x="221" y="479" on="0"/>
        <pt x="246" y="435" on="0"/>
        <pt x="246" y="418" on="1"/>
        <pt x="246" y="411" on="0"/>
        <pt x="171" y="371" on="1"/>
        <pt x="171" y="329" on="1"/>
        <pt x="171" y="202" on="0"/>
        <pt x="174" y="190" on="0"/>
        <pt x="179" y="180" on="0"/>
        <pt x="184" y="176" on="1"/>
        <pt x="196" y="167" on="0"/>
        <pt x="221" y="167" on="1"/>
        <pt x="276" y="167" on="0"/>
        <pt x="309" y="205" on="1"/>
        <pt x="325" y="221" on="0"/>
        <pt x="341" y="221" on="1"/>
        <pt x="372" y="221" on="0"/>
        <pt x="372" y="162" on="1"/>
      </contour>
    </TTGlyph>
    <TTGlyph name="M" xMin="-23" yMin="-39" xMax="629" yMax="745">
      <contour>
        <pt x="136" y="298" on="1"/>
        <pt x="138" y="139" on="1"/>
        <pt x="135" y="52" on="1"/>
        <pt x="133" y="23" on="0"/>
        <pt x="96" y="-17" on="0"/>
        <pt x="70" y="-25" on="1"/>
        <pt x="26" y="-39" on="0"/>
        <pt x="-23" y="-39" on="0"/>
        <pt x="-23" y="-17" on="1"/>
        <pt x="-21" y="-5" on="1"/>
        <pt x="-9" y="29" on="0"/>
        <pt x="8" y="104" on="1"/>
        <pt x="13" y="129" on="1"/>
        <pt x="41" y="287" on="0"/>
        <pt x="41" y="503" on="1"/>
        <pt x="41" y="585" on="0"/>
        <pt x="23" y="621" on="1"/>
        <pt x="11" y="634" on="0"/>
        <pt x="11" y="650" on="1"/>
        <pt x="11" y="694" on="0"/>
        <pt x="158" y="745" on="0"/>
        <pt x="259" y="745" on="0"/>
        <pt x="270" y="703" on="1"/>
        <pt x="283" y="658" on="0"/>
        <pt x="291" y="608" on="1"/>
        <pt x="308" y="503" on="0"/>
        <pt x="322" y="503" on="1"/>
        <pt x="332" y="503" on="0"/>
        <pt x="338" y="515" on="1"/>
        <pt x="373" y="604" on="0"/>
        <pt x="394" y="668" on="0"/>
        <pt x="400" y="684" on="0"/>
        <pt x="434" y="718" on="0"/>
        <pt x="460" y="726" on="1"/>
        <pt x="499" y="741" on="0"/>
        <pt x="548" y="741" on="1"/>
        <pt x="629" y="741" on="0"/>
        <pt x="629" y="706" on="1"/>
        <pt x="629" y="695" on="0"/>
        <pt x="620" y="677" on="1"/>
        <pt x="595" y="640" on="0"/>
        <pt x="575" y="426" on="0"/>
        <pt x="575" y="322" on="1"/>
        <pt x="575" y="113" on="0"/>
        <pt x="604" y="93" on="1"/>
        <pt x="623" y="78" on="0"/>
        <pt x="623" y="37" on="0"/>
        <pt x="567" y="-3" on="0"/>
        <pt x="501" y="-23" on="0"/>
        <pt x="454" y="-23" on="0"/>
        <pt x="428" y="-3" on="0"/>
        <pt x="426" y="7" on="1"/>
        <pt x="424" y="17" on="1"/>
        <pt x="419" y="34" on="0"/>
        <pt x="419" y="80" on="1"/>
        <pt x="419" y="154" on="0"/>
        <pt x="429" y="274" on="1"/>
        <pt x="432" y="310" on="1"/>
        <pt x="441" y="390" on="0"/>
        <pt x="441" y="481" on="0"/>
        <pt x="433" y="481" on="1"/>
        <pt x="413" y="481" on="0"/>
        <pt x="360" y="294" on="1"/>
        <pt x="338" y="218" on="0"/>
        <pt x="323" y="184" on="1"/>
        <pt x="317" y="170" on="1"/>
        <pt x="303" y="134" on="0"/>
        <pt x="268" y="134" on="1"/>
        <pt x="257" y="134" on="0"/>
        <pt x="243" y="146" on="0"/>
        <pt x="241" y="158" on="1"/>
        <pt x="223" y="204" on="0"/>
        <pt x="180" y="400" on="1"/>
        <pt x="166" y="464" on="1"/>
        <pt x="161" y="480" on="0"/>
        <pt x="153" y="480" on="1"/>
        <pt x="136" y="480" on="0"/>
      </contour>
    </TTGlyph>
    <TTGlyph name="N" xMin="-10" yMin="-39" xMax="507" yMax="739">
      <contour>
        <pt x="51" y="474" on="1"/>
        <pt x="49" y="533" on="1"/>
        <pt x="49" y="539" on="1"/>
        <pt x="49" y="568" on="0"/>
        <pt x="36" y="600" on="1"/>
        <pt x="32" y="610" on="1"/>
        <pt x="21" y="624" on="0"/>
        <pt x="21" y="662" on="0"/>
        <pt x="65" y="701" on="0"/>
        <pt x="97" y="712" on="1"/>
        <pt x="164" y="735" on="0"/>
        <pt x="258" y="735" on="0"/>
        <pt x="267" y="695" on="1"/>
        <pt x="279" y="655" on="0"/>
        <pt x="308" y="518" on="0"/>
        <pt x="314" y="495" on="1"/>
        <pt x="330" y="428" on="0"/>
        <pt x="349" y="391" on="1"/>
        <pt x="352" y="388" on="0"/>
        <pt x="356" y="388" on="1"/>
        <pt x="366" y="388" on="0"/>
        <pt x="368" y="411" on="1"/>
        <pt x="368" y="501" on="0"/>
        <pt x="361" y="600" on="0"/>
        <pt x="361" y="653" on="0"/>
        <pt x="364" y="662" on="1"/>
        <pt x="375" y="695" on="0"/>
        <pt x="444" y="739" on="0"/>
        <pt x="507" y="739" on="0"/>
        <pt x="507" y="714" on="1"/>
        <pt x="507" y="708" on="0"/>
        <pt x="493" y="638" on="1"/>
        <pt x="459" y="461" on="0"/>
        <pt x="459" y="208" on="1"/>
        <pt x="459" y="124" on="0"/>
        <pt x="465" y="31" on="1"/>
        <pt x="465" y="27" on="1"/>
        <pt x="465" y="-5" on="0"/>
        <pt x="431" y="-14" on="1"/>
        <pt x="405" y="-21" on="0"/>
        <pt x="346" y="-21" on="0"/>
        <pt x="269" y="6" on="0"/>
        <pt x="264" y="37" on="1"/>
        <pt x="236" y="205" on="0"/>
        <pt x="191" y="374" on="1"/>
        <pt x="176" y="431" on="1"/>
        <pt x="170" y="447" on="0"/>
        <pt x="162" y="447" on="1"/>
        <pt x="145" y="447" on="0"/>
        <pt x="145" y="237" on="1"/>
        <pt x="145" y="165" on="0"/>
        <pt x="151" y="55" on="0"/>
        <pt x="151" y="45" on="1"/>
        <pt x="151" y="18" on="0"/>
        <pt x="114" y="-19" on="0"/>
        <pt x="87" y="-26" on="1"/>
        <pt x="42" y="-39" on="0"/>
        <pt x="-10" y="-39" on="0"/>
        <pt x="-10" y="-15" on="1"/>
        <pt x="-10" y="-7" on="0"/>
        <pt x="22" y="112" on="0"/>
        <pt x="25" y="128" on="1"/>
        <pt x="51" y="258" on="0"/>
        <pt x="51" y="443" on="1"/>
      </contour>
    </TTGlyph>
    <TTGlyph name="Ntilde" xMin="-10" yMin="-39" xMax="507" yMax="871">
      <contour>
        <pt x="381" y="768" on="1"/>
        <pt x="362" y="752" on="0"/>
        <pt x="324" y="752" on="0"/>
        <pt x="248" y="784" on="0"/>
        <pt x="192" y="784" on="0"/>
        <pt x="159" y="773" on="0"/>
        <pt x="152" y="773" on="1"/>
        <pt x="135" y="773" on="0"/>
        <pt x="135" y="813" on="0"/>
        <pt x="202" y="865" on="0"/>
        <pt x="246" y="865" on="1"/>
        <pt x="264" y="865" on="0"/>
        <pt x="327" y="851" on="0"/>
        <pt x="373" y="851" on="0"/>
        <pt x="394" y="866" on="1"/>
        <pt x="403" y="871" on="0"/>
        <pt x="413" y="871" on="1"/>
        <pt x="429" y="871" on="0"/>
        <pt x="429" y="854" on="1"/>
        <pt x="429" y="809" on="0"/>
      </contour>
      <contour>
        <pt x="51" y="474" on="1"/>
        <pt x="49" y="533" on="1"/>
        <pt x="49" y="539" on="1"/>
        <pt x="49" y="568" on="0"/>
        <pt x="36" y="600" on="1"/>
        <pt x="32" y="610" on="1"/>
        <pt x="21" y="624" on="0"/>
        <pt x="21" y="662" on="0"/>
        <pt x="65" y="701" on="0"/>
        <pt x="97" y="712" on="1"/>
        <pt x="164" y="735" on="0"/>
        <pt x="258" y="735" on="0"/>
        <pt x="267" y="695" on="1"/>
        <pt x="279" y="655" on="0"/>
        <pt x="308" y="518" on="0"/>
        <pt x="314" y="495" on="1"/>
        <pt x="330" y="428" on="0"/>
        <pt x="349" y="391" on="1"/>
        <pt x="352" y="388" on="0"/>
        <pt x="356" y="388" on="1"/>
        <pt x="366" y="388" on="0"/>
        <pt x="368" y="411" on="1"/>
        <pt x="368" y="501" on="0"/>
        <pt x="361" y="600" on="0"/>
        <pt x="361" y="653" on="0"/>
        <pt x="364" y="662" on="1"/>
        <pt x="375" y="695" on="0"/>
        <pt x="444" y="739" on="0"/>
        <pt x="507" y="739" on="0"/>
        <pt x="507" y="714" on="1"/>
        <pt x="507" y="708" on="0"/>
        <pt x="493" y="638" on="1"/>
        <pt x="459" y="461" on="0"/>
        <pt x="459" y="208" on="1"/>
        <pt x="459" y="124" on="0"/>
        <pt x="465" y="31" on="1"/>
        <pt x="465" y="27" on="1"/>
        <pt x="465" y="-5" on="0"/>
        <pt x="431" y="-14" on="1"/>
        <pt x="405" y="-21" on="0"/>
        <pt x="346" y="-21" on="0"/>
        <pt x="269" y="6" on="0"/>
        <pt x="264" y="37" on="1"/>
        <pt x="236" y="205" on="0"/>
        <pt x="191" y="374" on="1"/>
        <pt x="176" y="431" on="1"/>
        <pt x="170" y="447" on="0"/>
        <pt x="162" y="447" on="1"/>
        <pt x="145" y="447" on="0"/>
        <pt x="145" y="237" on="1"/>
        <pt x="145" y="165" on="0"/>
        <pt x="151" y="55" on="0"/>
        <pt x="151" y="45" on="1"/>
        <pt x="151" y="18" on="0"/>
        <pt x="114" y="-19" on="0"/>
        <pt x="87" y="-26" on="1"/>
        <pt x="42" y="-39" on="0"/>
        <pt x="-10" y="-39" on="0"/>
        <pt x="-10" y="-15" on="1"/>
        <pt x="-10" y="-7" on="0"/>
        <pt x="22" y="112" on="0"/>
        <pt x="25" y="128" on="1"/>
        <pt x="51" y="258" on="0"/>
        <pt x="51" y="443" on="1"/>
      </contour>
    </TTGlyph>
    <TTGlyph name="O" xMin="10" yMin="-25" xMax="459" yMax="746">
      <contour>
        <pt x="245" y="746" on="1"/>
        <pt x="294" y="746" on="0"/>
        <pt x="338" y="715" on="1"/>
        <pt x="459" y="630" on="0"/>
        <pt x="459" y="341" on="1"/>
        <pt x="459" y="215" on="0"/>
        <pt x="408" y="102" on="1"/>
        <pt x="383" y="45" on="0"/>
        <pt x="289" y="-25" on="0"/>
        <pt x="176" y="-25" on="0"/>
        <pt x="97" y="24" on="0"/>
        <pt x="50" y="98" on="0"/>
        <pt x="35" y="146" on="1"/>
        <pt x="10" y="227" on="0"/>
        <pt x="10" y="384" on="0"/>
        <pt x="32" y="516" on="0"/>
        <pt x="80" y="656" on="0"/>
        <pt x="178" y="746" on="0"/>
      </contour>
      <contour>
        <pt x="256" y="624" on="1"/>
        <pt x="225" y="624" on="0"/>
        <pt x="172" y="518" on="0"/>
        <pt x="145" y="380" on="0"/>
        <pt x="145" y="258" on="0"/>
        <pt x="180" y="192" on="0"/>
        <pt x="208" y="192" on="1"/>
        <pt x="251" y="192" on="0"/>
        <pt x="314" y="342" on="0"/>
        <pt x="314" y="624" on="0"/>
      </contour>
    </TTGlyph>
    <TTGlyph name="OE" xMin="10" yMin="-25" xMax="678" yMax="746">
      <contour>
        <pt x="553" y="474" on="1"/>
        <pt x="599" y="475" on="1"/>
        <pt x="627" y="475" on="0"/>
        <pt x="627" y="405" on="0"/>
        <pt x="564" y="361" on="0"/>
        <pt x="475" y="359" on="0"/>
        <pt x="459" y="346" on="1"/>
        <pt x="459" y="341" on="1"/>
        <pt x="459" y="305" on="0"/>
        <pt x="452" y="249" on="1"/>
        <pt x="469" y="152" on="0"/>
        <pt x="558" y="152" on="1"/>
        <pt x="587" y="152" on="0"/>
        <pt x="621" y="177" on="0"/>
        <pt x="653" y="177" on="0"/>
        <pt x="671" y="144" on="0"/>
        <pt x="671" y="125" on="1"/>
        <pt x="671" y="61" on="0"/>
        <pt x="563" y="-22" on="0"/>
        <pt x="409" y="-22" on="0"/>
        <pt x="362" y="33" on="1"/>
        <pt x="306" y="-25" on="0"/>
        <pt x="227" y="-25" on="1"/>
        <pt x="176" y="-25" on="0"/>
        <pt x="97" y="24" on="0"/>
        <pt x="50" y="98" on="0"/>
        <pt x="35" y="146" on="1"/>
        <pt x="10" y="227" on="0"/>
        <pt x="10" y="384" on="0"/>
        <pt x="32" y="516" on="0"/>
        <pt x="80" y="656" on="0"/>
        <pt x="178" y="746" on="0"/>
        <pt x="245" y="746" on="1"/>
        <pt x="287" y="746" on="0"/>
        <pt x="365" y="699" on="0"/>
        <pt x="392" y="656" on="1"/>
        <pt x="455" y="736" on="0"/>
        <pt x="574" y="736" on="1"/>
        <pt x="650" y="736" on="0"/>
        <pt x="678" y="665" on="0"/>
        <pt x="678" y="642" on="1"/>
        <pt x="678" y="588" on="0"/>
        <pt x="644" y="588" on="1"/>
        <pt x="635" y="588" on="0"/>
        <pt x="595" y="608" on="0"/>
        <pt x="567" y="608" on="1"/>
        <pt x="518" y="608" on="0"/>
        <pt x="459" y="535" on="0"/>
        <pt x="459" y="489" on="1"/>
        <pt x="459" y="476" on="0"/>
        <pt x="516" y="474" on="0"/>
      </contour>
      <contour>
        <pt x="256" y="624" on="1"/>
        <pt x="225" y="624" on="0"/>
        <pt x="172" y="518" on="0"/>
        <pt x="145" y="380" on="0"/>
        <pt x="145" y="258" on="0"/>
        <pt x="180" y="192" on="0"/>
        <pt x="208" y="192" on="1"/>
        <pt x="251" y="192" on="0"/>
        <pt x="314" y="342" on="0"/>
        <pt x="314" y="624" on="0"/>
      </contour>
    </TTGlyph>
    <TTGlyph name="Oacute" xMin="10" yMin="-25" xMax="459" yMax="903">
      <contour>
        <pt x="245" y="746" on="1"/>
        <pt x="294" y="746" on="0"/>
        <pt x="338" y="715" on="1"/>
        <pt x="459" y="630" on="0"/>
        <pt x="459" y="341" on="1"/>
        <pt x="459" y="215" on="0"/>
        <pt x="408" y="102" on="1"/>
        <pt x="383" y="45" on="0"/>
        <pt x="289" y="-25" on="0"/>
        <pt x="176" y="-25" on="0"/>
        <pt x="97" y="24" on="0"/>
        <pt x="50" y="98" on="0"/>
        <pt x="35" y="146" on="1"/>
        <pt x="10" y="227" on="0"/>
        <pt x="10" y="384" on="0"/>
        <pt x="32" y="516" on="0"/>
        <pt x="80" y="656" on="0"/>
        <pt x="178" y="746" on="0"/>
      </contour>
      <contour>
        <pt x="256" y="624" on="1"/>
        <pt x="225" y="624" on="0"/>
        <pt x="172" y="518" on="0"/>
        <pt x="145" y="380" on="0"/>
        <pt x="145" y="258" on="0"/>
        <pt x="180" y="192" on="0"/>
        <pt x="208" y="192" on="1"/>
        <pt x="251" y="192" on="0"/>
        <pt x="314" y="342" on="0"/>
        <pt x="314" y="624" on="0"/>
      </contour>
      <contour>
        <pt x="290" y="903" on="0"/>
        <pt x="322" y="863" on="0"/>
        <pt x="322" y="834" on="0"/>
        <pt x="306" y="829" on="1"/>
        <pt x="276" y="820" on="0"/>
        <pt x="224" y="788" on="1"/>
        <pt x="207" y="777" on="1"/>
        <pt x="198" y="773" on="0"/>
        <pt x="192" y="773" on="1"/>
        <pt x="181" y="773" on="0"/>
        <pt x="181" y="807" on="0"/>
        <pt x="250" y="903" on="0"/>
        <pt x="274" y="903" on="1"/>
      </contour>
    </TTGlyph>
    <TTGlyph name="Ocircumflex" xMin="10" yMin="-25" xMax="459" yMax="887">
      <contour>
        <pt x="245" y="746" on="1"/>
        <pt x="294" y="746" on="0"/>
        <pt x="338" y="715" on="1"/>
        <pt x="459" y="630" on="0"/>
        <pt x="459" y="341" on="1"/>
        <pt x="459" y="215" on="0"/>
        <pt x="408" y="102" on="1"/>
        <pt x="383" y="45" on="0"/>
        <pt x="289" y="-25" on="0"/>
        <pt x="176" y="-25" on="0"/>
        <pt x="97" y="24" on="0"/>
        <pt x="50" y="98" on="0"/>
        <pt x="35" y="146" on="1"/>
        <pt x="10" y="227" on="0"/>
        <pt x="10" y="384" on="0"/>
        <pt x="32" y="516" on="0"/>
        <pt x="80" y="656" on="0"/>
        <pt x="178" y="746" on="0"/>
      </contour>
      <contour>
        <pt x="256" y="624" on="1"/>
        <pt x="225" y="624" on="0"/>
        <pt x="172" y="518" on="0"/>
        <pt x="145" y="380" on="0"/>
        <pt x="145" y="258" on="0"/>
        <pt x="180" y="192" on="0"/>
        <pt x="208" y="192" on="1"/>
        <pt x="251" y="192" on="0"/>
        <pt x="314" y="342" on="0"/>
        <pt x="314" y="624" on="0"/>
      </contour>
      <contour>
        <pt x="330" y="761" on="1"/>
        <pt x="252" y="812" on="0"/>
        <pt x="233" y="812" on="1"/>
        <pt x="227" y="812" on="0"/>
        <pt x="130" y="756" on="0"/>
        <pt x="124" y="756" on="1"/>
        <pt x="113" y="756" on="0"/>
        <pt x="113" y="781" on="0"/>
        <pt x="131" y="812" on="0"/>
        <pt x="147" y="840" on="0"/>
        <pt x="188" y="887" on="0"/>
        <pt x="203" y="887" on="1"/>
        <pt x="204" y="887" on="0"/>
        <pt x="204" y="887" on="1"/>
        <pt x="217" y="887" on="0"/>
        <pt x="231" y="871" on="1"/>
        <pt x="233" y="869" on="0"/>
        <pt x="236" y="869" on="0"/>
        <pt x="240" y="874" on="1"/>
        <pt x="252" y="887" on="0"/>
        <pt x="262" y="887" on="1"/>
        <pt x="266" y="887" on="1"/>
        <pt x="281" y="887" on="0"/>
        <pt x="319" y="845" on="0"/>
        <pt x="331" y="824" on="1"/>
        <pt x="343" y="803" on="1"/>
        <pt x="356" y="781" on="0"/>
        <pt x="356" y="756" on="0"/>
        <pt x="345" y="756" on="1"/>
        <pt x="338" y="756" on="0"/>
      </contour>
    </TTGlyph>
    <TTGlyph name="Odieresis" xMin="10" yMin="-25" xMax="459" yMax="876">
      <contour>
        <pt x="245" y="746" on="1"/>
        <pt x="294" y="746" on="0"/>
        <pt x="338" y="715" on="1"/>
        <pt x="459" y="630" on="0"/>
        <pt x="459" y="341" on="1"/>
        <pt x="459" y="215" on="0"/>
        <pt x="408" y="102" on="1"/>
        <pt x="383" y="45" on="0"/>
        <pt x="289" y="-25" on="0"/>
        <pt x="176" y="-25" on="0"/>
        <pt x="97" y="24" on="0"/>
        <pt x="50" y="98" on="0"/>
        <pt x="35" y="146" on="1"/>
        <pt x="10" y="227" on="0"/>
        <pt x="10" y="384" on="0"/>
        <pt x="32" y="516" on="0"/>
        <pt x="80" y="656" on="0"/>
        <pt x="178" y="746" on="0"/>
      </contour>
      <contour>
        <pt x="256" y="624" on="1"/>
        <pt x="225" y="624" on="0"/>
        <pt x="172" y="518" on="0"/>
        <pt x="145" y="380" on="0"/>
        <pt x="145" y="258" on="0"/>
        <pt x="180" y="192" on="0"/>
        <pt x="208" y="192" on="1"/>
        <pt x="251" y="192" on="0"/>
        <pt x="314" y="342" on="0"/>
        <pt x="314" y="624" on="0"/>
      </contour>
      <contour>
        <pt x="365" y="876" on="0"/>
        <pt x="391" y="854" on="0"/>
        <pt x="391" y="809" on="0"/>
        <pt x="344" y="770" on="0"/>
        <pt x="299" y="770" on="0"/>
        <pt x="272" y="793" on="0"/>
        <pt x="272" y="837" on="0"/>
        <pt x="320" y="876" on="0"/>
      </contour>
      <contour>
        <pt x="184" y="876" on="0"/>
        <pt x="210" y="854" on="0"/>
        <pt x="210" y="809" on="0"/>
        <pt x="163" y="770" on="0"/>
        <pt x="118" y="770" on="0"/>
        <pt x="91" y="793" on="0"/>
        <pt x="91" y="837" on="0"/>
        <pt x="139" y="876" on="0"/>
      </contour>
    </TTGlyph>
    <TTGlyph name="Ograve" xMin="10" yMin="-25" xMax="459" yMax="903">
      <contour>
        <pt x="245" y="746" on="1"/>
        <pt x="294" y="746" on="0"/>
        <pt x="338" y="715" on="1"/>
        <pt x="459" y="630" on="0"/>
        <pt x="459" y="341" on="1"/>
        <pt x="459" y="215" on="0"/>
        <pt x="408" y="102" on="1"/>
        <pt x="383" y="45" on="0"/>
        <pt x="289" y="-25" on="0"/>
        <pt x="176" y="-25" on="0"/>
        <pt x="97" y="24" on="0"/>
        <pt x="50" y="98" on="0"/>
        <pt x="35" y="146" on="1"/>
        <pt x="10" y="227" on="0"/>
        <pt x="10" y="384" on="0"/>
        <pt x="32" y="516" on="0"/>
        <pt x="80" y="656" on="0"/>
        <pt x="178" y="746" on="0"/>
      </contour>
      <contour>
        <pt x="256" y="624" on="1"/>
        <pt x="225" y="624" on="0"/>
        <pt x="172" y="518" on="0"/>
        <pt x="145" y="380" on="0"/>
        <pt x="145" y="258" on="0"/>
        <pt x="180" y="192" on="0"/>
        <pt x="208" y="192" on="1"/>
        <pt x="251" y="192" on="0"/>
        <pt x="314" y="342" on="0"/>
        <pt x="314" y="624" on="0"/>
      </contour>
      <contour>
        <pt x="183" y="828" on="1"/>
        <pt x="166" y="834" on="0"/>
        <pt x="164" y="847" on="1"/>
        <pt x="164" y="865" on="0"/>
        <pt x="197" y="903" on="0"/>
        <pt x="228" y="903" on="0"/>
        <pt x="248" y="881" on="1"/>
        <pt x="276" y="850" on="0"/>
        <pt x="291" y="820" on="1"/>
        <pt x="305" y="797" on="0"/>
        <pt x="305" y="773" on="0"/>
        <pt x="294" y="773" on="1"/>
        <pt x="287" y="773" on="0"/>
        <pt x="279" y="777" on="1"/>
        <pt x="214" y="818" on="0"/>
      </contour>
    </TTGlyph>
    <TTGlyph name="Oslash" xMin="-37" yMin="-25" xMax="469" yMax="750">
      <contour>
        <pt x="43" y="1" on="1"/>
        <pt x="32" y="-24" on="0"/>
        <pt x="-37" y="-24" on="0"/>
        <pt x="-37" y="-5" on="1"/>
        <pt x="-37" y="4" on="0"/>
        <pt x="-30" y="13" on="1"/>
        <pt x="40" y="132" on="1"/>
        <pt x="10" y="215" on="0"/>
        <pt x="10" y="322" on="1"/>
        <pt x="10" y="452" on="0"/>
        <pt x="56" y="586" on="1"/>
        <pt x="80" y="656" on="0"/>
        <pt x="178" y="746" on="0"/>
        <pt x="313" y="746" on="0"/>
        <pt x="367" y="689" on="1"/>
        <pt x="393" y="733" on="1"/>
        <pt x="402" y="750" on="0"/>
        <pt x="469" y="750" on="0"/>
        <pt x="469" y="732" on="1"/>
        <pt x="469" y="727" on="0"/>
        <pt x="466" y="721" on="1"/>
        <pt x="410" y="625" on="1"/>
        <pt x="459" y="521" on="0"/>
        <pt x="459" y="341" on="1"/>
        <pt x="459" y="215" on="0"/>
        <pt x="408" y="102" on="1"/>
        <pt x="383" y="45" on="0"/>
        <pt x="289" y="-25" on="0"/>
        <pt x="227" y="-25" on="1"/>
        <pt x="132" y="-25" on="0"/>
        <pt x="76" y="57" on="1"/>
      </contour>
      <contour>
        <pt x="301" y="577" on="1"/>
        <pt x="286" y="624" on="0"/>
        <pt x="225" y="624" on="0"/>
        <pt x="172" y="518" on="0"/>
        <pt x="145" y="380" on="0"/>
        <pt x="145" y="320" on="1"/>
        <pt x="145" y="311" on="1"/>
      </contour>
      <contour>
        <pt x="208" y="192" on="1"/>
        <pt x="250" y="192" on="0"/>
        <pt x="313" y="335" on="0"/>
        <pt x="314" y="462" on="1"/>
        <pt x="168" y="215" on="1"/>
        <pt x="184" y="192" on="0"/>
      </contour>
    </TTGlyph>
    <TTGlyph name="Otilde" xMin="10" yMin="-25" xMax="459" yMax="871">
      <contour>
        <pt x="381" y="768" on="1"/>
        <pt x="362" y="752" on="0"/>
        <pt x="324" y="752" on="0"/>
        <pt x="248" y="784" on="0"/>
        <pt x="192" y="784" on="0"/>
        <pt x="159" y="773" on="0"/>
        <pt x="152" y="773" on="1"/>
        <pt x="135" y="773" on="0"/>
        <pt x="135" y="813" on="0"/>
        <pt x="202" y="865" on="0"/>
        <pt x="246" y="865" on="1"/>
        <pt x="264" y="865" on="0"/>
        <pt x="327" y="851" on="0"/>
        <pt x="373" y="851" on="0"/>
        <pt x="394" y="866" on="1"/>
        <pt x="403" y="871" on="0"/>
        <pt x="413" y="871" on="1"/>
        <pt x="429" y="871" on="0"/>
        <pt x="429" y="854" on="1"/>
        <pt x="429" y="809" on="0"/>
      </contour>
      <contour>
        <pt x="245" y="746" on="1"/>
        <pt x="294" y="746" on="0"/>
        <pt x="338" y="715" on="1"/>
        <pt x="459" y="630" on="0"/>
        <pt x="459" y="341" on="1"/>
        <pt x="459" y="215" on="0"/>
        <pt x="408" y="102" on="1"/>
        <pt x="383" y="45" on="0"/>
        <pt x="289" y="-25" on="0"/>
        <pt x="176" y="-25" on="0"/>
        <pt x="97" y="24" on="0"/>
        <pt x="50" y="98" on="0"/>
        <pt x="35" y="146" on="1"/>
        <pt x="10" y="227" on="0"/>
        <pt x="10" y="384" on="0"/>
        <pt x="32" y="516" on="0"/>
        <pt x="80" y="656" on="0"/>
        <pt x="178" y="746" on="0"/>
      </contour>
      <contour>
        <pt x="256" y="624" on="1"/>
        <pt x="225" y="624" on="0"/>
        <pt x="172" y="518" on="0"/>
        <pt x="145" y="380" on="0"/>
        <pt x="145" y="258" on="0"/>
        <pt x="180" y="192" on="0"/>
        <pt x="208" y="192" on="1"/>
        <pt x="251" y="192" on="0"/>
        <pt x="314" y="342" on="0"/>
        <pt x="314" y="624" on="0"/>
      </contour>
    </TTGlyph>
    <TTGlyph name="P" xMin="1" yMin="-30" xMax="444" yMax="750">
      <contour>
        <pt x="205" y="275" on="1"/>
        <pt x="192" y="268" on="0"/>
        <pt x="177" y="243" on="0"/>
        <pt x="175" y="225" on="1"/>
        <pt x="177" y="109" on="0"/>
        <pt x="187" y="62" on="0"/>
        <pt x="187" y="54" on="1"/>
        <pt x="187" y="18" on="0"/>
        <pt x="88" y="-30" on="0"/>
        <pt x="13" y="-30" on="0"/>
        <pt x="13" y="6" on="1"/>
        <pt x="15" y="22" on="1"/>
        <pt x="39" y="200" on="0"/>
        <pt x="39" y="391" on="1"/>
        <pt x="34" y="553" on="1"/>
        <pt x="34" y="579" on="0"/>
        <pt x="1" y="629" on="0"/>
        <pt x="1" y="647" on="1"/>
        <pt x="1" y="679" on="0"/>
        <pt x="86" y="729" on="0"/>
        <pt x="185" y="750" on="0"/>
        <pt x="240" y="750" on="0"/>
        <pt x="278" y="746" on="0"/>
        <pt x="349" y="726" on="0"/>
        <pt x="403" y="692" on="0"/>
        <pt x="444" y="620" on="0"/>
        <pt x="444" y="507" on="0"/>
        <pt x="395" y="398" on="0"/>
        <pt x="360" y="366" on="1"/>
        <pt x="289" y="302" on="0"/>
        <pt x="230" y="283" on="1"/>
      </contour>
      <contour>
        <pt x="276" y="504" on="0"/>
        <pt x="282" y="553" on="0"/>
        <pt x="282" y="590" on="0"/>
        <pt x="273" y="625" on="0"/>
        <pt x="261" y="642" on="0"/>
        <pt x="253" y="647" on="1"/>
        <pt x="242" y="654" on="0"/>
        <pt x="232" y="654" on="1"/>
        <pt x="209" y="654" on="0"/>
        <pt x="181" y="610" on="0"/>
        <pt x="181" y="586" on="1"/>
        <pt x="173" y="535" on="0"/>
        <pt x="173" y="413" on="0"/>
        <pt x="174" y="403" on="1"/>
        <pt x="174" y="386" on="0"/>
        <pt x="188" y="386" on="1"/>
        <pt x="197" y="386" on="0"/>
        <pt x="209" y="394" on="1"/>
        <pt x="240" y="414" on="0"/>
      </contour>
    </TTGlyph>
    <TTGlyph name="Q" xMin="10" yMin="-61" xMax="459" yMax="746">
      <contour>
        <pt x="245" y="746" on="1"/>
        <pt x="294" y="746" on="0"/>
        <pt x="338" y="715" on="1"/>
        <pt x="459" y="630" on="0"/>
        <pt x="459" y="341" on="1"/>
        <pt x="459" y="175" on="0"/>
        <pt x="391" y="70" on="1"/>
        <pt x="407" y="54" on="0"/>
        <pt x="423" y="53" on="1"/>
        <pt x="452" y="49" on="0"/>
        <pt x="452" y="28" on="1"/>
        <pt x="452" y="-8" on="0"/>
        <pt x="367" y="-61" on="0"/>
        <pt x="331" y="-61" on="1"/>
        <pt x="314" y="-61" on="0"/>
        <pt x="303" y="-54" on="0"/>
        <pt x="300" y="-53" on="0"/>
        <pt x="284" y="-35" on="0"/>
        <pt x="275" y="-19" on="1"/>
        <pt x="252" y="-25" on="0"/>
        <pt x="227" y="-25" on="1"/>
        <pt x="176" y="-25" on="0"/>
        <pt x="97" y="24" on="0"/>
        <pt x="50" y="98" on="0"/>
        <pt x="35" y="146" on="1"/>
        <pt x="10" y="227" on="0"/>
        <pt x="10" y="384" on="0"/>
        <pt x="32" y="516" on="0"/>
        <pt x="80" y="656" on="0"/>
        <pt x="178" y="746" on="0"/>
      </contour>
      <contour>
        <pt x="256" y="624" on="1"/>
        <pt x="225" y="624" on="0"/>
        <pt x="172" y="518" on="0"/>
        <pt x="145" y="380" on="0"/>
        <pt x="145" y="320" on="1"/>
        <pt x="145" y="179" on="0"/>
        <pt x="206" y="179" on="1"/>
        <pt x="218" y="179" on="0"/>
        <pt x="226" y="183" on="1"/>
        <pt x="226" y="200" on="1"/>
        <pt x="226" y="230" on="0"/>
        <pt x="231" y="253" on="1"/>
        <pt x="250" y="320" on="0"/>
        <pt x="291" y="320" on="1"/>
        <pt x="297" y="320" on="0"/>
        <pt x="300" y="319" on="1"/>
        <pt x="314" y="394" on="0"/>
        <pt x="314" y="473" on="1"/>
        <pt x="314" y="624" on="0"/>
      </contour>
    </TTGlyph>
    <TTGlyph name="R" xMin="1" yMin="-31" xMax="478" yMax="752">
      <contour>
        <pt x="215" y="449" on="1"/>
        <pt x="284" y="493" on="0"/>
        <pt x="284" y="577" on="1"/>
        <pt x="284" y="606" on="0"/>
        <pt x="258" y="650" on="0"/>
        <pt x="229" y="650" on="1"/>
        <pt x="173" y="650" on="0"/>
        <pt x="173" y="502" on="1"/>
        <pt x="173" y="488" on="0"/>
        <pt x="175" y="458" on="1"/>
        <pt x="177" y="441" on="0"/>
        <pt x="193" y="441" on="1"/>
        <pt x="203" y="441" on="0"/>
      </contour>
      <contour>
        <pt x="369" y="433" on="1"/>
        <pt x="354" y="422" on="0"/>
        <pt x="354" y="403" on="1"/>
        <pt x="354" y="397" on="0"/>
        <pt x="355" y="394" on="1"/>
        <pt x="374" y="271" on="0"/>
        <pt x="415" y="152" on="1"/>
        <pt x="428" y="114" on="0"/>
        <pt x="478" y="83" on="0"/>
        <pt x="478" y="61" on="1"/>
        <pt x="478" y="27" on="0"/>
        <pt x="389" y="-16" on="0"/>
        <pt x="351" y="-16" on="1"/>
        <pt x="310" y="-16" on="0"/>
        <pt x="294" y="18" on="1"/>
        <pt x="291" y="23" on="0"/>
        <pt x="291" y="24" on="1"/>
        <pt x="263" y="78" on="0"/>
        <pt x="245" y="238" on="1"/>
        <pt x="237" y="310" on="0"/>
        <pt x="235" y="319" on="1"/>
        <pt x="235" y="330" on="0"/>
        <pt x="221" y="330" on="1"/>
        <pt x="193" y="330" on="0"/>
        <pt x="183" y="309" on="1"/>
        <pt x="175" y="288" on="0"/>
        <pt x="175" y="124" on="0"/>
        <pt x="186" y="62" on="0"/>
        <pt x="186" y="54" on="1"/>
        <pt x="186" y="17" on="0"/>
        <pt x="87" y="-31" on="0"/>
        <pt x="44" y="-31" on="1"/>
        <pt x="10" y="-31" on="0"/>
        <pt x="10" y="2" on="1"/>
        <pt x="13" y="22" on="1"/>
        <pt x="38" y="208" on="0"/>
        <pt x="38" y="406" on="1"/>
        <pt x="34" y="553" on="1"/>
        <pt x="34" y="578" on="0"/>
        <pt x="1" y="632" on="0"/>
        <pt x="1" y="647" on="1"/>
        <pt x="1" y="694" on="0"/>
        <pt x="169" y="752" on="0"/>
        <pt x="239" y="752" on="1"/>
        <pt x="287" y="752" on="0"/>
        <pt x="368" y="729" on="0"/>
        <pt x="415" y="697" on="0"/>
        <pt x="449" y="637" on="0"/>
        <pt x="449" y="596" on="1"/>
        <pt x="449" y="497" on="0"/>
      </contour>
    </TTGlyph>
    <TTGlyph name="S" xMin="1" yMin="-25" xMax="392" yMax="741">
      <contour>
        <pt x="356" y="349" on="0"/>
        <pt x="392" y="253" on="0"/>
        <pt x="392" y="146" on="0"/>
        <pt x="365" y="66" on="0"/>
        <pt x="320" y="20" on="0"/>
        <pt x="275" y="-10" on="0"/>
        <pt x="249" y="-16" on="1"/>
        <pt x="210" y="-25" on="0"/>
        <pt x="190" y="-25" on="1"/>
        <pt x="102" y="-25" on="0"/>
        <pt x="1" y="77" on="0"/>
        <pt x="1" y="159" on="1"/>
        <pt x="1" y="205" on="0"/>
        <pt x="46" y="286" on="0"/>
        <pt x="81" y="286" on="1"/>
        <pt x="93" y="286" on="0"/>
        <pt x="108" y="268" on="0"/>
        <pt x="112" y="224" on="0"/>
        <pt x="126" y="183" on="0"/>
        <pt x="142" y="164" on="0"/>
        <pt x="152" y="158" on="1"/>
        <pt x="166" y="151" on="0"/>
        <pt x="176" y="151" on="1"/>
        <pt x="201" y="151" on="0"/>
        <pt x="229" y="186" on="0"/>
        <pt x="229" y="244" on="0"/>
        <pt x="191" y="313" on="0"/>
        <pt x="138" y="376" on="0"/>
        <pt x="111" y="408" on="1"/>
        <pt x="46" y="485" on="0"/>
        <pt x="46" y="554" on="1"/>
        <pt x="46" y="644" on="0"/>
        <pt x="167" y="741" on="0"/>
        <pt x="261" y="741" on="1"/>
        <pt x="313" y="741" on="0"/>
        <pt x="358" y="701" on="0"/>
        <pt x="358" y="600" on="0"/>
        <pt x="329" y="600" on="1"/>
        <pt x="319" y="600" on="0"/>
        <pt x="286" y="615" on="0"/>
        <pt x="244" y="615" on="0"/>
        <pt x="216" y="581" on="0"/>
        <pt x="216" y="530" on="0"/>
        <pt x="252" y="472" on="0"/>
        <pt x="304" y="415" on="0"/>
      </contour>
    </TTGlyph>
    <TTGlyph name="Scaron" xMin="1" yMin="-25" xMax="392" yMax="902">
      <contour>
        <pt x="356" y="349" on="0"/>
        <pt x="392" y="253" on="0"/>
        <pt x="392" y="146" on="0"/>
        <pt x="365" y="66" on="0"/>
        <pt x="320" y="20" on="0"/>
        <pt x="275" y="-10" on="0"/>
        <pt x="249" y="-16" on="1"/>
        <pt x="210" y="-25" on="0"/>
        <pt x="190" y="-25" on="1"/>
        <pt x="102" y="-25" on="0"/>
        <pt x="1" y="77" on="0"/>
        <pt x="1" y="159" on="1"/>
        <pt x="1" y="205" on="0"/>
        <pt x="46" y="286" on="0"/>
        <pt x="81" y="286" on="1"/>
        <pt x="93" y="286" on="0"/>
        <pt x="108" y="268" on="0"/>
        <pt x="112" y="224" on="0"/>
        <pt x="126" y="183" on="0"/>
        <pt x="142" y="164" on="0"/>
        <pt x="152" y="158" on="1"/>
        <pt x="166" y="151" on="0"/>
        <pt x="176" y="151" on="1"/>
        <pt x="201" y="151" on="0"/>
        <pt x="229" y="186" on="0"/>
        <pt x="229" y="244" on="0"/>
        <pt x="191" y="313" on="0"/>
        <pt x="138" y="376" on="0"/>
        <pt x="111" y="408" on="1"/>
        <pt x="46" y="485" on="0"/>
        <pt x="46" y="554" on="1"/>
        <pt x="46" y="644" on="0"/>
        <pt x="167" y="741" on="0"/>
        <pt x="261" y="741" on="1"/>
        <pt x="313" y="741" on="0"/>
        <pt x="358" y="701" on="0"/>
        <pt x="358" y="600" on="0"/>
        <pt x="329" y="600" on="1"/>
        <pt x="319" y="600" on="0"/>
        <pt x="286" y="615" on="0"/>
        <pt x="244" y="615" on="0"/>
        <pt x="216" y="581" on="0"/>
        <pt x="216" y="530" on="0"/>
        <pt x="252" y="472" on="0"/>
        <pt x="304" y="415" on="0"/>
      </contour>
      <contour>
        <pt x="145" y="897" on="1"/>
        <pt x="223" y="846" on="0"/>
        <pt x="242" y="846" on="1"/>
        <pt x="248" y="846" on="0"/>
        <pt x="344" y="902" on="0"/>
        <pt x="351" y="902" on="1"/>
        <pt x="362" y="902" on="0"/>
        <pt x="362" y="877" on="0"/>
        <pt x="344" y="846" on="0"/>
        <pt x="328" y="818" on="0"/>
        <pt x="287" y="771" on="0"/>
        <pt x="272" y="771" on="1"/>
        <pt x="271" y="771" on="0"/>
        <pt x="271" y="771" on="1"/>
        <pt x="258" y="771" on="0"/>
        <pt x="244" y="787" on="1"/>
        <pt x="242" y="789" on="0"/>
        <pt x="239" y="789" on="0"/>
        <pt x="234" y="784" on="1"/>
        <pt x="223" y="771" on="0"/>
        <pt x="212" y="771" on="1"/>
        <pt x="209" y="771" on="1"/>
        <pt x="194" y="771" on="0"/>
        <pt x="156" y="813" on="0"/>
        <pt x="144" y="834" on="1"/>
        <pt x="132" y="855" on="1"/>
        <pt x="119" y="877" on="0"/>
        <pt x="119" y="902" on="0"/>
        <pt x="130" y="902" on="1"/>
        <pt x="138" y="902" on="0"/>
      </contour>
    </TTGlyph>
    <TTGlyph name="T" xMin="-55" yMin="-27" xMax="302" yMax="743">
      <contour>
        <pt x="89" y="732" on="1"/>
        <pt x="184" y="727" on="1"/>
        <pt x="232" y="727" on="0"/>
        <pt x="254" y="738" on="1"/>
        <pt x="267" y="743" on="0"/>
        <pt x="279" y="743" on="1"/>
        <pt x="302" y="743" on="0"/>
        <pt x="302" y="710" on="1"/>
        <pt x="302" y="684" on="0"/>
        <pt x="290" y="650" on="1"/>
        <pt x="287" y="639" on="1"/>
        <pt x="268" y="580" on="0"/>
        <pt x="202" y="580" on="1"/>
        <pt x="188" y="580" on="0"/>
        <pt x="188" y="564" on="1"/>
        <pt x="185" y="475" on="0"/>
        <pt x="185" y="164" on="0"/>
        <pt x="198" y="71" on="1"/>
        <pt x="200" y="65" on="0"/>
        <pt x="200" y="57" on="1"/>
        <pt x="200" y="33" on="0"/>
        <pt x="177" y="15" on="1"/>
        <pt x="125" y="-27" on="0"/>
        <pt x="52" y="-27" on="1"/>
        <pt x="17" y="-27" on="0"/>
        <pt x="17" y="6" on="1"/>
        <pt x="20" y="25" on="1"/>
        <pt x="53" y="280" on="0"/>
        <pt x="53" y="562" on="1"/>
        <pt x="53" y="569" on="0"/>
        <pt x="47" y="575" on="0"/>
        <pt x="13" y="575" on="0"/>
        <pt x="-24" y="553" on="0"/>
        <pt x="-34" y="553" on="1"/>
        <pt x="-55" y="553" on="0"/>
        <pt x="-55" y="612" on="0"/>
        <pt x="-26" y="692" on="0"/>
        <pt x="25" y="732" on="0"/>
      </contour>
    </TTGlyph>
    <TTGlyph name="Thorn" xMin="-3" yMin="-30" xMax="427" yMax="734">
      <contour>
        <pt x="174" y="149" on="1"/>
        <pt x="180" y="92" on="0"/>
        <pt x="187" y="62" on="0"/>
        <pt x="187" y="54" on="1"/>
        <pt x="187" y="18" on="0"/>
        <pt x="88" y="-30" on="0"/>
        <pt x="13" y="-30" on="0"/>
        <pt x="13" y="6" on="1"/>
        <pt x="15" y="22" on="1"/>
        <pt x="39" y="200" on="0"/>
        <pt x="39" y="391" on="1"/>
        <pt x="39" y="485" on="0"/>
        <pt x="34" y="528" on="1"/>
        <pt x="32" y="546" on="1"/>
        <pt x="30" y="582" on="0"/>
        <pt x="8" y="610" on="1"/>
        <pt x="-3" y="621" on="0"/>
        <pt x="-3" y="637" on="1"/>
        <pt x="-3" y="673" on="0"/>
        <pt x="108" y="734" on="0"/>
        <pt x="173" y="734" on="0"/>
        <pt x="175" y="701" on="1"/>
        <pt x="176" y="689" on="0"/>
        <pt x="176" y="643" on="0"/>
        <pt x="175" y="628" on="1"/>
        <pt x="184" y="629" on="0"/>
        <pt x="244" y="629" on="0"/>
        <pt x="315" y="613" on="0"/>
        <pt x="385" y="575" on="0"/>
        <pt x="427" y="500" on="0"/>
        <pt x="427" y="391" on="0"/>
        <pt x="383" y="291" on="0"/>
        <pt x="324" y="229" on="0"/>
        <pt x="284" y="204" on="1"/>
        <pt x="223" y="164" on="0"/>
      </contour>
      <contour>
        <pt x="171" y="262" on="1"/>
        <pt x="180" y="262" on="0"/>
        <pt x="192" y="270" on="1"/>
        <pt x="223" y="290" on="0"/>
        <pt x="241" y="335" on="1"/>
        <pt x="265" y="395" on="0"/>
        <pt x="265" y="466" on="0"/>
        <pt x="256" y="501" on="0"/>
        <pt x="244" y="518" on="0"/>
        <pt x="236" y="523" on="1"/>
        <pt x="225" y="530" on="0"/>
        <pt x="215" y="530" on="1"/>
        <pt x="184" y="530" on="0"/>
        <pt x="169" y="491" on="1"/>
        <pt x="169" y="346" on="0"/>
      </contour>
    </TTGlyph>
    <TTGlyph name="U" xMin="1" yMin="-21" xMax="453" yMax="742">
      <contour>
        <pt x="176" y="502" on="1"/>
        <pt x="171" y="372" on="1"/>
        <pt x="171" y="228" on="0"/>
        <pt x="221" y="228" on="1"/>
        <pt x="247" y="228" on="0"/>
        <pt x="261" y="252" on="1"/>
        <pt x="278" y="282" on="0"/>
        <pt x="285" y="335" on="0"/>
        <pt x="289" y="369" on="0"/>
        <pt x="291" y="422" on="0"/>
        <pt x="291" y="439" on="1"/>
        <pt x="291" y="483" on="1"/>
        <pt x="291" y="572" on="0"/>
        <pt x="281" y="618" on="1"/>
        <pt x="277" y="627" on="0"/>
        <pt x="277" y="641" on="1"/>
        <pt x="277" y="681" on="0"/>
        <pt x="377" y="742" on="0"/>
        <pt x="453" y="742" on="0"/>
        <pt x="453" y="710" on="1"/>
        <pt x="453" y="702" on="0"/>
        <pt x="439" y="632" on="0"/>
        <pt x="427" y="508" on="0"/>
        <pt x="425" y="419" on="0"/>
        <pt x="424" y="290" on="0"/>
        <pt x="421" y="179" on="0"/>
        <pt x="386" y="75" on="0"/>
        <pt x="338" y="20" on="0"/>
        <pt x="306" y="4" on="1"/>
        <pt x="258" y="-21" on="0"/>
        <pt x="143" y="-21" on="0"/>
        <pt x="58" y="50" on="0"/>
        <pt x="27" y="149" on="0"/>
        <pt x="27" y="210" on="1"/>
        <pt x="32" y="445" on="1"/>
        <pt x="32" y="496" on="1"/>
        <pt x="31" y="551" on="1"/>
        <pt x="31" y="591" on="0"/>
        <pt x="13" y="615" on="1"/>
        <pt x="1" y="627" on="0"/>
        <pt x="1" y="643" on="1"/>
        <pt x="1" y="682" on="0"/>
        <pt x="117" y="742" on="0"/>
        <pt x="195" y="742" on="0"/>
        <pt x="195" y="714" on="1"/>
        <pt x="195" y="712" on="0"/>
        <pt x="191" y="676" on="1"/>
        <pt x="177" y="554" on="0"/>
      </contour>
    </TTGlyph>
    <TTGlyph name="Uacute" xMin="1" yMin="-21" xMax="453" yMax="910">
      <contour>
        <pt x="176" y="502" on="1"/>
        <pt x="171" y="372" on="1"/>
        <pt x="171" y="228" on="0"/>
        <pt x="221" y="228" on="1"/>
        <pt x="247" y="228" on="0"/>
        <pt x="261" y="252" on="1"/>
        <pt x="278" y="282" on="0"/>
        <pt x="285" y="335" on="0"/>
        <pt x="289" y="369" on="0"/>
        <pt x="291" y="422" on="0"/>
        <pt x="291" y="439" on="1"/>
        <pt x="291" y="483" on="1"/>
        <pt x="291" y="572" on="0"/>
        <pt x="281" y="618" on="1"/>
        <pt x="277" y="627" on="0"/>
        <pt x="277" y="641" on="1"/>
        <pt x="277" y="681" on="0"/>
        <pt x="377" y="742" on="0"/>
        <pt x="453" y="742" on="0"/>
        <pt x="453" y="710" on="1"/>
        <pt x="453" y="702" on="0"/>
        <pt x="439" y="632" on="0"/>
        <pt x="427" y="508" on="0"/>
        <pt x="425" y="419" on="0"/>
        <pt x="424" y="290" on="0"/>
        <pt x="421" y="179" on="0"/>
        <pt x="386" y="75" on="0"/>
        <pt x="338" y="20" on="0"/>
        <pt x="306" y="4" on="1"/>
        <pt x="258" y="-21" on="0"/>
        <pt x="143" y="-21" on="0"/>
        <pt x="58" y="50" on="0"/>
        <pt x="27" y="149" on="0"/>
        <pt x="27" y="210" on="1"/>
        <pt x="32" y="445" on="1"/>
        <pt x="32" y="496" on="1"/>
        <pt x="31" y="551" on="1"/>
        <pt x="31" y="591" on="0"/>
        <pt x="13" y="615" on="1"/>
        <pt x="1" y="627" on="0"/>
        <pt x="1" y="643" on="1"/>
        <pt x="1" y="682" on="0"/>
        <pt x="117" y="742" on="0"/>
        <pt x="195" y="742" on="0"/>
        <pt x="195" y="714" on="1"/>
        <pt x="195" y="712" on="0"/>
        <pt x="191" y="676" on="1"/>
        <pt x="177" y="554" on="0"/>
      </contour>
      <contour>
        <pt x="291" y="910" on="0"/>
        <pt x="323" y="870" on="0"/>
        <pt x="323" y="841" on="0"/>
        <pt x="307" y="836" on="1"/>
        <pt x="277" y="827" on="0"/>
        <pt x="225" y="794" on="1"/>
        <pt x="208" y="784" on="1"/>
        <pt x="199" y="780" on="0"/>
        <pt x="193" y="780" on="1"/>
        <pt x="182" y="780" on="0"/>
        <pt x="182" y="814" on="0"/>
        <pt x="251" y="910" on="0"/>
        <pt x="275" y="910" on="1"/>
      </contour>
    </TTGlyph>
    <TTGlyph name="Ucircumflex" xMin="1" yMin="-21" xMax="453" yMax="900">
      <contour>
        <pt x="176" y="502" on="1"/>
        <pt x="171" y="372" on="1"/>
        <pt x="171" y="228" on="0"/>
        <pt x="221" y="228" on="1"/>
        <pt x="247" y="228" on="0"/>
        <pt x="261" y="252" on="1"/>
        <pt x="278" y="282" on="0"/>
        <pt x="285" y="335" on="0"/>
        <pt x="289" y="369" on="0"/>
        <pt x="291" y="422" on="0"/>
        <pt x="291" y="439" on="1"/>
        <pt x="291" y="483" on="1"/>
        <pt x="291" y="572" on="0"/>
        <pt x="281" y="618" on="1"/>
        <pt x="277" y="627" on="0"/>
        <pt x="277" y="641" on="1"/>
        <pt x="277" y="681" on="0"/>
        <pt x="377" y="742" on="0"/>
        <pt x="453" y="742" on="0"/>
        <pt x="453" y="710" on="1"/>
        <pt x="453" y="702" on="0"/>
        <pt x="439" y="632" on="0"/>
        <pt x="427" y="508" on="0"/>
        <pt x="425" y="419" on="0"/>
        <pt x="424" y="290" on="0"/>
        <pt x="421" y="179" on="0"/>
        <pt x="386" y="75" on="0"/>
        <pt x="338" y="20" on="0"/>
        <pt x="306" y="4" on="1"/>
        <pt x="258" y="-21" on="0"/>
        <pt x="143" y="-21" on="0"/>
        <pt x="58" y="50" on="0"/>
        <pt x="27" y="149" on="0"/>
        <pt x="27" y="210" on="1"/>
        <pt x="32" y="445" on="1"/>
        <pt x="32" y="496" on="1"/>
        <pt x="31" y="551" on="1"/>
        <pt x="31" y="591" on="0"/>
        <pt x="13" y="615" on="1"/>
        <pt x="1" y="627" on="0"/>
        <pt x="1" y="643" on="1"/>
        <pt x="1" y="682" on="0"/>
        <pt x="117" y="742" on="0"/>
        <pt x="195" y="742" on="0"/>
        <pt x="195" y="714" on="1"/>
        <pt x="195" y="712" on="0"/>
        <pt x="191" y="676" on="1"/>
        <pt x="177" y="554" on="0"/>
      </contour>
      <contour>
        <pt x="335" y="774" on="1"/>
        <pt x="257" y="825" on="0"/>
        <pt x="238" y="825" on="1"/>
        <pt x="232" y="825" on="0"/>
        <pt x="136" y="769" on="0"/>
        <pt x="129" y="769" on="1"/>
        <pt x="118" y="769" on="0"/>
        <pt x="118" y="794" on="0"/>
        <pt x="136" y="825" on="0"/>
        <pt x="152" y="853" on="0"/>
        <pt x="193" y="900" on="0"/>
        <pt x="208" y="900" on="1"/>
        <pt x="209" y="900" on="0"/>
        <pt x="209" y="900" on="1"/>
        <pt x="222" y="900" on="0"/>
        <pt x="236" y="884" on="1"/>
        <pt x="238" y="882" on="0"/>
        <pt x="241" y="882" on="0"/>
        <pt x="246" y="887" on="1"/>
        <pt x="257" y="900" on="0"/>
        <pt x="268" y="900" on="1"/>
        <pt x="271" y="900" on="1"/>
        <pt x="286" y="900" on="0"/>
        <pt x="324" y="858" on="0"/>
        <pt x="336" y="837" on="1"/>
        <pt x="348" y="816" on="1"/>
        <pt x="361" y="794" on="0"/>
        <pt x="361" y="769" on="0"/>
        <pt x="350" y="769" on="1"/>
        <pt x="342" y="769" on="0"/>
      </contour>
    </TTGlyph>
    <TTGlyph name="Udieresis" xMin="1" yMin="-21" xMax="453" yMax="881">
      <contour>
        <pt x="176" y="502" on="1"/>
        <pt x="171" y="372" on="1"/>
        <pt x="171" y="228" on="0"/>
        <pt x="221" y="228" on="1"/>
        <pt x="247" y="228" on="0"/>
        <pt x="261" y="252" on="1"/>
        <pt x="278" y="282" on="0"/>
        <pt x="285" y="335" on="0"/>
        <pt x="289" y="369" on="0"/>
        <pt x="291" y="422" on="0"/>
        <pt x="291" y="439" on="1"/>
        <pt x="291" y="483" on="1"/>
        <pt x="291" y="572" on="0"/>
        <pt x="281" y="618" on="1"/>
        <pt x="277" y="627" on="0"/>
        <pt x="277" y="641" on="1"/>
        <pt x="277" y="681" on="0"/>
        <pt x="377" y="742" on="0"/>
        <pt x="453" y="742" on="0"/>
        <pt x="453" y="710" on="1"/>
        <pt x="453" y="702" on="0"/>
        <pt x="439" y="632" on="0"/>
        <pt x="427" y="508" on="0"/>
        <pt x="425" y="419" on="0"/>
        <pt x="424" y="290" on="0"/>
        <pt x="421" y="179" on="0"/>
        <pt x="386" y="75" on="0"/>
        <pt x="338" y="20" on="0"/>
        <pt x="306" y="4" on="1"/>
        <pt x="258" y="-21" on="0"/>
        <pt x="143" y="-21" on="0"/>
        <pt x="58" y="50" on="0"/>
        <pt x="27" y="149" on="0"/>
        <pt x="27" y="210" on="1"/>
        <pt x="32" y="445" on="1"/>
        <pt x="32" y="496" on="1"/>
        <pt x="31" y="551" on="1"/>
        <pt x="31" y="591" on="0"/>
        <pt x="13" y="615" on="1"/>
        <pt x="1" y="627" on="0"/>
        <pt x="1" y="643" on="1"/>
        <pt x="1" y="682" on="0"/>
        <pt x="117" y="742" on="0"/>
        <pt x="195" y="742" on="0"/>
        <pt x="195" y="714" on="1"/>
        <pt x="195" y="712" on="0"/>
        <pt x="191" y="676" on="1"/>
        <pt x="177" y="554" on="0"/>
      </contour>
      <contour>
        <pt x="357" y="881" on="0"/>
        <pt x="383" y="859" on="0"/>
        <pt x="383" y="814" on="0"/>
        <pt x="336" y="775" on="0"/>
        <pt x="291" y="775" on="0"/>
        <pt x="264" y="798" on="0"/>
        <pt x="264" y="842" on="0"/>
        <pt x="312" y="881" on="0"/>
      </contour>
      <contour>
        <pt x="176" y="881" on="0"/>
        <pt x="202" y="859" on="0"/>
        <pt x="202" y="814" on="0"/>
        <pt x="155" y="775" on="0"/>
        <pt x="110" y="775" on="0"/>
        <pt x="83" y="798" on="0"/>
        <pt x="83" y="842" on="0"/>
        <pt x="131" y="881" on="0"/>
      </contour>
    </TTGlyph>
    <TTGlyph name="Ugrave" xMin="1" yMin="-21" xMax="453" yMax="888">
      <contour>
        <pt x="176" y="502" on="1"/>
        <pt x="171" y="372" on="1"/>
        <pt x="171" y="228" on="0"/>
        <pt x="221" y="228" on="1"/>
        <pt x="247" y="228" on="0"/>
        <pt x="261" y="252" on="1"/>
        <pt x="278" y="282" on="0"/>
        <pt x="285" y="335" on="0"/>
        <pt x="289" y="369" on="0"/>
        <pt x="291" y="422" on="0"/>
        <pt x="291" y="439" on="1"/>
        <pt x="291" y="483" on="1"/>
        <pt x="291" y="572" on="0"/>
        <pt x="281" y="618" on="1"/>
        <pt x="277" y="627" on="0"/>
        <pt x="277" y="641" on="1"/>
        <pt x="277" y="681" on="0"/>
        <pt x="377" y="742" on="0"/>
        <pt x="453" y="742" on="0"/>
        <pt x="453" y="710" on="1"/>
        <pt x="453" y="702" on="0"/>
        <pt x="439" y="632" on="0"/>
        <pt x="427" y="508" on="0"/>
        <pt x="425" y="419" on="0"/>
        <pt x="424" y="290" on="0"/>
        <pt x="421" y="179" on="0"/>
        <pt x="386" y="75" on="0"/>
        <pt x="338" y="20" on="0"/>
        <pt x="306" y="4" on="1"/>
        <pt x="258" y="-21" on="0"/>
        <pt x="143" y="-21" on="0"/>
        <pt x="58" y="50" on="0"/>
        <pt x="27" y="149" on="0"/>
        <pt x="27" y="210" on="1"/>
        <pt x="32" y="445" on="1"/>
        <pt x="32" y="496" on="1"/>
        <pt x="31" y="551" on="1"/>
        <pt x="31" y="591" on="0"/>
        <pt x="13" y="615" on="1"/>
        <pt x="1" y="627" on="0"/>
        <pt x="1" y="643" on="1"/>
        <pt x="1" y="682" on="0"/>
        <pt x="117" y="742" on="0"/>
        <pt x="195" y="742" on="0"/>
        <pt x="195" y="714" on="1"/>
        <pt x="195" y="712" on="0"/>
        <pt x="191" y="676" on="1"/>
        <pt x="177" y="554" on="0"/>
      </contour>
      <contour>
        <pt x="170" y="813" on="1"/>
        <pt x="153" y="819" on="0"/>
        <pt x="151" y="832" on="1"/>
        <pt x="151" y="850" on="0"/>
        <pt x="184" y="888" on="0"/>
        <pt x="215" y="888" on="0"/>
        <pt x="235" y="866" on="1"/>
        <pt x="263" y="835" on="0"/>
        <pt x="278" y="805" on="1"/>
        <pt x="292" y="782" on="0"/>
        <pt x="292" y="758" on="0"/>
        <pt x="281" y="758" on="1"/>
        <pt x="274" y="758" on="0"/>
        <pt x="266" y="762" on="1"/>
        <pt x="201" y="803" on="0"/>
      </contour>
    </TTGlyph>
    <TTGlyph name="V" xMin="-63" yMin="-27" xMax="430" yMax="744">
      <contour>
        <pt x="429" y="693" on="1"/>
        <pt x="411" y="560" on="0"/>
        <pt x="317" y="239" on="0"/>
        <pt x="280" y="145" on="1"/>
        <pt x="242" y="51" on="1"/>
        <pt x="208" y="-27" on="0"/>
        <pt x="127" y="-27" on="1"/>
        <pt x="76" y="-27" on="0"/>
        <pt x="73" y="9" on="1"/>
        <pt x="63" y="120" on="0"/>
        <pt x="20" y="390" on="0"/>
        <pt x="4" y="470" on="1"/>
        <pt x="-13" y="549" on="1"/>
        <pt x="-23" y="594" on="0"/>
        <pt x="-63" y="633" on="0"/>
        <pt x="-63" y="649" on="1"/>
        <pt x="-63" y="683" on="0"/>
        <pt x="44" y="744" on="0"/>
        <pt x="123" y="744" on="0"/>
        <pt x="129" y="706" on="1"/>
        <pt x="143" y="640" on="0"/>
        <pt x="155" y="494" on="1"/>
        <pt x="171" y="347" on="0"/>
        <pt x="185" y="292" on="1"/>
        <pt x="189" y="282" on="0"/>
        <pt x="200" y="282" on="0"/>
        <pt x="215" y="309" on="0"/>
        <pt x="237" y="363" on="0"/>
        <pt x="275" y="501" on="0"/>
        <pt x="275" y="614" on="0"/>
        <pt x="251" y="649" on="1"/>
        <pt x="245" y="657" on="0"/>
        <pt x="245" y="669" on="1"/>
        <pt x="245" y="701" on="0"/>
        <pt x="342" y="744" on="0"/>
        <pt x="381" y="744" on="1"/>
        <pt x="430" y="744" on="0"/>
        <pt x="430" y="704" on="1"/>
        <pt x="430" y="697" on="0"/>
      </contour>
    </TTGlyph>
    <TTGlyph name="W" xMin="-74" yMin="-27" xMax="706" yMax="745">
      <contour>
        <pt x="356" y="9" on="1"/>
        <pt x="331" y="303" on="0"/>
        <pt x="317" y="303" on="1"/>
        <pt x="312" y="303" on="0"/>
        <pt x="307" y="292" on="1"/>
        <pt x="251" y="109" on="0"/>
        <pt x="225" y="51" on="1"/>
        <pt x="208" y="16" on="0"/>
        <pt x="146" y="-27" on="0"/>
        <pt x="103" y="-27" on="1"/>
        <pt x="85" y="-27" on="0"/>
        <pt x="60" y="-9" on="0"/>
        <pt x="60" y="9" on="1"/>
        <pt x="52" y="120" on="0"/>
        <pt x="9" y="390" on="0"/>
        <pt x="-8" y="470" on="1"/>
        <pt x="-25" y="549" on="1"/>
        <pt x="-35" y="595" on="0"/>
        <pt x="-74" y="634" on="0"/>
        <pt x="-74" y="649" on="1"/>
        <pt x="-74" y="682" on="0"/>
        <pt x="31" y="744" on="0"/>
        <pt x="109" y="744" on="0"/>
        <pt x="114" y="706" on="1"/>
        <pt x="128" y="640" on="0"/>
        <pt x="140" y="494" on="1"/>
        <pt x="156" y="347" on="0"/>
        <pt x="170" y="292" on="1"/>
        <pt x="174" y="282" on="0"/>
        <pt x="186" y="282" on="0"/>
        <pt x="191" y="293" on="1"/>
        <pt x="260" y="442" on="0"/>
        <pt x="260" y="578" on="1"/>
        <pt x="260" y="622" on="0"/>
        <pt x="241" y="662" on="0"/>
        <pt x="241" y="692" on="0"/>
        <pt x="260" y="707" on="1"/>
        <pt x="275" y="722" on="0"/>
        <pt x="333" y="745" on="0"/>
        <pt x="385" y="745" on="0"/>
        <pt x="408" y="731" on="0"/>
        <pt x="421" y="668" on="0"/>
        <pt x="432" y="528" on="1"/>
        <pt x="452" y="347" on="0"/>
        <pt x="465" y="292" on="1"/>
        <pt x="469" y="282" on="0"/>
        <pt x="480" y="282" on="0"/>
        <pt x="487" y="293" on="1"/>
        <pt x="513" y="353" on="0"/>
        <pt x="553" y="500" on="0"/>
        <pt x="553" y="614" on="0"/>
        <pt x="529" y="649" on="1"/>
        <pt x="524" y="657" on="0"/>
        <pt x="524" y="668" on="1"/>
        <pt x="524" y="700" on="0"/>
        <pt x="619" y="744" on="0"/>
        <pt x="706" y="744" on="0"/>
        <pt x="706" y="704" on="1"/>
        <pt x="705" y="693" on="1"/>
        <pt x="686" y="557" on="0"/>
        <pt x="594" y="236" on="0"/>
        <pt x="558" y="144" on="1"/>
        <pt x="521" y="51" on="1"/>
        <pt x="487" y="-27" on="0"/>
        <pt x="399" y="-27" on="1"/>
        <pt x="381" y="-27" on="0"/>
        <pt x="356" y="-9" on="0"/>
      </contour>
    </TTGlyph>
    <TTGlyph name="X" xMin="-33" yMin="-25" xMax="526" yMax="756">
      <contour>
        <pt x="341" y="377" on="1"/>
        <pt x="363" y="302" on="0"/>
        <pt x="442" y="153" on="0"/>
        <pt x="473" y="138" on="1"/>
        <pt x="487" y="132" on="1"/>
        <pt x="501" y="127" on="0"/>
        <pt x="511" y="117" on="0"/>
        <pt x="511" y="107" on="1"/>
        <pt x="511" y="66" on="0"/>
        <pt x="403" y="-25" on="0"/>
        <pt x="363" y="-25" on="1"/>
        <pt x="345" y="-25" on="0"/>
        <pt x="319" y="-6" on="0"/>
        <pt x="314" y="4" on="1"/>
        <pt x="310" y="14" on="1"/>
        <pt x="300" y="28" on="0"/>
        <pt x="254" y="158" on="0"/>
        <pt x="235" y="229" on="1"/>
        <pt x="232" y="239" on="0"/>
        <pt x="228" y="239" on="1"/>
        <pt x="222" y="239" on="0"/>
        <pt x="218" y="231" on="1"/>
        <pt x="188" y="174" on="0"/>
        <pt x="149" y="72" on="1"/>
        <pt x="137" y="41" on="1"/>
        <pt x="114" y="-15" on="0"/>
        <pt x="-33" y="-15" on="0"/>
        <pt x="-33" y="15" on="1"/>
        <pt x="-33" y="28" on="0"/>
        <pt x="-16" y="47" on="1"/>
        <pt x="17" y="79" on="0"/>
        <pt x="110" y="247" on="0"/>
        <pt x="140" y="315" on="1"/>
        <pt x="169" y="383" on="1"/>
        <pt x="174" y="396" on="0"/>
        <pt x="174" y="410" on="1"/>
        <pt x="171" y="430" on="1"/>
        <pt x="138" y="570" on="0"/>
        <pt x="75" y="617" on="1"/>
        <pt x="54" y="633" on="0"/>
        <pt x="54" y="653" on="1"/>
        <pt x="54" y="687" on="0"/>
        <pt x="150" y="744" on="0"/>
        <pt x="225" y="744" on="0"/>
        <pt x="237" y="706" on="1"/>
        <pt x="255" y="663" on="0"/>
        <pt x="282" y="570" on="1"/>
        <pt x="286" y="559" on="0"/>
        <pt x="298" y="559" on="0"/>
        <pt x="302" y="568" on="1"/>
        <pt x="343" y="657" on="0"/>
        <pt x="354" y="700" on="1"/>
        <pt x="357" y="709" on="1"/>
        <pt x="359" y="715" on="0"/>
        <pt x="385" y="739" on="0"/>
        <pt x="434" y="756" on="0"/>
        <pt x="470" y="756" on="1"/>
        <pt x="526" y="756" on="0"/>
        <pt x="526" y="731" on="1"/>
        <pt x="526" y="719" on="0"/>
        <pt x="504" y="695" on="0"/>
        <pt x="472" y="656" on="0"/>
        <pt x="384" y="510" on="0"/>
        <pt x="345" y="422" on="1"/>
        <pt x="339" y="409" on="0"/>
        <pt x="339" y="382" on="0"/>
      </contour>
    </TTGlyph>
    <TTGlyph name="Y" xMin="-83" yMin="-36" xMax="422" yMax="751">
      <contour>
        <pt x="251" y="658" on="1"/>
        <pt x="247" y="685" on="1"/>
        <pt x="247" y="708" on="0"/>
        <pt x="311" y="751" on="0"/>
        <pt x="375" y="751" on="1"/>
        <pt x="422" y="751" on="0"/>
        <pt x="422" y="724" on="1"/>
        <pt x="422" y="712" on="0"/>
        <pt x="404" y="667" on="0"/>
        <pt x="241" y="357" on="0"/>
        <pt x="231" y="329" on="1"/>
        <pt x="214" y="281" on="0"/>
        <pt x="211" y="232" on="1"/>
        <pt x="210" y="215" on="1"/>
        <pt x="214" y="72" on="0"/>
        <pt x="219" y="52" on="0"/>
        <pt x="219" y="44" on="1"/>
        <pt x="219" y="20" on="0"/>
        <pt x="196" y="1" on="1"/>
        <pt x="148" y="-36" on="0"/>
        <pt x="66" y="-36" on="1"/>
        <pt x="32" y="-36" on="0"/>
        <pt x="32" y="-4" on="1"/>
        <pt x="35" y="16" on="1"/>
        <pt x="36" y="21" on="0"/>
        <pt x="48" y="75" on="0"/>
        <pt x="53" y="101" on="0"/>
        <pt x="56" y="129" on="1"/>
        <pt x="64" y="189" on="0"/>
        <pt x="64" y="240" on="1"/>
        <pt x="64" y="316" on="0"/>
        <pt x="58" y="342" on="1"/>
        <pt x="26" y="446" on="0"/>
        <pt x="-2" y="521" on="1"/>
        <pt x="-12" y="546" on="1"/>
        <pt x="-29" y="596" on="0"/>
        <pt x="-64" y="623" on="1"/>
        <pt x="-83" y="639" on="0"/>
        <pt x="-83" y="658" on="1"/>
        <pt x="-83" y="694" on="0"/>
        <pt x="22" y="742" on="0"/>
        <pt x="102" y="742" on="0"/>
        <pt x="110" y="709" on="1"/>
        <pt x="113" y="698" on="0"/>
        <pt x="124" y="650" on="1"/>
        <pt x="149" y="534" on="0"/>
        <pt x="171" y="482" on="1"/>
        <pt x="174" y="474" on="0"/>
        <pt x="182" y="474" on="0"/>
        <pt x="188" y="481" on="1"/>
        <pt x="207" y="510" on="0"/>
        <pt x="251" y="627" on="0"/>
      </contour>
    </TTGlyph>
    <TTGlyph name="Yacute" xMin="-83" yMin="-36" xMax="422" yMax="915">
      <contour>
        <pt x="251" y="658" on="1"/>
        <pt x="247" y="685" on="1"/>
        <pt x="247" y="708" on="0"/>
        <pt x="311" y="751" on="0"/>
        <pt x="375" y="751" on="1"/>
        <pt x="422" y="751" on="0"/>
        <pt x="422" y="724" on="1"/>
        <pt x="422" y="712" on="0"/>
        <pt x="404" y="667" on="0"/>
        <pt x="241" y="357" on="0"/>
        <pt x="231" y="329" on="1"/>
        <pt x="214" y="281" on="0"/>
        <pt x="211" y="232" on="1"/>
        <pt x="210" y="215" on="1"/>
        <pt x="214" y="72" on="0"/>
        <pt x="219" y="52" on="0"/>
        <pt x="219" y="44" on="1"/>
        <pt x="219" y="20" on="0"/>
        <pt x="196" y="1" on="1"/>
        <pt x="148" y="-36" on="0"/>
        <pt x="66" y="-36" on="1"/>
        <pt x="32" y="-36" on="0"/>
        <pt x="32" y="-4" on="1"/>
        <pt x="35" y="16" on="1"/>
        <pt x="36" y="21" on="0"/>
        <pt x="48" y="75" on="0"/>
        <pt x="53" y="101" on="0"/>
        <pt x="56" y="129" on="1"/>
        <pt x="64" y="189" on="0"/>
        <pt x="64" y="240" on="1"/>
        <pt x="64" y="316" on="0"/>
        <pt x="58" y="342" on="1"/>
        <pt x="26" y="446" on="0"/>
        <pt x="-2" y="521" on="1"/>
        <pt x="-12" y="546" on="1"/>
        <pt x="-29" y="596" on="0"/>
        <pt x="-64" y="623" on="1"/>
        <pt x="-83" y="639" on="0"/>
        <pt x="-83" y="658" on="1"/>
        <pt x="-83" y="694" on="0"/>
        <pt x="22" y="742" on="0"/>
        <pt x="102" y="742" on="0"/>
        <pt x="110" y="709" on="1"/>
        <pt x="113" y="698" on="0"/>
        <pt x="124" y="650" on="1"/>
        <pt x="149" y="534" on="0"/>
        <pt x="171" y="482" on="1"/>
        <pt x="174" y="474" on="0"/>
        <pt x="182" y="474" on="0"/>
        <pt x="188" y="481" on="1"/>
        <pt x="207" y="510" on="0"/>
        <pt x="251" y="627" on="0"/>
      </contour>
      <contour>
        <pt x="248" y="915" on="0"/>
        <pt x="280" y="875" on="0"/>
        <pt x="280" y="846" on="0"/>
        <pt x="264" y="841" on="1"/>
        <pt x="234" y="832" on="0"/>
        <pt x="182" y="800" on="1"/>
        <pt x="165" y="789" on="1"/>
        <pt x="156" y="785" on="0"/>
        <pt x="150" y="785" on="1"/>
        <pt x="139" y="785" on="0"/>
        <pt x="139" y="819" on="0"/>
        <pt x="208" y="915" on="0"/>
        <pt x="232" y="915" on="1"/>
      </contour>
    </TTGlyph>
    <TTGlyph name="Ydieresis" xMin="-83" yMin="-36" xMax="422" yMax="886">
      <contour>
        <pt x="251" y="658" on="1"/>
        <pt x="247" y="685" on="1"/>
        <pt x="247" y="708" on="0"/>
        <pt x="311" y="751" on="0"/>
        <pt x="375" y="751" on="1"/>
        <pt x="422" y="751" on="0"/>
        <pt x="422" y="724" on="1"/>
        <pt x="422" y="712" on="0"/>
        <pt x="404" y="667" on="0"/>
        <pt x="241" y="357" on="0"/>
        <pt x="231" y="329" on="1"/>
        <pt x="214" y="281" on="0"/>
        <pt x="211" y="232" on="1"/>
        <pt x="210" y="215" on="1"/>
        <pt x="214" y="72" on="0"/>
        <pt x="219" y="52" on="0"/>
        <pt x="219" y="44" on="1"/>
        <pt x="219" y="20" on="0"/>
        <pt x="196" y="1" on="1"/>
        <pt x="148" y="-36" on="0"/>
        <pt x="66" y="-36" on="1"/>
        <pt x="32" y="-36" on="0"/>
        <pt x="32" y="-4" on="1"/>
        <pt x="35" y="16" on="1"/>
        <pt x="36" y="21" on="0"/>
        <pt x="48" y="75" on="0"/>
        <pt x="53" y="101" on="0"/>
        <pt x="56" y="129" on="1"/>
        <pt x="64" y="189" on="0"/>
        <pt x="64" y="240" on="1"/>
        <pt x="64" y="316" on="0"/>
        <pt x="58" y="342" on="1"/>
        <pt x="26" y="446" on="0"/>
        <pt x="-2" y="521" on="1"/>
        <pt x="-12" y="546" on="1"/>
        <pt x="-29" y="596" on="0"/>
        <pt x="-64" y="623" on="1"/>
        <pt x="-83" y="639" on="0"/>
        <pt x="-83" y="658" on="1"/>
        <pt x="-83" y="694" on="0"/>
        <pt x="22" y="742" on="0"/>
        <pt x="102" y="742" on="0"/>
        <pt x="110" y="709" on="1"/>
        <pt x="113" y="698" on="0"/>
        <pt x="124" y="650" on="1"/>
        <pt x="149" y="534" on="0"/>
        <pt x="171" y="482" on="1"/>
        <pt x="174" y="474" on="0"/>
        <pt x="182" y="474" on="0"/>
        <pt x="188" y="481" on="1"/>
        <pt x="207" y="510" on="0"/>
        <pt x="251" y="627" on="0"/>
      </contour>
      <contour>
        <pt x="288" y="886" on="0"/>
        <pt x="314" y="864" on="0"/>
        <pt x="314" y="819" on="0"/>
        <pt x="267" y="780" on="0"/>
        <pt x="222" y="780" on="0"/>
        <pt x="195" y="803" on="0"/>
        <pt x="195" y="847" on="0"/>
        <pt x="243" y="886" on="0"/>
      </contour>
      <contour>
        <pt x="107" y="886" on="0"/>
        <pt x="133" y="864" on="0"/>
        <pt x="133" y="819" on="0"/>
        <pt x="86" y="780" on="0"/>
        <pt x="41" y="780" on="0"/>
        <pt x="14" y="803" on="0"/>
        <pt x="14" y="847" on="0"/>
        <pt x="62" y="886" on="0"/>
      </contour>
    </TTGlyph>
    <TTGlyph name="Z" xMin="0" yMin="-22" xMax="426" yMax="733">
      <contour>
        <pt x="414" y="168" on="1"/>
        <pt x="414" y="-7" on="0"/>
        <pt x="311" y="-14" on="1"/>
        <pt x="237" y="-22" on="0"/>
        <pt x="152" y="-22" on="1"/>
        <pt x="0" y="-22" on="0"/>
        <pt x="0" y="31" on="1"/>
        <pt x="0" y="69" on="0"/>
        <pt x="73" y="249" on="0"/>
        <pt x="110" y="320" on="1"/>
        <pt x="146" y="392" on="1"/>
        <pt x="241" y="575" on="0"/>
        <pt x="241" y="607" on="0"/>
        <pt x="190" y="607" on="0"/>
        <pt x="135" y="580" on="0"/>
        <pt x="122" y="566" on="1"/>
        <pt x="109" y="553" on="1"/>
        <pt x="93" y="533" on="0"/>
        <pt x="76" y="533" on="1"/>
        <pt x="52" y="533" on="0"/>
        <pt x="52" y="657" on="0"/>
        <pt x="75" y="694" on="1"/>
        <pt x="91" y="719" on="0"/>
        <pt x="128" y="725" on="1"/>
        <pt x="192" y="733" on="0"/>
        <pt x="336" y="733" on="0"/>
        <pt x="387" y="728" on="0"/>
        <pt x="402" y="725" on="0"/>
        <pt x="426" y="705" on="0"/>
        <pt x="426" y="667" on="0"/>
        <pt x="389" y="610" on="0"/>
        <pt x="343" y="529" on="0"/>
        <pt x="250" y="313" on="0"/>
        <pt x="232" y="226" on="1"/>
        <pt x="230" y="220" on="0"/>
        <pt x="230" y="204" on="1"/>
        <pt x="230" y="176" on="0"/>
        <pt x="326" y="176" on="0"/>
        <pt x="364" y="216" on="1"/>
        <pt x="370" y="224" on="0"/>
        <pt x="400" y="224" on="0"/>
        <pt x="414" y="201" on="0"/>
      </contour>
    </TTGlyph>
    <TTGlyph name="Zcaron" xMin="0" yMin="-22" xMax="426" yMax="900">
      <contour>
        <pt x="414" y="168" on="1"/>
        <pt x="414" y="-7" on="0"/>
        <pt x="311" y="-14" on="1"/>
        <pt x="237" y="-22" on="0"/>
        <pt x="152" y="-22" on="1"/>
        <pt x="0" y="-22" on="0"/>
        <pt x="0" y="31" on="1"/>
        <pt x="0" y="69" on="0"/>
        <pt x="73" y="249" on="0"/>
        <pt x="110" y="320" on="1"/>
        <pt x="146" y="392" on="1"/>
        <pt x="241" y="575" on="0"/>
        <pt x="241" y="607" on="0"/>
        <pt x="190" y="607" on="0"/>
        <pt x="135" y="580" on="0"/>
        <pt x="122" y="566" on="1"/>
        <pt x="109" y="553" on="1"/>
        <pt x="93" y="533" on="0"/>
        <pt x="76" y="533" on="1"/>
        <pt x="52" y="533" on="0"/>
        <pt x="52" y="657" on="0"/>
        <pt x="75" y="694" on="1"/>
        <pt x="91" y="719" on="0"/>
        <pt x="128" y="725" on="1"/>
        <pt x="192" y="733" on="0"/>
        <pt x="336" y="733" on="0"/>
        <pt x="387" y="728" on="0"/>
        <pt x="402" y="725" on="0"/>
        <pt x="426" y="705" on="0"/>
        <pt x="426" y="667" on="0"/>
        <pt x="389" y="610" on="0"/>
        <pt x="343" y="529" on="0"/>
        <pt x="250" y="313" on="0"/>
        <pt x="232" y="226" on="1"/>
        <pt x="230" y="220" on="0"/>
        <pt x="230" y="204" on="1"/>
        <pt x="230" y="176" on="0"/>
        <pt x="326" y="176" on="0"/>
        <pt x="364" y="216" on="1"/>
        <pt x="370" y="224" on="0"/>
        <pt x="400" y="224" on="0"/>
        <pt x="414" y="201" on="0"/>
      </contour>
      <contour>
        <pt x="166" y="895" on="1"/>
        <pt x="244" y="844" on="0"/>
        <pt x="263" y="844" on="1"/>
        <pt x="269" y="844" on="0"/>
        <pt x="365" y="900" on="0"/>
        <pt x="372" y="900" on="1"/>
        <pt x="383" y="900" on="0"/>
        <pt x="383" y="875" on="0"/>
        <pt x="365" y="844" on="0"/>
        <pt x="349" y="816" on="0"/>
        <pt x="308" y="769" on="0"/>
        <pt x="293" y="769" on="1"/>
        <pt x="292" y="769" on="0"/>
        <pt x="292" y="769" on="1"/>
        <pt x="279" y="769" on="0"/>
        <pt x="265" y="785" on="1"/>
        <pt x="263" y="787" on="0"/>
        <pt x="260" y="787" on="0"/>
        <pt x="256" y="782" on="1"/>
        <pt x="244" y="769" on="0"/>
        <pt x="234" y="769" on="1"/>
        <pt x="230" y="769" on="1"/>
        <pt x="215" y="769" on="0"/>
        <pt x="177" y="811" on="0"/>
        <pt x="165" y="832" on="1"/>
        <pt x="153" y="853" on="1"/>
        <pt x="140" y="875" on="0"/>
        <pt x="140" y="900" on="0"/>
        <pt x="151" y="900" on="1"/>
        <pt x="158" y="900" on="0"/>
      </contour>
    </TTGlyph>
    <TTGlyph name="a" xMin="6" yMin="-19" xMax="389" yMax="491">
      <contour>
        <pt x="143" y="162" on="1"/>
        <pt x="143" y="120" on="0"/>
        <pt x="203" y="120" on="0"/>
        <pt x="240" y="182" on="0"/>
        <pt x="240" y="206" on="1"/>
        <pt x="240" y="251" on="0"/>
        <pt x="208" y="251" on="1"/>
        <pt x="179" y="251" on="0"/>
        <pt x="143" y="193" on="0"/>
      </contour>
      <contour>
        <pt x="358" y="321" on="1"/>
        <pt x="355" y="182" on="1"/>
        <pt x="355" y="99" on="0"/>
        <pt x="376" y="86" on="1"/>
        <pt x="389" y="76" on="0"/>
        <pt x="389" y="60" on="1"/>
        <pt x="389" y="31" on="0"/>
        <pt x="312" y="-19" on="0"/>
        <pt x="272" y="-19" on="1"/>
        <pt x="252" y="-19" on="0"/>
        <pt x="232" y="-2" on="0"/>
        <pt x="232" y="8" on="1"/>
        <pt x="232" y="35" on="0"/>
        <pt x="225" y="35" on="1"/>
        <pt x="224" y="35" on="0"/>
        <pt x="201" y="12" on="0"/>
        <pt x="156" y="-11" on="0"/>
        <pt x="87" y="-11" on="0"/>
        <pt x="34" y="23" on="0"/>
        <pt x="24" y="50" on="1"/>
        <pt x="6" y="95" on="0"/>
        <pt x="6" y="173" on="0"/>
        <pt x="30" y="241" on="0"/>
        <pt x="66" y="283" on="0"/>
        <pt x="114" y="316" on="0"/>
        <pt x="156" y="331" on="0"/>
        <pt x="178" y="336" on="1"/>
        <pt x="209" y="342" on="0"/>
        <pt x="221" y="342" on="1"/>
        <pt x="231" y="355" on="1"/>
        <pt x="230" y="389" on="0"/>
        <pt x="133" y="389" on="0"/>
        <pt x="102" y="370" on="1"/>
        <pt x="90" y="362" on="0"/>
        <pt x="78" y="362" on="1"/>
        <pt x="54" y="362" on="0"/>
        <pt x="54" y="398" on="1"/>
        <pt x="54" y="491" on="0"/>
        <pt x="202" y="491" on="1"/>
        <pt x="316" y="491" on="0"/>
        <pt x="345" y="415" on="1"/>
        <pt x="358" y="381" on="0"/>
      </contour>
    </TTGlyph>
    <TTGlyph name="aacute" xMin="6" yMin="-19" xMax="389" yMax="675">
      <contour>
        <pt x="143" y="162" on="1"/>
        <pt x="143" y="120" on="0"/>
        <pt x="203" y="120" on="0"/>
        <pt x="240" y="182" on="0"/>
        <pt x="240" y="206" on="1"/>
        <pt x="240" y="251" on="0"/>
        <pt x="208" y="251" on="1"/>
        <pt x="179" y="251" on="0"/>
        <pt x="143" y="193" on="0"/>
      </contour>
      <contour>
        <pt x="358" y="321" on="1"/>
        <pt x="355" y="182" on="1"/>
        <pt x="355" y="99" on="0"/>
        <pt x="376" y="86" on="1"/>
        <pt x="389" y="76" on="0"/>
        <pt x="389" y="60" on="1"/>
        <pt x="389" y="31" on="0"/>
        <pt x="312" y="-19" on="0"/>
        <pt x="272" y="-19" on="1"/>
        <pt x="252" y="-19" on="0"/>
        <pt x="232" y="-2" on="0"/>
        <pt x="232" y="8" on="1"/>
        <pt x="232" y="35" on="0"/>
        <pt x="225" y="35" on="1"/>
        <pt x="224" y="35" on="0"/>
        <pt x="201" y="12" on="0"/>
        <pt x="156" y="-11" on="0"/>
        <pt x="87" y="-11" on="0"/>
        <pt x="34" y="23" on="0"/>
        <pt x="24" y="50" on="1"/>
        <pt x="6" y="95" on="0"/>
        <pt x="6" y="173" on="0"/>
        <pt x="30" y="241" on="0"/>
        <pt x="66" y="283" on="0"/>
        <pt x="114" y="316" on="0"/>
        <pt x="156" y="331" on="0"/>
        <pt x="178" y="336" on="1"/>
        <pt x="209" y="342" on="0"/>
        <pt x="221" y="342" on="1"/>
        <pt x="231" y="355" on="1"/>
        <pt x="230" y="389" on="0"/>
        <pt x="133" y="389" on="0"/>
        <pt x="102" y="370" on="1"/>
        <pt x="90" y="362" on="0"/>
        <pt x="78" y="362" on="1"/>
        <pt x="54" y="362" on="0"/>
        <pt x="54" y="398" on="1"/>
        <pt x="54" y="491" on="0"/>
        <pt x="202" y="491" on="1"/>
        <pt x="316" y="491" on="0"/>
        <pt x="345" y="415" on="1"/>
        <pt x="358" y="381" on="0"/>
      </contour>
      <contour>
        <pt x="254" y="675" on="0"/>
        <pt x="286" y="635" on="0"/>
        <pt x="286" y="606" on="0"/>
        <pt x="270" y="601" on="1"/>
        <pt x="240" y="592" on="0"/>
        <pt x="188" y="560" on="1"/>
        <pt x="171" y="549" on="1"/>
        <pt x="162" y="545" on="0"/>
        <pt x="156" y="545" on="1"/>
        <pt x="145" y="545" on="0"/>
        <pt x="145" y="579" on="0"/>
        <pt x="214" y="675" on="0"/>
        <pt x="238" y="675" on="1"/>
      </contour>
    </TTGlyph>
    <TTGlyph name="acircumflex" xMin="6" yMin="-19" xMax="389" yMax="670">
      <contour>
        <pt x="143" y="162" on="1"/>
        <pt x="143" y="120" on="0"/>
        <pt x="203" y="120" on="0"/>
        <pt x="240" y="182" on="0"/>
        <pt x="240" y="206" on="1"/>
        <pt x="240" y="251" on="0"/>
        <pt x="208" y="251" on="1"/>
        <pt x="179" y="251" on="0"/>
        <pt x="143" y="193" on="0"/>
      </contour>
      <contour>
        <pt x="358" y="321" on="1"/>
        <pt x="355" y="182" on="1"/>
        <pt x="355" y="99" on="0"/>
        <pt x="376" y="86" on="1"/>
        <pt x="389" y="76" on="0"/>
        <pt x="389" y="60" on="1"/>
        <pt x="389" y="31" on="0"/>
        <pt x="312" y="-19" on="0"/>
        <pt x="272" y="-19" on="1"/>
        <pt x="252" y="-19" on="0"/>
        <pt x="232" y="-2" on="0"/>
        <pt x="232" y="8" on="1"/>
        <pt x="232" y="35" on="0"/>
        <pt x="225" y="35" on="1"/>
        <pt x="224" y="35" on="0"/>
        <pt x="201" y="12" on="0"/>
        <pt x="156" y="-11" on="0"/>
        <pt x="87" y="-11" on="0"/>
        <pt x="34" y="23" on="0"/>
        <pt x="24" y="50" on="1"/>
        <pt x="6" y="95" on="0"/>
        <pt x="6" y="173" on="0"/>
        <pt x="30" y="241" on="0"/>
        <pt x="66" y="283" on="0"/>
        <pt x="114" y="316" on="0"/>
        <pt x="156" y="331" on="0"/>
        <pt x="178" y="336" on="1"/>
        <pt x="209" y="342" on="0"/>
        <pt x="221" y="342" on="1"/>
        <pt x="231" y="355" on="1"/>
        <pt x="230" y="389" on="0"/>
        <pt x="133" y="389" on="0"/>
        <pt x="102" y="370" on="1"/>
        <pt x="90" y="362" on="0"/>
        <pt x="78" y="362" on="1"/>
        <pt x="54" y="362" on="0"/>
        <pt x="54" y="398" on="1"/>
        <pt x="54" y="491" on="0"/>
        <pt x="202" y="491" on="1"/>
        <pt x="316" y="491" on="0"/>
        <pt x="345" y="415" on="1"/>
        <pt x="358" y="381" on="0"/>
      </contour>
      <contour>
        <pt x="303" y="544" on="1"/>
        <pt x="225" y="595" on="0"/>
        <pt x="206" y="595" on="1"/>
        <pt x="200" y="595" on="0"/>
        <pt x="104" y="539" on="0"/>
        <pt x="97" y="539" on="1"/>
        <pt x="86" y="539" on="0"/>
        <pt x="86" y="564" on="0"/>
        <pt x="104" y="595" on="0"/>
        <pt x="120" y="623" on="0"/>
        <pt x="161" y="670" on="0"/>
        <pt x="176" y="670" on="1"/>
        <pt x="177" y="670" on="0"/>
        <pt x="177" y="670" on="1"/>
        <pt x="190" y="670" on="0"/>
        <pt x="204" y="654" on="1"/>
        <pt x="206" y="652" on="0"/>
        <pt x="209" y="652" on="0"/>
        <pt x="214" y="657" on="1"/>
        <pt x="225" y="670" on="0"/>
        <pt x="236" y="670" on="1"/>
        <pt x="239" y="670" on="1"/>
        <pt x="254" y="670" on="0"/>
        <pt x="292" y="628" on="0"/>
        <pt x="304" y="607" on="1"/>
        <pt x="316" y="586" on="1"/>
        <pt x="329" y="564" on="0"/>
        <pt x="329" y="539" on="0"/>
        <pt x="318" y="539" on="1"/>
        <pt x="310" y="539" on="0"/>
      </contour>
    </TTGlyph>
    <TTGlyph name="acute" xMin="190" yMin="545" xMax="331" yMax="675">
      <contour>
        <pt x="299" y="675" on="0"/>
        <pt x="331" y="635" on="0"/>
        <pt x="331" y="606" on="0"/>
        <pt x="315" y="601" on="1"/>
        <pt x="285" y="592" on="0"/>
        <pt x="233" y="560" on="1"/>
        <pt x="216" y="549" on="1"/>
        <pt x="207" y="545" on="0"/>
        <pt x="201" y="545" on="1"/>
        <pt x="190" y="545" on="0"/>
        <pt x="190" y="579" on="0"/>
        <pt x="259" y="675" on="0"/>
        <pt x="283" y="675" on="1"/>
      </contour>
    </TTGlyph>
    <TTGlyph name="adieresis" xMin="6" yMin="-19" xMax="389" yMax="648">
      <contour>
        <pt x="143" y="162" on="1"/>
        <pt x="143" y="120" on="0"/>
        <pt x="203" y="120" on="0"/>
        <pt x="240" y="182" on="0"/>
        <pt x="240" y="206" on="1"/>
        <pt x="240" y="251" on="0"/>
        <pt x="208" y="251" on="1"/>
        <pt x="179" y="251" on="0"/>
        <pt x="143" y="193" on="0"/>
      </contour>
      <contour>
        <pt x="358" y="321" on="1"/>
        <pt x="355" y="182" on="1"/>
        <pt x="355" y="99" on="0"/>
        <pt x="376" y="86" on="1"/>
        <pt x="389" y="76" on="0"/>
        <pt x="389" y="60" on="1"/>
        <pt x="389" y="31" on="0"/>
        <pt x="312" y="-19" on="0"/>
        <pt x="272" y="-19" on="1"/>
        <pt x="252" y="-19" on="0"/>
        <pt x="232" y="-2" on="0"/>
        <pt x="232" y="8" on="1"/>
        <pt x="232" y="35" on="0"/>
        <pt x="225" y="35" on="1"/>
        <pt x="224" y="35" on="0"/>
        <pt x="201" y="12" on="0"/>
        <pt x="156" y="-11" on="0"/>
        <pt x="87" y="-11" on="0"/>
        <pt x="34" y="23" on="0"/>
        <pt x="24" y="50" on="1"/>
        <pt x="6" y="95" on="0"/>
        <pt x="6" y="173" on="0"/>
        <pt x="30" y="241" on="0"/>
        <pt x="66" y="283" on="0"/>
        <pt x="114" y="316" on="0"/>
        <pt x="156" y="331" on="0"/>
        <pt x="178" y="336" on="1"/>
        <pt x="209" y="342" on="0"/>
        <pt x="221" y="342" on="1"/>
        <pt x="231" y="355" on="1"/>
        <pt x="230" y="389" on="0"/>
        <pt x="133" y="389" on="0"/>
        <pt x="102" y="370" on="1"/>
        <pt x="90" y="362" on="0"/>
        <pt x="78" y="362" on="1"/>
        <pt x="54" y="362" on="0"/>
        <pt x="54" y="398" on="1"/>
        <pt x="54" y="491" on="0"/>
        <pt x="202" y="491" on="1"/>
        <pt x="316" y="491" on="0"/>
        <pt x="345" y="415" on="1"/>
        <pt x="358" y="381" on="0"/>
      </contour>
      <contour>
        <pt x="319" y="648" on="0"/>
        <pt x="345" y="626" on="0"/>
        <pt x="345" y="581" on="0"/>
        <pt x="298" y="542" on="0"/>
        <pt x="253" y="542" on="0"/>
        <pt x="226" y="565" on="0"/>
        <pt x="226" y="609" on="0"/>
        <pt x="274" y="648" on="0"/>
      </contour>
      <contour>
        <pt x="138" y="648" on="0"/>
        <pt x="164" y="626" on="0"/>
        <pt x="164" y="581" on="0"/>
        <pt x="117" y="542" on="0"/>
        <pt x="72" y="542" on="0"/>
        <pt x="45" y="565" on="0"/>
        <pt x="45" y="609" on="0"/>
        <pt x="93" y="648" on="0"/>
      </contour>
    </TTGlyph>
    <TTGlyph name="ae" xMin="6" yMin="-18" xMax="578" yMax="496">
      <contour>
        <pt x="493" y="158" on="1"/>
        <pt x="514" y="185" on="0"/>
        <pt x="556" y="185" on="0"/>
        <pt x="578" y="150" on="0"/>
        <pt x="578" y="129" on="1"/>
        <pt x="578" y="62" on="0"/>
        <pt x="478" y="-18" on="0"/>
        <pt x="406" y="-18" on="1"/>
        <pt x="382" y="-18" on="0"/>
        <pt x="336" y="-3" on="0"/>
        <pt x="331" y="-3" on="0"/>
        <pt x="299" y="-16" on="0"/>
        <pt x="258" y="-16" on="0"/>
        <pt x="243" y="-11" on="0"/>
        <pt x="240" y="-6" on="1"/>
        <pt x="235" y="1" on="0"/>
        <pt x="230" y="37" on="0"/>
        <pt x="224" y="37" on="1"/>
        <pt x="220" y="37" on="0"/>
        <pt x="201" y="14" on="0"/>
        <pt x="158" y="-6" on="0"/>
        <pt x="144" y="-7" on="1"/>
        <pt x="130" y="-8" on="1"/>
        <pt x="66" y="-8" on="0"/>
        <pt x="6" y="74" on="0"/>
        <pt x="6" y="141" on="1"/>
        <pt x="6" y="223" on="0"/>
        <pt x="49" y="270" on="1"/>
        <pt x="98" y="322" on="0"/>
        <pt x="178" y="339" on="1"/>
        <pt x="197" y="343" on="0"/>
        <pt x="209" y="344" on="1"/>
        <pt x="221" y="344" on="1"/>
        <pt x="230" y="346" on="0"/>
        <pt x="230" y="355" on="1"/>
        <pt x="230" y="358" on="1"/>
        <pt x="229" y="392" on="0"/>
        <pt x="132" y="392" on="0"/>
        <pt x="89" y="366" on="0"/>
        <pt x="77" y="366" on="1"/>
        <pt x="53" y="366" on="0"/>
        <pt x="53" y="447" on="0"/>
        <pt x="126" y="494" on="0"/>
        <pt x="266" y="494" on="0"/>
        <pt x="313" y="461" on="1"/>
        <pt x="317" y="457" on="0"/>
        <pt x="327" y="457" on="0"/>
        <pt x="331" y="461" on="1"/>
        <pt x="375" y="496" on="0"/>
        <pt x="500" y="496" on="0"/>
        <pt x="578" y="429" on="0"/>
        <pt x="578" y="363" on="1"/>
        <pt x="578" y="333" on="0"/>
        <pt x="550" y="270" on="0"/>
        <pt x="511" y="230" on="0"/>
        <pt x="433" y="200" on="0"/>
        <pt x="381" y="200" on="1"/>
        <pt x="373" y="200" on="0"/>
        <pt x="373" y="184" on="0"/>
        <pt x="378" y="162" on="0"/>
        <pt x="408" y="130" on="0"/>
        <pt x="468" y="129" on="0"/>
      </contour>
      <contour>
        <pt x="174" y="123" on="1"/>
        <pt x="202" y="123" on="0"/>
        <pt x="240" y="184" on="0"/>
        <pt x="240" y="207" on="1"/>
        <pt x="240" y="254" on="0"/>
        <pt x="180" y="254" on="0"/>
        <pt x="142" y="196" on="0"/>
        <pt x="142" y="124" on="0"/>
      </contour>
      <contour>
        <pt x="435" y="404" on="1"/>
        <pt x="403" y="404" on="0"/>
        <pt x="368" y="335" on="0"/>
        <pt x="368" y="299" on="1"/>
        <pt x="368" y="289" on="0"/>
        <pt x="381" y="289" on="1"/>
        <pt x="412" y="289" on="0"/>
        <pt x="464" y="339" on="0"/>
        <pt x="464" y="372" on="1"/>
        <pt x="464" y="385" on="0"/>
        <pt x="448" y="404" on="0"/>
      </contour>
    </TTGlyph>
    <TTGlyph name="agrave" xMin="6" yMin="-19" xMax="389" yMax="675">
      <contour>
        <pt x="143" y="162" on="1"/>
        <pt x="143" y="120" on="0"/>
        <pt x="203" y="120" on="0"/>
        <pt x="240" y="182" on="0"/>
        <pt x="240" y="206" on="1"/>
        <pt x="240" y="251" on="0"/>
        <pt x="208" y="251" on="1"/>
        <pt x="179" y="251" on="0"/>
        <pt x="143" y="193" on="0"/>
      </contour>
      <contour>
        <pt x="358" y="321" on="1"/>
        <pt x="355" y="182" on="1"/>
        <pt x="355" y="99" on="0"/>
        <pt x="376" y="86" on="1"/>
        <pt x="389" y="76" on="0"/>
        <pt x="389" y="60" on="1"/>
        <pt x="389" y="31" on="0"/>
        <pt x="312" y="-19" on="0"/>
        <pt x="272" y="-19" on="1"/>
        <pt x="252" y="-19" on="0"/>
        <pt x="232" y="-2" on="0"/>
        <pt x="232" y="8" on="1"/>
        <pt x="232" y="35" on="0"/>
        <pt x="225" y="35" on="1"/>
        <pt x="224" y="35" on="0"/>
        <pt x="201" y="12" on="0"/>
        <pt x="156" y="-11" on="0"/>
        <pt x="87" y="-11" on="0"/>
        <pt x="34" y="23" on="0"/>
        <pt x="24" y="50" on="1"/>
        <pt x="6" y="95" on="0"/>
        <pt x="6" y="173" on="0"/>
        <pt x="30" y="241" on="0"/>
        <pt x="66" y="283" on="0"/>
        <pt x="114" y="316" on="0"/>
        <pt x="156" y="331" on="0"/>
        <pt x="178" y="336" on="1"/>
        <pt x="209" y="342" on="0"/>
        <pt x="221" y="342" on="1"/>
        <pt x="231" y="355" on="1"/>
        <pt x="230" y="389" on="0"/>
        <pt x="133" y="389" on="0"/>
        <pt x="102" y="370" on="1"/>
        <pt x="90" y="362" on="0"/>
        <pt x="78" y="362" on="1"/>
        <pt x="54" y="362" on="0"/>
        <pt x="54" y="398" on="1"/>
        <pt x="54" y="491" on="0"/>
        <pt x="202" y="491" on="1"/>
        <pt x="316" y="491" on="0"/>
        <pt x="345" y="415" on="1"/>
        <pt x="358" y="381" on="0"/>
      </contour>
      <contour>
        <pt x="143" y="600" on="1"/>
        <pt x="126" y="606" on="0"/>
        <pt x="124" y="619" on="1"/>
        <pt x="124" y="636" on="0"/>
        <pt x="157" y="675" on="0"/>
        <pt x="188" y="675" on="0"/>
        <pt x="208" y="653" on="1"/>
        <pt x="236" y="622" on="0"/>
        <pt x="251" y="592" on="1"/>
        <pt x="265" y="569" on="0"/>
        <pt x="265" y="545" on="0"/>
        <pt x="254" y="545" on="1"/>
        <pt x="247" y="545" on="0"/>
        <pt x="239" y="549" on="1"/>
        <pt x="174" y="590" on="0"/>
      </contour>
    </TTGlyph>
    <TTGlyph name="ampersand" xMin="0" yMin="-10" xMax="513" yMax="721">
      <contour>
        <pt x="397" y="-10" on="1"/>
        <pt x="378" y="-10" on="0"/>
        <pt x="348" y="12" on="0"/>
        <pt x="342" y="23" on="1"/>
        <pt x="336" y="34" on="1"/>
        <pt x="334" y="40" on="0"/>
        <pt x="320" y="40" on="0"/>
        <pt x="298" y="28" on="1"/>
        <pt x="230" y="-9" on="0"/>
        <pt x="90" y="-9" on="0"/>
        <pt x="0" y="72" on="0"/>
        <pt x="0" y="140" on="1"/>
        <pt x="0" y="180" on="0"/>
        <pt x="28" y="263" on="0"/>
        <pt x="48" y="294" on="1"/>
        <pt x="88" y="354" on="0"/>
        <pt x="122" y="386" on="1"/>
        <pt x="136" y="399" on="1"/>
        <pt x="139" y="402" on="0"/>
        <pt x="139" y="408" on="1"/>
        <pt x="138" y="416" on="1"/>
        <pt x="92" y="512" on="0"/>
        <pt x="92" y="628" on="0"/>
        <pt x="202" y="721" on="0"/>
        <pt x="288" y="721" on="1"/>
        <pt x="400" y="721" on="0"/>
        <pt x="400" y="641" on="1"/>
        <pt x="400" y="564" on="0"/>
        <pt x="283" y="429" on="1"/>
        <pt x="275" y="424" on="0"/>
        <pt x="275" y="413" on="0"/>
        <pt x="277" y="409" on="1"/>
        <pt x="311" y="340" on="0"/>
        <pt x="365" y="260" on="1"/>
        <pt x="367" y="256" on="0"/>
        <pt x="372" y="256" on="1"/>
        <pt x="385" y="256" on="0"/>
        <pt x="393" y="277" on="1"/>
        <pt x="400" y="292" on="0"/>
        <pt x="433" y="292" on="0"/>
        <pt x="453" y="250" on="0"/>
        <pt x="453" y="201" on="0"/>
        <pt x="438" y="169" on="0"/>
        <pt x="438" y="153" on="0"/>
        <pt x="458" y="137" on="0"/>
        <pt x="471" y="137" on="1"/>
        <pt x="486" y="138" on="1"/>
        <pt x="513" y="138" on="0"/>
        <pt x="513" y="115" on="1"/>
        <pt x="513" y="78" on="0"/>
        <pt x="438" y="-10" on="0"/>
      </contour>
      <contour>
        <pt x="263" y="164" on="1"/>
        <pt x="222" y="237" on="0"/>
        <pt x="198" y="283" on="1"/>
        <pt x="194" y="289" on="0"/>
        <pt x="180" y="289" on="0"/>
        <pt x="173" y="281" on="1"/>
        <pt x="142" y="246" on="0"/>
        <pt x="142" y="172" on="0"/>
        <pt x="178" y="131" on="0"/>
        <pt x="232" y="131" on="0"/>
        <pt x="258" y="144" on="1"/>
        <pt x="266" y="148" on="0"/>
        <pt x="266" y="155" on="1"/>
      </contour>
      <contour>
        <pt x="241" y="505" on="1"/>
        <pt x="278" y="543" on="0"/>
        <pt x="278" y="592" on="1"/>
        <pt x="278" y="628" on="0"/>
        <pt x="251" y="628" on="1"/>
        <pt x="232" y="628" on="0"/>
        <pt x="211" y="594" on="0"/>
        <pt x="211" y="559" on="0"/>
        <pt x="226" y="503" on="0"/>
        <pt x="236" y="503" on="1"/>
        <pt x="239" y="503" on="0"/>
      </contour>
    </TTGlyph>
    <TTGlyph name="apple" xMin="0" yMin="-12" xMax="632" yMax="738">
      <contour>
        <pt x="434" y="738" on="1"/>
        <pt x="344" y="653" on="1"/>
        <pt x="335" y="654" on="0"/>
        <pt x="297" y="654" on="0"/>
        <pt x="288" y="653" on="1"/>
        <pt x="198" y="738" on="1"/>
        <pt x="257" y="738" on="1"/>
        <pt x="315" y="677" on="1"/>
        <pt x="374" y="738" on="1"/>
      </contour>
      <contour>
        <pt x="632" y="434" on="0"/>
        <pt x="632" y="174" on="0"/>
        <pt x="446" y="-12" on="0"/>
        <pt x="185" y="-12" on="0"/>
        <pt x="0" y="173" on="0"/>
        <pt x="0" y="435" on="0"/>
        <pt x="185" y="620" on="0"/>
        <pt x="446" y="620" on="0"/>
      </contour>
      <contour>
        <pt x="586" y="192" on="0"/>
        <pt x="586" y="416" on="0"/>
        <pt x="428" y="575" on="0"/>
        <pt x="204" y="575" on="0"/>
        <pt x="45" y="416" on="0"/>
        <pt x="45" y="192" on="0"/>
        <pt x="204" y="33" on="0"/>
        <pt x="428" y="33" on="0"/>
      </contour>
      <contour>
        <pt x="458" y="204" on="1"/>
        <pt x="458" y="151" on="0"/>
        <pt x="369" y="96" on="0"/>
        <pt x="254" y="96" on="0"/>
        <pt x="174" y="135" on="1"/>
        <pt x="183" y="182" on="1"/>
        <pt x="249" y="141" on="0"/>
        <pt x="311" y="141" on="1"/>
        <pt x="351" y="141" on="0"/>
        <pt x="401" y="174" on="0"/>
        <pt x="401" y="223" on="0"/>
        <pt x="356" y="262" on="0"/>
        <pt x="292" y="293" on="0"/>
        <pt x="228" y="327" on="0"/>
        <pt x="183" y="378" on="0"/>
        <pt x="183" y="409" on="1"/>
        <pt x="183" y="463" on="0"/>
        <pt x="262" y="512" on="0"/>
        <pt x="314" y="512" on="1"/>
        <pt x="351" y="512" on="0"/>
        <pt x="374" y="501" on="1"/>
        <pt x="420" y="479" on="0"/>
        <pt x="435" y="469" on="1"/>
        <pt x="424" y="426" on="1"/>
        <pt x="376" y="468" on="0"/>
        <pt x="317" y="468" on="1"/>
        <pt x="281" y="468" on="0"/>
        <pt x="237" y="437" on="0"/>
        <pt x="237" y="390" on="0"/>
        <pt x="283" y="354" on="0"/>
        <pt x="348" y="327" on="0"/>
        <pt x="412" y="296" on="0"/>
        <pt x="458" y="241" on="0"/>
      </contour>
    </TTGlyph>
    <TTGlyph name="aring" xMin="6" yMin="-19" xMax="389" yMax="673">
      <contour>
        <pt x="143" y="162" on="1"/>
        <pt x="143" y="120" on="0"/>
        <pt x="203" y="120" on="0"/>
        <pt x="240" y="182" on="0"/>
        <pt x="240" y="206" on="1"/>
        <pt x="240" y="251" on="0"/>
        <pt x="208" y="251" on="1"/>
        <pt x="179" y="251" on="0"/>
        <pt x="143" y="193" on="0"/>
      </contour>
      <contour>
        <pt x="358" y="321" on="1"/>
        <pt x="355" y="182" on="1"/>
        <pt x="355" y="99" on="0"/>
        <pt x="376" y="86" on="1"/>
        <pt x="389" y="76" on="0"/>
        <pt x="389" y="60" on="1"/>
        <pt x="389" y="31" on="0"/>
        <pt x="312" y="-19" on="0"/>
        <pt x="272" y="-19" on="1"/>
        <pt x="252" y="-19" on="0"/>
        <pt x="232" y="-2" on="0"/>
        <pt x="232" y="8" on="1"/>
        <pt x="232" y="35" on="0"/>
        <pt x="225" y="35" on="1"/>
        <pt x="224" y="35" on="0"/>
        <pt x="201" y="12" on="0"/>
        <pt x="156" y="-11" on="0"/>
        <pt x="87" y="-11" on="0"/>
        <pt x="34" y="23" on="0"/>
        <pt x="24" y="50" on="1"/>
        <pt x="6" y="95" on="0"/>
        <pt x="6" y="173" on="0"/>
        <pt x="30" y="241" on="0"/>
        <pt x="66" y="283" on="0"/>
        <pt x="114" y="316" on="0"/>
        <pt x="156" y="331" on="0"/>
        <pt x="178" y="336" on="1"/>
        <pt x="209" y="342" on="0"/>
        <pt x="221" y="342" on="1"/>
        <pt x="231" y="355" on="1"/>
        <pt x="230" y="389" on="0"/>
        <pt x="133" y="389" on="0"/>
        <pt x="102" y="370" on="1"/>
        <pt x="90" y="362" on="0"/>
        <pt x="78" y="362" on="1"/>
        <pt x="54" y="362" on="0"/>
        <pt x="54" y="398" on="1"/>
        <pt x="54" y="491" on="0"/>
        <pt x="202" y="491" on="1"/>
        <pt x="316" y="491" on="0"/>
        <pt x="345" y="415" on="1"/>
        <pt x="358" y="381" on="0"/>
      </contour>
      <contour>
        <pt x="255" y="673" on="0"/>
        <pt x="289" y="645" on="0"/>
        <pt x="289" y="590" on="0"/>
        <pt x="230" y="537" on="0"/>
        <pt x="168" y="537" on="0"/>
        <pt x="135" y="563" on="0"/>
        <pt x="134" y="618" on="0"/>
        <pt x="192" y="673" on="0"/>
      </contour>
      <contour>
        <pt x="203" y="635" on="0"/>
        <pt x="177" y="611" on="0"/>
        <pt x="177" y="599" on="1"/>
        <pt x="177" y="575" on="0"/>
        <pt x="203" y="575" on="1"/>
        <pt x="220" y="575" on="0"/>
        <pt x="246" y="598" on="0"/>
        <pt x="246" y="610" on="1"/>
        <pt x="246" y="635" on="0"/>
        <pt x="220" y="635" on="1"/>
      </contour>
    </TTGlyph>
    <TTGlyph name="asciicircum" xMin="50" yMin="166" xMax="359" yMax="338">
      <contour>
        <pt x="333" y="171" on="1"/>
        <pt x="233" y="263" on="0"/>
        <pt x="209" y="263" on="1"/>
        <pt x="197" y="263" on="0"/>
        <pt x="82" y="178" on="1"/>
        <pt x="69" y="167" on="0"/>
        <pt x="61" y="167" on="1"/>
        <pt x="50" y="167" on="0"/>
        <pt x="50" y="192" on="0"/>
        <pt x="72" y="228" on="0"/>
        <pt x="102" y="269" on="0"/>
        <pt x="164" y="338" on="0"/>
        <pt x="179" y="338" on="1"/>
        <pt x="180" y="338" on="0"/>
        <pt x="180" y="338" on="1"/>
        <pt x="193" y="338" on="0"/>
        <pt x="207" y="322" on="1"/>
        <pt x="209" y="320" on="0"/>
        <pt x="212" y="320" on="0"/>
        <pt x="216" y="325" on="1"/>
        <pt x="228" y="338" on="0"/>
        <pt x="238" y="338" on="1"/>
        <pt x="242" y="338" on="1"/>
        <pt x="257" y="338" on="0"/>
        <pt x="309" y="275" on="0"/>
        <pt x="328" y="244" on="1"/>
        <pt x="346" y="213" on="1"/>
        <pt x="359" y="191" on="0"/>
        <pt x="359" y="166" on="0"/>
        <pt x="348" y="166" on="1"/>
        <pt x="340" y="166" on="0"/>
      </contour>
    </TTGlyph>
    <TTGlyph name="asciitilde" xMin="28" yMin="200" xMax="374" yMax="311">
      <contour>
        <pt x="106" y="304" on="1"/>
        <pt x="299" y="292" on="1"/>
        <pt x="326" y="292" on="0"/>
        <pt x="343" y="308" on="1"/>
        <pt x="350" y="311" on="0"/>
        <pt x="357" y="311" on="1"/>
        <pt x="374" y="311" on="0"/>
        <pt x="374" y="263" on="0"/>
        <pt x="327" y="200" on="0"/>
        <pt x="301" y="200" on="1"/>
        <pt x="286" y="200" on="0"/>
        <pt x="121" y="227" on="0"/>
        <pt x="76" y="227" on="0"/>
        <pt x="49" y="216" on="0"/>
        <pt x="44" y="216" on="1"/>
        <pt x="28" y="216" on="0"/>
        <pt x="28" y="255" on="0"/>
        <pt x="75" y="304" on="0"/>
      </contour>
    </TTGlyph>
    <TTGlyph name="asterisk" xMin="0" yMin="437" xMax="286" yMax="744">
      <contour>
        <pt x="187" y="718" on="1"/>
        <pt x="178" y="666" on="1"/>
        <pt x="178" y="653" on="0"/>
        <pt x="189" y="653" on="1"/>
        <pt x="202" y="653" on="0"/>
        <pt x="241" y="689" on="0"/>
        <pt x="269" y="689" on="0"/>
        <pt x="286" y="667" on="0"/>
        <pt x="286" y="653" on="1"/>
        <pt x="286" y="629" on="0"/>
        <pt x="258" y="622" on="1"/>
        <pt x="212" y="609" on="0"/>
        <pt x="212" y="597" on="1"/>
        <pt x="212" y="577" on="0"/>
        <pt x="255" y="563" on="1"/>
        <pt x="274" y="559" on="0"/>
        <pt x="274" y="525" on="0"/>
        <pt x="254" y="501" on="0"/>
        <pt x="230" y="501" on="0"/>
        <pt x="219" y="512" on="1"/>
        <pt x="192" y="543" on="0"/>
        <pt x="178" y="543" on="1"/>
        <pt x="166" y="543" on="0"/>
        <pt x="166" y="505" on="0"/>
        <pt x="174" y="470" on="0"/>
        <pt x="174" y="464" on="1"/>
        <pt x="174" y="438" on="0"/>
        <pt x="105" y="437" on="0"/>
        <pt x="105" y="466" on="1"/>
        <pt x="105" y="474" on="0"/>
        <pt x="117" y="511" on="0"/>
        <pt x="117" y="540" on="0"/>
        <pt x="111" y="540" on="1"/>
        <pt x="99" y="540" on="0"/>
        <pt x="58" y="509" on="1"/>
        <pt x="48" y="499" on="0"/>
        <pt x="21" y="499" on="0"/>
        <pt x="0" y="519" on="0"/>
        <pt x="0" y="531" on="1"/>
        <pt x="0" y="556" on="0"/>
        <pt x="26" y="564" on="1"/>
        <pt x="39" y="567" on="0"/>
        <pt x="87" y="590" on="0"/>
        <pt x="87" y="601" on="1"/>
        <pt x="87" y="614" on="0"/>
        <pt x="26" y="637" on="1"/>
        <pt x="10" y="643" on="0"/>
        <pt x="10" y="674" on="0"/>
        <pt x="33" y="695" on="0"/>
        <pt x="56" y="695" on="0"/>
        <pt x="68" y="686" on="1"/>
        <pt x="97" y="655" on="0"/>
        <pt x="111" y="655" on="1"/>
        <pt x="120" y="655" on="0"/>
        <pt x="120" y="674" on="1"/>
        <pt x="116" y="710" on="1"/>
        <pt x="116" y="743" on="0"/>
        <pt x="187" y="745" on="0"/>
      </contour>
    </TTGlyph>
    <TTGlyph name="at" xMin="15" yMin="-210" xMax="926" yMax="657">
      <contour>
        <pt x="454" y="115" on="1"/>
        <pt x="482" y="115" on="0"/>
        <pt x="520" y="177" on="0"/>
        <pt x="520" y="200" on="1"/>
        <pt x="520" y="246" on="0"/>
        <pt x="487" y="246" on="1"/>
        <pt x="458" y="246" on="0"/>
        <pt x="422" y="189" on="0"/>
        <pt x="422" y="157" on="1"/>
        <pt x="422" y="115" on="0"/>
      </contour>
      <contour>
        <pt x="637" y="316" on="1"/>
        <pt x="633" y="169" on="1"/>
        <pt x="633" y="14" on="0"/>
        <pt x="706" y="14" on="1"/>
        <pt x="738" y="14" on="0"/>
        <pt x="783" y="62" on="0"/>
        <pt x="793" y="100" on="1"/>
        <pt x="811" y="170" on="0"/>
        <pt x="811" y="281" on="0"/>
        <pt x="799" y="361" on="0"/>
        <pt x="758" y="457" on="0"/>
        <pt x="693" y="525" on="0"/>
        <pt x="574" y="572" on="0"/>
        <pt x="495" y="572" on="1"/>
        <pt x="342" y="572" on="0"/>
        <pt x="155" y="353" on="0"/>
        <pt x="155" y="47" on="0"/>
        <pt x="306" y="-125" on="0"/>
        <pt x="462" y="-125" on="1"/>
        <pt x="513" y="-125" on="0"/>
        <pt x="513" y="-157" on="1"/>
        <pt x="513" y="-210" on="0"/>
        <pt x="376" y="-210" on="1"/>
        <pt x="212" y="-210" on="0"/>
        <pt x="15" y="17" on="0"/>
        <pt x="15" y="189" on="1"/>
        <pt x="15" y="393" on="0"/>
        <pt x="290" y="657" on="0"/>
        <pt x="497" y="657" on="1"/>
        <pt x="720" y="657" on="0"/>
        <pt x="829" y="530" on="1"/>
        <pt x="926" y="416" on="0"/>
        <pt x="926" y="239" on="1"/>
        <pt x="926" y="129" on="0"/>
        <pt x="864" y="30" on="1"/>
        <pt x="835" y="-18" on="0"/>
        <pt x="739" y="-77" on="0"/>
        <pt x="643" y="-77" on="0"/>
        <pt x="585" y="-56" on="0"/>
        <pt x="570" y="-42" on="1"/>
        <pt x="540" y="-11" on="0"/>
        <pt x="534" y="12" on="1"/>
        <pt x="532" y="23" on="1"/>
        <pt x="531" y="34" on="0"/>
        <pt x="525" y="34" on="1"/>
        <pt x="513" y="26" on="1"/>
        <pt x="475" y="-15" on="0"/>
        <pt x="346" y="-15" on="0"/>
        <pt x="285" y="65" on="0"/>
        <pt x="285" y="133" on="1"/>
        <pt x="285" y="212" on="0"/>
        <pt x="328" y="258" on="1"/>
        <pt x="370" y="304" on="0"/>
        <pt x="415" y="318" on="1"/>
        <pt x="462" y="334" on="0"/>
        <pt x="488" y="336" on="1"/>
        <pt x="500" y="337" on="1"/>
        <pt x="510" y="350" on="1"/>
        <pt x="509" y="384" on="0"/>
        <pt x="457" y="384" on="1"/>
        <pt x="421" y="384" on="0"/>
        <pt x="369" y="359" on="0"/>
        <pt x="357" y="359" on="1"/>
        <pt x="333" y="359" on="0"/>
        <pt x="333" y="399" on="1"/>
        <pt x="333" y="485" on="0"/>
        <pt x="487" y="485" on="1"/>
        <pt x="596" y="485" on="0"/>
        <pt x="624" y="411" on="1"/>
        <pt x="637" y="376" on="0"/>
      </contour>
    </TTGlyph>
    <TTGlyph name="atilde" xMin="6" yMin="-19" xMax="389" yMax="637">
      <contour>
        <pt x="143" y="162" on="1"/>
        <pt x="143" y="120" on="0"/>
        <pt x="203" y="120" on="0"/>
        <pt x="240" y="182" on="0"/>
        <pt x="240" y="206" on="1"/>
        <pt x="240" y="251" on="0"/>
        <pt x="208" y="251" on="1"/>
        <pt x="179" y="251" on="0"/>
        <pt x="143" y="193" on="0"/>
      </contour>
      <contour>
        <pt x="358" y="321" on="1"/>
        <pt x="355" y="182" on="1"/>
        <pt x="355" y="99" on="0"/>
        <pt x="376" y="86" on="1"/>
        <pt x="389" y="76" on="0"/>
        <pt x="389" y="60" on="1"/>
        <pt x="389" y="31" on="0"/>
        <pt x="312" y="-19" on="0"/>
        <pt x="272" y="-19" on="1"/>
        <pt x="252" y="-19" on="0"/>
        <pt x="232" y="-2" on="0"/>
        <pt x="232" y="8" on="1"/>
        <pt x="232" y="35" on="0"/>
        <pt x="225" y="35" on="1"/>
        <pt x="224" y="35" on="0"/>
        <pt x="201" y="12" on="0"/>
        <pt x="156" y="-11" on="0"/>
        <pt x="87" y="-11" on="0"/>
        <pt x="34" y="23" on="0"/>
        <pt x="24" y="50" on="1"/>
        <pt x="6" y="95" on="0"/>
        <pt x="6" y="173" on="0"/>
        <pt x="30" y="241" on="0"/>
        <pt x="66" y="283" on="0"/>
        <pt x="114" y="316" on="0"/>
        <pt x="156" y="331" on="0"/>
        <pt x="178" y="336" on="1"/>
        <pt x="209" y="342" on="0"/>
        <pt x="221" y="342" on="1"/>
        <pt x="231" y="355" on="1"/>
        <pt x="230" y="389" on="0"/>
        <pt x="133" y="389" on="0"/>
        <pt x="102" y="370" on="1"/>
        <pt x="90" y="362" on="0"/>
        <pt x="78" y="362" on="1"/>
        <pt x="54" y="362" on="0"/>
        <pt x="54" y="398" on="1"/>
        <pt x="54" y="491" on="0"/>
        <pt x="202" y="491" on="1"/>
        <pt x="316" y="491" on="0"/>
        <pt x="345" y="415" on="1"/>
        <pt x="358" y="381" on="0"/>
      </contour>
      <contour>
        <pt x="319" y="637" on="1"/>
        <pt x="336" y="637" on="0"/>
        <pt x="336" y="589" on="0"/>
        <pt x="289" y="526" on="0"/>
        <pt x="263" y="526" on="1"/>
        <pt x="248" y="526" on="0"/>
        <pt x="191" y="553" on="0"/>
        <pt x="146" y="553" on="0"/>
        <pt x="119" y="542" on="0"/>
        <pt x="114" y="542" on="1"/>
        <pt x="98" y="542" on="0"/>
        <pt x="98" y="581" on="0"/>
        <pt x="145" y="630" on="0"/>
        <pt x="200" y="630" on="0"/>
        <pt x="248" y="618" on="0"/>
        <pt x="288" y="618" on="0"/>
        <pt x="305" y="634" on="1"/>
        <pt x="312" y="637" on="0"/>
      </contour>
    </TTGlyph>
    <TTGlyph name="b" xMin="-15" yMin="-15" xMax="385" yMax="744">
      <contour>
        <pt x="170" y="447" on="1"/>
        <pt x="203" y="483" on="0"/>
        <pt x="287" y="483" on="0"/>
        <pt x="343" y="434" on="0"/>
        <pt x="358" y="396" on="1"/>
        <pt x="385" y="322" on="0"/>
        <pt x="385" y="183" on="0"/>
        <pt x="347" y="69" on="0"/>
        <pt x="255" y="-15" on="0"/>
        <pt x="191" y="-15" on="1"/>
        <pt x="149" y="-15" on="0"/>
        <pt x="87" y="18" on="0"/>
        <pt x="52" y="68" on="0"/>
        <pt x="42" y="106" on="1"/>
        <pt x="25" y="166" on="0"/>
        <pt x="25" y="258" on="1"/>
        <pt x="28" y="343" on="1"/>
        <pt x="35" y="428" on="0"/>
        <pt x="35" y="489" on="1"/>
        <pt x="31" y="572" on="1"/>
        <pt x="29" y="589" on="0"/>
        <pt x="12" y="615" on="0"/>
        <pt x="-2" y="625" on="1"/>
        <pt x="-15" y="637" on="0"/>
        <pt x="-15" y="648" on="1"/>
        <pt x="-15" y="672" on="0"/>
        <pt x="5" y="688" on="1"/>
        <pt x="12" y="693" on="1"/>
        <pt x="24" y="705" on="0"/>
        <pt x="107" y="744" on="0"/>
        <pt x="168" y="744" on="0"/>
        <pt x="168" y="716" on="1"/>
        <pt x="157" y="622" on="0"/>
        <pt x="157" y="448" on="1"/>
        <pt x="159" y="441" on="0"/>
        <pt x="166" y="441" on="0"/>
      </contour>
      <contour>
        <pt x="189" y="148" on="0"/>
        <pt x="239" y="148" on="0"/>
        <pt x="267" y="194" on="0"/>
        <pt x="267" y="266" on="0"/>
        <pt x="227" y="349" on="0"/>
        <pt x="194" y="349" on="1"/>
        <pt x="172" y="349" on="0"/>
        <pt x="145" y="303" on="0"/>
        <pt x="145" y="245" on="0"/>
        <pt x="156" y="195" on="0"/>
      </contour>
    </TTGlyph>
    <TTGlyph name="backslash" xMin="-121" yMin="-23" xMax="385" yMax="751">
      <contour>
        <pt x="345" y="-23" on="1"/>
        <pt x="332" y="-23" on="0"/>
        <pt x="312" y="-10" on="0"/>
        <pt x="305" y="2" on="1"/>
        <pt x="-118" y="722" on="1"/>
        <pt x="-121" y="728" on="0"/>
        <pt x="-121" y="733" on="1"/>
        <pt x="-121" y="751" on="0"/>
        <pt x="-86" y="751" on="1"/>
        <pt x="-72" y="751" on="0"/>
        <pt x="-51" y="742" on="0"/>
        <pt x="-45" y="734" on="1"/>
        <pt x="378" y="14" on="1"/>
        <pt x="385" y="5" on="0"/>
        <pt x="385" y="-4" on="1"/>
        <pt x="385" y="-23" on="0"/>
      </contour>
    </TTGlyph>
    <TTGlyph name="bar" xMin="40" yMin="-24" xMax="134" yMax="752">
      <contour>
        <pt x="40" y="10" on="1"/>
        <pt x="40" y="14" on="1"/>
        <pt x="54" y="676" on="0"/>
        <pt x="54" y="734" on="1"/>
        <pt x="54" y="752" on="0"/>
        <pt x="83" y="752" on="1"/>
        <pt x="134" y="752" on="0"/>
        <pt x="134" y="722" on="1"/>
        <pt x="120" y="2" on="1"/>
        <pt x="120" y="-24" on="0"/>
        <pt x="88" y="-24" on="1"/>
        <pt x="70" y="-24" on="0"/>
        <pt x="40" y="-5" on="0"/>
      </contour>
    </TTGlyph>
    <TTGlyph name="braceleft" xMin="0" yMin="-69" xMax="216" yMax="774">
      <contour>
        <pt x="163" y="590" on="1"/>
        <pt x="167" y="500" on="1"/>
        <pt x="167" y="413" on="0"/>
        <pt x="97" y="361" on="1"/>
        <pt x="91" y="358" on="0"/>
        <pt x="91" y="348" on="0"/>
        <pt x="97" y="344" on="1"/>
        <pt x="167" y="292" on="0"/>
        <pt x="167" y="204" on="1"/>
        <pt x="163" y="115" on="1"/>
        <pt x="166" y="59" on="1"/>
        <pt x="168" y="34" on="0"/>
        <pt x="216" y="-51" on="0"/>
        <pt x="216" y="-58" on="1"/>
        <pt x="216" y="-69" on="0"/>
        <pt x="201" y="-69" on="1"/>
        <pt x="170" y="-69" on="0"/>
        <pt x="91" y="-27" on="0"/>
        <pt x="56" y="23" on="0"/>
        <pt x="56" y="78" on="1"/>
        <pt x="59" y="178" on="1"/>
        <pt x="59" y="305" on="0"/>
        <pt x="6" y="343" on="1"/>
        <pt x="0" y="347" on="0"/>
        <pt x="0" y="351" on="1"/>
        <pt x="0" y="358" on="0"/>
        <pt x="6" y="362" on="1"/>
        <pt x="59" y="402" on="0"/>
        <pt x="59" y="530" on="1"/>
        <pt x="56" y="627" on="1"/>
        <pt x="56" y="682" on="0"/>
        <pt x="93" y="734" on="0"/>
        <pt x="170" y="774" on="0"/>
        <pt x="200" y="774" on="1"/>
        <pt x="216" y="774" on="0"/>
        <pt x="216" y="762" on="1"/>
        <pt x="216" y="756" on="0"/>
        <pt x="168" y="670" on="0"/>
        <pt x="163" y="629" on="0"/>
      </contour>
    </TTGlyph>
    <TTGlyph name="braceright" xMin="0" yMin="-69" xMax="216" yMax="774">
      <contour>
        <pt x="53" y="115" on="1"/>
        <pt x="49" y="205" on="1"/>
        <pt x="49" y="292" on="0"/>
        <pt x="119" y="344" on="1"/>
        <pt x="125" y="347" on="0"/>
        <pt x="125" y="357" on="0"/>
        <pt x="119" y="361" on="1"/>
        <pt x="49" y="413" on="0"/>
        <pt x="49" y="501" on="1"/>
        <pt x="53" y="590" on="1"/>
        <pt x="50" y="646" on="1"/>
        <pt x="48" y="671" on="0"/>
        <pt x="0" y="756" on="0"/>
        <pt x="0" y="763" on="1"/>
        <pt x="0" y="774" on="0"/>
        <pt x="15" y="774" on="1"/>
        <pt x="46" y="774" on="0"/>
        <pt x="125" y="732" on="0"/>
        <pt x="160" y="682" on="0"/>
        <pt x="160" y="627" on="1"/>
        <pt x="157" y="527" on="1"/>
        <pt x="157" y="400" on="0"/>
        <pt x="210" y="362" on="1"/>
        <pt x="216" y="358" on="0"/>
        <pt x="216" y="354" on="1"/>
        <pt x="216" y="347" on="0"/>
        <pt x="210" y="343" on="1"/>
        <pt x="157" y="303" on="0"/>
        <pt x="157" y="175" on="1"/>
        <pt x="160" y="78" on="1"/>
        <pt x="160" y="23" on="0"/>
        <pt x="123" y="-29" on="0"/>
        <pt x="46" y="-69" on="0"/>
        <pt x="16" y="-69" on="1"/>
        <pt x="0" y="-69" on="0"/>
        <pt x="0" y="-57" on="1"/>
        <pt x="0" y="-51" on="0"/>
        <pt x="48" y="35" on="0"/>
        <pt x="53" y="76" on="0"/>
      </contour>
    </TTGlyph>
    <TTGlyph name="bracketleft" xMin="15" yMin="-100" xMax="181" yMax="805">
      <contour>
        <pt x="121" y="670" on="1"/>
        <pt x="121" y="35" on="1"/>
        <pt x="121" y="20" on="0"/>
        <pt x="134" y="-6" on="1"/>
        <pt x="180" y="-67" on="0"/>
        <pt x="180" y="-88" on="1"/>
        <pt x="180" y="-100" on="0"/>
        <pt x="166" y="-100" on="1"/>
        <pt x="141" y="-94" on="1"/>
        <pt x="56" y="-62" on="0"/>
        <pt x="24" y="-12" on="1"/>
        <pt x="17" y="-1" on="0"/>
        <pt x="15" y="12" on="1"/>
        <pt x="15" y="693" on="1"/>
        <pt x="15" y="700" on="0"/>
        <pt x="31" y="729" on="0"/>
        <pt x="43" y="741" on="1"/>
        <pt x="74" y="772" on="0"/>
        <pt x="141" y="799" on="1"/>
        <pt x="156" y="805" on="0"/>
        <pt x="181" y="805" on="0"/>
        <pt x="181" y="793" on="1"/>
        <pt x="181" y="780" on="0"/>
        <pt x="169" y="762" on="1"/>
        <pt x="143" y="723" on="0"/>
        <pt x="134" y="711" on="1"/>
        <pt x="121" y="683" on="0"/>
      </contour>
    </TTGlyph>
    <TTGlyph name="bracketright" xMin="0" yMin="-100" xMax="166" yMax="805">
      <contour>
        <pt x="60" y="35" on="1"/>
        <pt x="60" y="670" on="1"/>
        <pt x="60" y="683" on="0"/>
        <pt x="47" y="711" on="1"/>
        <pt x="0" y="774" on="0"/>
        <pt x="0" y="805" on="0"/>
        <pt x="14" y="805" on="1"/>
        <pt x="40" y="799" on="1"/>
        <pt x="95" y="777" on="0"/>
        <pt x="158" y="724" on="0"/>
        <pt x="162" y="708" on="1"/>
        <pt x="166" y="693" on="1"/>
        <pt x="166" y="12" on="1"/>
        <pt x="166" y="5" on="0"/>
        <pt x="150" y="-24" on="0"/>
        <pt x="138" y="-36" on="1"/>
        <pt x="104" y="-70" on="0"/>
        <pt x="40" y="-94" on="1"/>
        <pt x="26" y="-100" on="0"/>
        <pt x="1" y="-100" on="0"/>
        <pt x="1" y="-67" on="0"/>
        <pt x="47" y="-6" on="1"/>
        <pt x="60" y="21" on="0"/>
      </contour>
    </TTGlyph>
    <TTGlyph name="breve" xMin="84" yMin="547" xMax="327" yMax="671">
      <contour>
        <pt x="110" y="666" on="1"/>
        <pt x="165" y="611" on="0"/>
        <pt x="251" y="611" on="0"/>
        <pt x="302" y="666" on="1"/>
        <pt x="307" y="671" on="0"/>
        <pt x="327" y="671" on="0"/>
        <pt x="327" y="649" on="0"/>
        <pt x="314" y="624" on="1"/>
        <pt x="273" y="547" on="0"/>
        <pt x="139" y="547" on="0"/>
        <pt x="97" y="624" on="1"/>
        <pt x="84" y="649" on="0"/>
        <pt x="84" y="671" on="0"/>
        <pt x="95" y="671" on="1"/>
        <pt x="102" y="671" on="0"/>
      </contour>
    </TTGlyph>
    <TTGlyph name="brokenbar" xMin="38" yMin="-22" xMax="134" yMax="752">
      <contour>
        <pt x="49" y="459" on="1"/>
        <pt x="50" y="516" on="1"/>
        <pt x="54" y="649" on="0"/>
        <pt x="54" y="734" on="1"/>
        <pt x="54" y="752" on="0"/>
        <pt x="83" y="752" on="1"/>
        <pt x="134" y="752" on="0"/>
        <pt x="134" y="722" on="1"/>
        <pt x="129" y="451" on="1"/>
        <pt x="129" y="425" on="0"/>
        <pt x="97" y="425" on="1"/>
        <pt x="79" y="425" on="0"/>
        <pt x="49" y="444" on="0"/>
      </contour>
      <contour>
        <pt x="38" y="12" on="1"/>
        <pt x="39" y="69" on="1"/>
        <pt x="40" y="126" on="0"/>
        <pt x="43" y="261" on="0"/>
        <pt x="43" y="287" on="1"/>
        <pt x="43" y="305" on="0"/>
        <pt x="72" y="305" on="1"/>
        <pt x="123" y="305" on="0"/>
        <pt x="123" y="275" on="1"/>
        <pt x="118" y="4" on="1"/>
        <pt x="118" y="-22" on="0"/>
        <pt x="86" y="-22" on="1"/>
        <pt x="68" y="-22" on="0"/>
        <pt x="38" y="-3" on="0"/>
      </contour>
    </TTGlyph>
    <TTGlyph name="bullet" xMin="19" yMin="186" xMax="164" yMax="329">
      <contour>
        <pt x="164" y="234" on="0"/>
        <pt x="122" y="186" on="0"/>
        <pt x="53" y="186" on="0"/>
        <pt x="19" y="221" on="0"/>
        <pt x="19" y="278" on="0"/>
        <pt x="62" y="329" on="0"/>
        <pt x="129" y="329" on="0"/>
        <pt x="164" y="292" on="0"/>
      </contour>
    </TTGlyph>
    <TTGlyph name="c" xMin="11" yMin="-23" xMax="362" yMax="493">
      <contour>
        <pt x="308" y="190" on="1"/>
        <pt x="362" y="190" on="0"/>
        <pt x="362" y="124" on="1"/>
        <pt x="361" y="84" on="0"/>
        <pt x="329" y="25" on="0"/>
        <pt x="290" y="-4" on="0"/>
        <pt x="262" y="-12" on="1"/>
        <pt x="225" y="-23" on="0"/>
        <pt x="137" y="-23" on="0"/>
        <pt x="66" y="19" on="0"/>
        <pt x="47" y="55" on="1"/>
        <pt x="11" y="123" on="0"/>
        <pt x="11" y="219" on="1"/>
        <pt x="11" y="324" on="0"/>
        <pt x="58" y="404" on="1"/>
        <pt x="81" y="445" on="0"/>
        <pt x="164" y="493" on="0"/>
        <pt x="278" y="493" on="0"/>
        <pt x="359" y="434" on="0"/>
        <pt x="359" y="372" on="1"/>
        <pt x="359" y="298" on="0"/>
        <pt x="292" y="298" on="1"/>
        <pt x="275" y="298" on="0"/>
        <pt x="252" y="323" on="0"/>
        <pt x="252" y="348" on="0"/>
        <pt x="249" y="365" on="0"/>
        <pt x="228" y="394" on="0"/>
        <pt x="212" y="394" on="1"/>
        <pt x="149" y="394" on="0"/>
        <pt x="149" y="268" on="1"/>
        <pt x="149" y="230" on="0"/>
        <pt x="156" y="193" on="1"/>
        <pt x="171" y="123" on="0"/>
        <pt x="212" y="123" on="1"/>
        <pt x="243" y="123" on="0"/>
        <pt x="254" y="155" on="1"/>
        <pt x="257" y="169" on="0"/>
        <pt x="289" y="190" on="0"/>
      </contour>
    </TTGlyph>
    <TTGlyph name="caron" xMin="84" yMin="540" xMax="327" yMax="671">
      <contour>
        <pt x="110" y="666" on="1"/>
        <pt x="188" y="615" on="0"/>
        <pt x="207" y="615" on="1"/>
        <pt x="213" y="615" on="0"/>
        <pt x="310" y="671" on="0"/>
        <pt x="316" y="671" on="1"/>
        <pt x="327" y="671" on="0"/>
        <pt x="327" y="646" on="0"/>
        <pt x="309" y="615" on="0"/>
        <pt x="293" y="587" on="0"/>
        <pt x="252" y="540" on="0"/>
        <pt x="237" y="540" on="1"/>
        <pt x="236" y="540" on="0"/>
        <pt x="236" y="540" on="1"/>
        <pt x="223" y="540" on="0"/>
        <pt x="209" y="556" on="1"/>
        <pt x="207" y="558" on="0"/>
        <pt x="204" y="558" on="0"/>
        <pt x="200" y="553" on="1"/>
        <pt x="188" y="540" on="0"/>
        <pt x="178" y="540" on="1"/>
        <pt x="174" y="540" on="1"/>
        <pt x="159" y="540" on="0"/>
        <pt x="121" y="582" on="0"/>
        <pt x="109" y="603" on="1"/>
        <pt x="97" y="624" on="1"/>
        <pt x="84" y="646" on="0"/>
        <pt x="84" y="671" on="0"/>
        <pt x="95" y="671" on="1"/>
        <pt x="102" y="671" on="0"/>
      </contour>
    </TTGlyph>
    <TTGlyph name="ccedilla" xMin="10" yMin="-133" xMax="360" yMax="492">
      <contour>
        <pt x="170" y="-22" on="1"/>
        <pt x="10" y="-3" on="0"/>
        <pt x="10" y="219" on="1"/>
        <pt x="10" y="368" on="0"/>
        <pt x="106" y="449" on="1"/>
        <pt x="156" y="492" on="0"/>
        <pt x="226" y="492" on="1"/>
        <pt x="267" y="492" on="0"/>
        <pt x="297" y="477" on="1"/>
        <pt x="353" y="448" on="0"/>
        <pt x="357" y="377" on="1"/>
        <pt x="357" y="344" on="0"/>
        <pt x="325" y="298" on="0"/>
        <pt x="290" y="298" on="1"/>
        <pt x="273" y="298" on="0"/>
        <pt x="250" y="323" on="0"/>
        <pt x="250" y="348" on="0"/>
        <pt x="246" y="365" on="0"/>
        <pt x="226" y="393" on="0"/>
        <pt x="210" y="393" on="1"/>
        <pt x="175" y="393" on="0"/>
        <pt x="147" y="318" on="0"/>
        <pt x="147" y="271" on="1"/>
        <pt x="147" y="124" on="0"/>
        <pt x="210" y="124" on="1"/>
        <pt x="241" y="124" on="0"/>
        <pt x="252" y="155" on="1"/>
        <pt x="255" y="168" on="0"/>
        <pt x="283" y="191" on="0"/>
        <pt x="299" y="191" on="1"/>
        <pt x="360" y="191" on="0"/>
        <pt x="360" y="53" on="0"/>
        <pt x="279" y="-13" on="0"/>
        <pt x="223" y="-21" on="1"/>
        <pt x="200" y="-29" on="0"/>
        <pt x="200" y="-41" on="1"/>
        <pt x="200" y="-49" on="0"/>
        <pt x="240" y="-71" on="0"/>
        <pt x="240" y="-109" on="0"/>
        <pt x="194" y="-133" on="0"/>
        <pt x="151" y="-133" on="0"/>
        <pt x="151" y="-127" on="1"/>
        <pt x="151" y="-118" on="0"/>
        <pt x="180" y="-97" on="0"/>
        <pt x="180" y="-79" on="0"/>
        <pt x="145" y="-65" on="0"/>
        <pt x="145" y="-46" on="0"/>
        <pt x="172" y="-25" on="0"/>
        <pt x="172" y="-22" on="0"/>
      </contour>
    </TTGlyph>
    <TTGlyph name="cedilla" xMin="145" yMin="-133" xMax="240" yMax="-13">
      <contour>
        <pt x="223" y="-21" on="1"/>
        <pt x="200" y="-29" on="0"/>
        <pt x="200" y="-41" on="1"/>
        <pt x="200" y="-49" on="0"/>
        <pt x="240" y="-71" on="0"/>
        <pt x="240" y="-109" on="0"/>
        <pt x="194" y="-133" on="0"/>
        <pt x="151" y="-133" on="0"/>
        <pt x="151" y="-127" on="1"/>
        <pt x="151" y="-118" on="0"/>
        <pt x="180" y="-97" on="0"/>
        <pt x="180" y="-79" on="0"/>
        <pt x="145" y="-65" on="0"/>
        <pt x="145" y="-40" on="0"/>
        <pt x="187" y="-13" on="0"/>
        <pt x="223" y="-13" on="0"/>
      </contour>
    </TTGlyph>
    <TTGlyph name="cent" xMin="10" yMin="-86" xMax="360" yMax="553">
      <contour>
        <pt x="180" y="-65" on="1"/>
        <pt x="180" y="-22" on="1"/>
        <pt x="84" y="-18" on="0"/>
        <pt x="44" y="58" on="1"/>
        <pt x="10" y="124" on="0"/>
        <pt x="10" y="311" on="0"/>
        <pt x="98" y="468" on="0"/>
        <pt x="180" y="487" on="1"/>
        <pt x="180" y="526" on="1"/>
        <pt x="180" y="537" on="0"/>
        <pt x="197" y="553" on="0"/>
        <pt x="212" y="553" on="1"/>
        <pt x="239" y="553" on="0"/>
        <pt x="239" y="533" on="1"/>
        <pt x="239" y="491" on="1"/>
        <pt x="283" y="488" on="0"/>
        <pt x="353" y="438" on="0"/>
        <pt x="358" y="377" on="1"/>
        <pt x="358" y="298" on="0"/>
        <pt x="291" y="298" on="1"/>
        <pt x="273" y="298" on="0"/>
        <pt x="250" y="323" on="0"/>
        <pt x="250" y="348" on="0"/>
        <pt x="247" y="365" on="0"/>
        <pt x="227" y="393" on="0"/>
        <pt x="186" y="393" on="0"/>
        <pt x="155" y="347" on="0"/>
        <pt x="147" y="297" on="0"/>
        <pt x="147" y="247" on="0"/>
        <pt x="152" y="205" on="0"/>
        <pt x="164" y="155" on="0"/>
        <pt x="191" y="124" on="0"/>
        <pt x="210" y="124" on="1"/>
        <pt x="241" y="124" on="0"/>
        <pt x="252" y="155" on="1"/>
        <pt x="255" y="168" on="0"/>
        <pt x="287" y="191" on="0"/>
        <pt x="306" y="191" on="1"/>
        <pt x="360" y="191" on="0"/>
        <pt x="360" y="124" on="1"/>
        <pt x="355" y="5" on="0"/>
        <pt x="239" y="-17" on="1"/>
        <pt x="239" y="-59" on="1"/>
        <pt x="239" y="-69" on="0"/>
        <pt x="218" y="-86" on="0"/>
        <pt x="201" y="-86" on="1"/>
        <pt x="180" y="-86" on="0"/>
      </contour>
    </TTGlyph>
    <TTGlyph name="circumflex" xMin="89" yMin="539" xMax="332" yMax="670">
      <contour>
        <pt x="306" y="544" on="1"/>
        <pt x="228" y="595" on="0"/>
        <pt x="209" y="595" on="1"/>
        <pt x="203" y="595" on="0"/>
        <pt x="106" y="539" on="0"/>
        <pt x="100" y="539" on="1"/>
        <pt x="89" y="539" on="0"/>
        <pt x="89" y="564" on="0"/>
        <pt x="107" y="595" on="0"/>
        <pt x="123" y="623" on="0"/>
        <pt x="164" y="670" on="0"/>
        <pt x="179" y="670" on="1"/>
        <pt x="180" y="670" on="0"/>
        <pt x="180" y="670" on="1"/>
        <pt x="193" y="670" on="0"/>
        <pt x="207" y="654" on="1"/>
        <pt x="209" y="652" on="0"/>
        <pt x="212" y="652" on="0"/>
        <pt x="216" y="657" on="1"/>
        <pt x="228" y="670" on="0"/>
        <pt x="238" y="670" on="1"/>
        <pt x="242" y="670" on="1"/>
        <pt x="257" y="670" on="0"/>
        <pt x="295" y="628" on="0"/>
        <pt x="307" y="607" on="1"/>
        <pt x="319" y="586" on="1"/>
        <pt x="332" y="564" on="0"/>
        <pt x="332" y="539" on="0"/>
        <pt x="321" y="539" on="1"/>
        <pt x="314" y="539" on="0"/>
      </contour>
    </TTGlyph>
    <TTGlyph name="colon" xMin="16" yMin="1" xMax="173" yMax="467">
      <contour>
        <pt x="173" y="425" on="1"/>
        <pt x="173" y="395" on="0"/>
        <pt x="113" y="347" on="0"/>
        <pt x="50" y="347" on="0"/>
        <pt x="16" y="371" on="0"/>
        <pt x="16" y="389" on="1"/>
        <pt x="16" y="420" on="0"/>
        <pt x="75" y="467" on="0"/>
        <pt x="139" y="467" on="0"/>
        <pt x="173" y="443" on="0"/>
      </contour>
      <contour>
        <pt x="140" y="120" on="0"/>
        <pt x="172" y="96" on="0"/>
        <pt x="173" y="47" on="0"/>
        <pt x="112" y="1" on="0"/>
        <pt x="49" y="1" on="0"/>
        <pt x="16" y="24" on="0"/>
        <pt x="16" y="43" on="1"/>
        <pt x="16" y="74" on="0"/>
        <pt x="76" y="120" on="0"/>
      </contour>
    </TTGlyph>
    <TTGlyph name="comma" xMin="16" yMin="-98" xMax="179" yMax="119">
      <contour>
        <pt x="114" y="119" on="1"/>
        <pt x="179" y="119" on="0"/>
        <pt x="179" y="53" on="1"/>
        <pt x="179" y="10" on="0"/>
        <pt x="115" y="-98" on="0"/>
        <pt x="74" y="-98" on="1"/>
        <pt x="59" y="-98" on="0"/>
        <pt x="59" y="-86" on="1"/>
        <pt x="62" y="-73" on="1"/>
        <pt x="77" y="-44" on="0"/>
        <pt x="77" y="-28" on="1"/>
        <pt x="77" y="1" on="0"/>
        <pt x="63" y="4" on="1"/>
        <pt x="58" y="5" on="1"/>
        <pt x="16" y="12" on="0"/>
        <pt x="16" y="43" on="1"/>
        <pt x="17" y="76" on="0"/>
        <pt x="76" y="119" on="0"/>
      </contour>
    </TTGlyph>
    <TTGlyph name="copyright" xMin="16" yMin="-26" xMax="621" yMax="537">
      <contour>
        <pt x="57" y="80" on="1"/>
        <pt x="16" y="137" on="0"/>
        <pt x="16" y="313" on="0"/>
        <pt x="112" y="462" on="0"/>
        <pt x="261" y="537" on="0"/>
        <pt x="345" y="537" on="1"/>
        <pt x="456" y="537" on="0"/>
        <pt x="621" y="404" on="0"/>
        <pt x="621" y="142" on="0"/>
        <pt x="420" y="-26" on="0"/>
        <pt x="289" y="-26" on="1"/>
        <pt x="133" y="-26" on="0"/>
      </contour>
      <contour>
        <pt x="400" y="29" on="0"/>
        <pt x="534" y="147" on="0"/>
        <pt x="534" y="361" on="0"/>
        <pt x="415" y="477" on="0"/>
        <pt x="239" y="477" on="0"/>
        <pt x="101" y="350" on="0"/>
        <pt x="101" y="140" on="0"/>
        <pt x="224" y="29" on="0"/>
      </contour>
      <contour>
        <pt x="401" y="218" on="1"/>
        <pt x="440" y="218" on="0"/>
        <pt x="440" y="170" on="1"/>
        <pt x="439" y="141" on="0"/>
        <pt x="416" y="98" on="0"/>
        <pt x="388" y="78" on="0"/>
        <pt x="368" y="72" on="1"/>
        <pt x="341" y="64" on="0"/>
        <pt x="313" y="64" on="1"/>
        <pt x="245" y="64" on="0"/>
        <pt x="186" y="165" on="0"/>
        <pt x="186" y="320" on="0"/>
        <pt x="260" y="438" on="0"/>
        <pt x="336" y="438" on="1"/>
        <pt x="379" y="438" on="0"/>
        <pt x="437" y="395" on="0"/>
        <pt x="437" y="350" on="1"/>
        <pt x="437" y="296" on="0"/>
        <pt x="389" y="296" on="1"/>
        <pt x="377" y="296" on="0"/>
        <pt x="360" y="315" on="0"/>
        <pt x="360" y="332" on="0"/>
        <pt x="358" y="345" on="0"/>
        <pt x="343" y="366" on="0"/>
        <pt x="331" y="366" on="1"/>
        <pt x="286" y="366" on="0"/>
        <pt x="286" y="170" on="0"/>
        <pt x="331" y="170" on="1"/>
        <pt x="354" y="170" on="0"/>
        <pt x="362" y="193" on="1"/>
        <pt x="370" y="218" on="0"/>
      </contour>
    </TTGlyph>
    <TTGlyph name="currency" xMin="152" yMin="130" xMax="610" yMax="589">
      <contour>
        <pt x="515" y="255" on="1"/>
        <pt x="583" y="161" on="0"/>
        <pt x="583" y="141" on="0"/>
        <pt x="539" y="130" on="0"/>
        <pt x="500" y="130" on="0"/>
        <pt x="491" y="147" on="1"/>
        <pt x="450" y="210" on="1"/>
        <pt x="408" y="193" on="0"/>
        <pt x="320" y="193" on="0"/>
        <pt x="285" y="210" on="1"/>
        <pt x="243" y="148" on="1"/>
        <pt x="230" y="132" on="0"/>
        <pt x="202" y="132" on="1"/>
        <pt x="152" y="132" on="0"/>
        <pt x="152" y="149" on="1"/>
        <pt x="152" y="152" on="0"/>
        <pt x="156" y="162" on="1"/>
        <pt x="188" y="210" on="0"/>
        <pt x="225" y="264" on="1"/>
        <pt x="207" y="295" on="0"/>
        <pt x="207" y="336" on="1"/>
        <pt x="207" y="408" on="0"/>
        <pt x="252" y="458" on="1"/>
        <pt x="180" y="556" on="0"/>
        <pt x="180" y="569" on="1"/>
        <pt x="180" y="589" on="0"/>
        <pt x="240" y="589" on="1"/>
        <pt x="264" y="589" on="0"/>
        <pt x="276" y="562" on="0"/>
        <pt x="316" y="505" on="1"/>
        <pt x="355" y="523" on="0"/>
        <pt x="444" y="523" on="0"/>
        <pt x="484" y="503" on="1"/>
        <pt x="516" y="553" on="1"/>
        <pt x="526" y="571" on="0"/>
        <pt x="554" y="571" on="1"/>
        <pt x="610" y="571" on="0"/>
        <pt x="610" y="556" on="1"/>
        <pt x="610" y="553" on="0"/>
        <pt x="606" y="543" on="1"/>
        <pt x="541" y="447" on="1"/>
        <pt x="560" y="414" on="0"/>
        <pt x="560" y="371" on="1"/>
        <pt x="560" y="303" on="0"/>
      </contour>
      <contour>
        <pt x="419" y="262" on="0"/>
        <pt x="477" y="312" on="0"/>
        <pt x="477" y="402" on="0"/>
        <pt x="425" y="452" on="0"/>
        <pt x="350" y="452" on="0"/>
        <pt x="290" y="398" on="0"/>
        <pt x="290" y="308" on="0"/>
        <pt x="343" y="262" on="0"/>
      </contour>
    </TTGlyph>
</ttFont>
